<svg width="24" height="24" viewBox="0 0 24 24" fill="none" xmlns="http://www.w3.org/2000/svg">
<path d="M15.0002 22.7502C14.7302 22.7502 14.4802 22.6002 14.3502 22.3702C14.2202 22.1302 14.2202 21.8502 14.3602 21.6102L15.4102 19.8602C15.6202 19.5102 16.0802 19.3902 16.4402 19.6002C16.8002 19.8102 16.9102 20.2702 16.7002 20.6302L16.4302 21.0802C19.1902 20.4302 21.2602 17.9502 21.2602 14.9902C21.2602 14.5802 21.6002 14.2402 22.0102 14.2402C22.4202 14.2402 22.7602 14.5802 22.7602 14.9902C22.7502 19.2702 19.2702 22.7502 15.0002 22.7502Z" fill="currentColor"/>
<path d="M2 9.75C1.59 9.75 1.25 9.41 1.25 9C1.25 4.73 4.73 1.25 9 1.25C9.27 1.25 9.52 1.4 9.65 1.63C9.78 1.87 9.78 2.15 9.64 2.39L8.59 4.14C8.38 4.49 7.92 4.61 7.56 4.39C7.21 4.18 7.09 3.72 7.31 3.36L7.58 2.91C4.81 3.56 2.75 6.04 2.75 9C2.75 9.41 2.41 9.75 2 9.75Z" fill="currentColor"/>
<path d="M16.4002 8.20996L12.6402 6.17996C12.2402 5.96996 11.7702 5.96996 11.3702 6.17996L7.60016 8.20996C7.33016 8.35996 7.16016 8.64996 7.16016 8.96996C7.16016 9.29996 7.33016 9.58996 7.60016 9.73996L11.3602 11.77C11.5602 11.88 11.7802 11.93 12.0002 11.93C12.2202 11.93 12.4402 11.88 12.6402 11.77L16.4002 9.73996C16.6702 9.58996 16.8402 9.29996 16.8402 8.96996C16.8402 8.64996 16.6702 8.35996 16.4002 8.20996Z" fill="currentColor"/>
<path d="M10.74 12.4704L7.24 10.7204C6.97 10.5904 6.66 10.6004 6.4 10.7604C6.15 10.9204 6 11.1904 6 11.4904V14.8004C6 15.3704 6.32 15.8904 6.83 16.1404L10.33 17.8904C10.45 17.9504 10.58 17.9804 10.72 17.9804C10.88 17.9804 11.03 17.9404 11.17 17.8504C11.43 17.6904 11.58 17.4204 11.58 17.1204V13.8104C11.57 13.2404 11.26 12.7304 10.74 12.4704Z" fill="currentColor"/>
<path d="M17.5899 10.7604C17.3299 10.6004 17.0199 10.5904 16.7499 10.7204L13.2499 12.4704C12.7399 12.7304 12.4199 13.2404 12.4199 13.8104V17.1204C12.4199 17.4204 12.5699 17.6904 12.8299 17.8504C12.9699 17.9404 13.1199 17.9804 13.2799 17.9804C13.4099 17.9804 13.5399 17.9504 13.6699 17.8904L17.1699 16.1404C17.6799 15.8804 17.9999 15.3704 17.9999 14.8004V11.4904C17.9999 11.1904 17.8499 10.9204 17.5899 10.7604Z" fill="currentColor"/>
</svg>
