<svg width="24" height="24" viewBox="0 0 24 24" fill="none" xmlns="http://www.w3.org/2000/svg">
<path d="M20.0505 10.6296L15.3805 8.61957L14.3405 8.17957C14.1805 8.09957 14.0405 7.88957 14.0405 7.70957V4.64957C14.0405 3.68957 13.3305 2.54957 12.4705 2.10957C12.1705 1.95957 11.8105 1.95957 11.5105 2.10957C10.6605 2.54957 9.95055 3.69957 9.95055 4.65957V7.71957C9.95055 7.89957 9.81055 8.10957 9.65055 8.18957L3.95055 10.6396C3.32055 10.8996 2.81055 11.6896 2.81055 12.3696V13.6896C2.81055 14.5396 3.45055 14.9596 4.24055 14.6196L9.25055 12.4596C9.64055 12.2896 9.96055 12.4996 9.96055 12.9296V14.0396V15.8396C9.96055 16.0696 9.83055 16.3996 9.67055 16.5596L7.35055 18.8896C7.11055 19.1296 7.00055 19.5996 7.11055 19.9396L7.56055 21.2996C7.74055 21.8896 8.41055 22.1696 8.96055 21.8896L11.3405 19.8896C11.7005 19.5796 12.2905 19.5796 12.6505 19.8896L15.0305 21.8896C15.5805 22.1596 16.2505 21.8896 16.4505 21.2996L16.9005 19.9396C17.0105 19.6096 16.9005 19.1296 16.6605 18.8896L14.3405 16.5596C14.1705 16.3996 14.0405 16.0696 14.0405 15.8396V12.9296C14.0405 12.4996 14.3505 12.2996 14.7505 12.4596L19.7605 14.6196C20.5505 14.9596 21.1905 14.5396 21.1905 13.6896V12.3696C21.1905 11.6896 20.6805 10.8996 20.0505 10.6296Z" fill="currentColor"/>
</svg>
