<svg width="24" height="24" viewBox="0 0 24 24" fill="none" xmlns="http://www.w3.org/2000/svg">
<path d="M22 21.25H21V15C21 10.03 16.97 6 12 6C7.03 6 3 10.03 3 15V21.25H2C1.59 21.25 1.25 21.59 1.25 22C1.25 22.41 1.59 22.75 2 22.75H22C22.41 22.75 22.75 22.41 22.75 22C22.75 21.59 22.41 21.25 22 21.25Z" fill="currentColor"/>
<path d="M12 3.75C11.59 3.75 11.25 3.41 11.25 3V2C11.25 1.59 11.59 1.25 12 1.25C12.41 1.25 12.75 1.59 12.75 2V3C12.75 3.41 12.41 3.75 12 3.75Z" fill="currentColor"/>
<path d="M4.99945 5.75043C4.80945 5.75043 4.61945 5.68043 4.46945 5.53043L3.46945 4.53043C3.17945 4.24043 3.17945 3.76043 3.46945 3.47043C3.75945 3.18043 4.23945 3.18043 4.52945 3.47043L5.52945 4.47043C5.81945 4.76043 5.81945 5.24043 5.52945 5.53043C5.37945 5.68043 5.18945 5.75043 4.99945 5.75043Z" fill="currentColor"/>
<path d="M18.9995 5.75043C18.8095 5.75043 18.6195 5.68043 18.4695 5.53043C18.1795 5.24043 18.1795 4.76043 18.4695 4.47043L19.4695 3.47043C19.7595 3.18043 20.2395 3.18043 20.5295 3.47043C20.8195 3.76043 20.8195 4.24043 20.5295 4.53043L19.5295 5.53043C19.3795 5.68043 19.1895 5.75043 18.9995 5.75043Z" fill="currentColor"/>
</svg>
