<svg width="24" height="24" viewBox="0 0 24 24" fill="none" xmlns="http://www.w3.org/2000/svg">
<path d="M20.1203 3.88L3.39031 20.61C3.34031 20.41 3.32031 20.19 3.32031 19.95V5.86C3.32031 3.74 5.05031 2 7.18031 2H16.8203C18.2203 2 19.4503 2.75 20.1203 3.88Z" fill="currentColor"/>
<path d="M21.7709 2.22988C21.4709 1.92988 20.9809 1.92988 20.6809 2.22988L2.23086 20.6899C1.93086 20.9899 1.93086 21.4799 2.23086 21.7799C2.38086 21.9199 2.57086 21.9999 2.77086 21.9999C2.97086 21.9999 3.16086 21.9199 3.31086 21.7699L21.7709 3.30988C22.0809 3.00988 22.0809 2.52988 21.7709 2.22988Z" fill="currentColor"/>
<path d="M19.2902 7.70956L11.9001 15.0996C11.4401 15.5596 11.5301 16.3296 12.0901 16.6596L19.4801 21.0896C20.1501 21.4896 20.9901 21.0096 20.9901 20.2296V8.40956C21.0001 7.51956 19.9201 7.07956 19.2902 7.70956Z" fill="currentColor"/>
</svg>
