<svg width="24" height="24" viewBox="0 0 24 24" fill="none" xmlns="http://www.w3.org/2000/svg">
<path d="M21.25 5.15V7.85C21.25 9.69 20.69 10.25 18.85 10.25H16.15C14.31 10.25 13.75 9.69 13.75 7.85V5.15C13.75 3.31 14.31 2.75 16.15 2.75H18.85C20.69 2.75 21.25 3.31 21.25 5.15Z" fill="currentColor"/>
<path d="M10.25 16.15V18.85C10.25 20.69 9.69 21.25 7.85 21.25H5.15C3.31 21.25 2.75 20.69 2.75 18.85V16.15C2.75 14.31 3.31 13.75 5.15 13.75H7.85C9.69 13.75 10.25 14.31 10.25 16.15Z" fill="currentColor"/>
<path d="M16.1491 11.7501C16.4142 11.7501 16.6291 11.965 16.6291 12.2301V13.6201C16.6291 15.9001 15.8991 16.6301 13.6191 16.6301H12.2291C11.964 16.6301 11.7491 16.4152 11.7491 16.1501C11.7491 13.4901 10.5091 12.2501 7.84914 12.2501C7.58404 12.2501 7.36914 12.0352 7.36914 11.7701V10.3801C7.36914 8.10012 8.09914 7.37012 10.3791 7.37012H11.7691C12.0342 7.37012 12.2491 7.58502 12.2491 7.85012C12.2491 10.5101 13.4891 11.7501 16.1491 11.7501Z" fill="currentColor"/>
</svg>
