<svg width="24" height="24" viewBox="0 0 24 24" fill="none" xmlns="http://www.w3.org/2000/svg">
<path d="M12.3806 16.9203H10.0906C9.68062 16.9203 9.34062 16.5803 9.34062 16.1703C9.34062 15.7603 9.68062 15.4203 10.0906 15.4203H12.3806C12.8106 15.4203 13.1606 15.0703 13.1606 14.6403C13.1606 14.2103 12.8106 13.8603 12.3806 13.8603H10.0906C9.85062 13.8603 9.62062 13.7403 9.48062 13.5503C9.34062 13.3603 9.30062 13.1003 9.38062 12.8703L10.1406 10.5803C10.2406 10.2703 10.5306 10.0703 10.8506 10.0703H13.9106C14.3206 10.0703 14.6606 10.4103 14.6606 10.8203C14.6606 11.2303 14.3206 11.5703 13.9106 11.5703H11.3906L11.1306 12.3603H12.3806C13.6406 12.3603 14.6606 13.3803 14.6606 14.6403C14.6606 15.9003 13.6406 16.9203 12.3806 16.9203Z" fill="currentColor"/>
<path d="M11.9996 3.48043C11.9196 3.48043 11.8396 3.49043 11.7596 3.49043L12.5796 2.47043C12.8396 2.15043 12.7896 1.67043 12.4596 1.42043C12.1296 1.17043 11.6696 1.21043 11.4096 1.54043L9.43961 4.00043C9.42961 4.01043 9.42961 4.02043 9.41961 4.04043C9.38961 4.08043 9.36961 4.13043 9.34961 4.17043C9.32961 4.22043 9.30961 4.26043 9.29961 4.30043C9.28961 4.35043 9.28961 4.39043 9.28961 4.44043C9.28961 4.49043 9.28961 4.54043 9.28961 4.59043C9.28961 4.61043 9.28961 4.62043 9.28961 4.64043C9.29961 4.67043 9.31961 4.69043 9.32961 4.72043C9.34961 4.77043 9.36961 4.81043 9.38961 4.86043C9.41961 4.90043 9.44961 4.94043 9.48961 4.97043C9.50961 5.00043 9.51961 5.03043 9.54961 5.05043C9.56961 5.06043 9.57961 5.07043 9.59961 5.08043C9.62961 5.10043 9.64961 5.11043 9.67961 5.12043C9.72961 5.15043 9.78961 5.17043 9.84961 5.18043C9.87961 5.20043 9.90961 5.20043 9.93961 5.20043C9.96961 5.20043 9.98961 5.21043 10.0196 5.21043C10.0496 5.21043 10.0696 5.20043 10.0896 5.19043C10.1196 5.19043 10.1496 5.20043 10.1796 5.19043C10.8196 5.04043 11.4196 4.97043 11.9896 4.97043C16.4796 4.97043 20.1296 8.62043 20.1296 13.1104C20.1296 17.6004 16.4796 21.2504 11.9896 21.2504C7.49961 21.2504 3.84961 17.6004 3.84961 13.1104C3.84961 11.3704 4.41961 9.69043 5.49961 8.25043C5.74961 7.92043 5.67961 7.45043 5.34961 7.20043C5.01961 6.95043 4.54961 7.02043 4.29961 7.35043C3.01961 9.05043 2.34961 11.0404 2.34961 13.1104C2.34961 18.4204 6.66961 22.7504 11.9896 22.7504C17.3096 22.7504 21.6296 18.4304 21.6296 13.1104C21.6296 7.79043 17.3096 3.48043 11.9996 3.48043Z" fill="currentColor"/>
</svg>
