<svg width="24" height="24" viewBox="0 0 24 24" fill="none" xmlns="http://www.w3.org/2000/svg">
<path d="M23.5293 12.0502C23.2393 11.7602 22.7593 11.7602 22.4693 12.0502L22.0093 12.5102V12.0002C22.0093 6.48023 17.5193 1.99023 11.9993 1.99023C8.94927 1.99023 6.09927 3.36023 4.18927 5.74023C3.92927 6.06023 3.97927 6.54023 4.30927 6.80023C4.62927 7.05023 5.09927 7.00023 5.35927 6.68023C6.98927 4.65023 9.40927 3.49023 11.9993 3.49023C16.6893 3.49023 20.5093 7.31023 20.5093 12.0002V12.5002L20.0493 12.0402C19.7593 11.7502 19.2793 11.7502 18.9893 12.0402C18.6993 12.3302 18.6993 12.8102 18.9893 13.1002L20.7293 14.8402C20.7993 14.9102 20.8793 14.9602 20.9693 15.0002C21.0593 15.0402 21.1593 15.0602 21.2593 15.0602C21.3593 15.0602 21.4493 15.0402 21.5493 15.0002C21.6393 14.9602 21.7193 14.9102 21.7893 14.8402L23.5293 13.1002C23.8193 12.8202 23.8193 12.3402 23.5293 12.0502Z" fill="currentColor"/>
<path d="M19.6895 17.1997C19.3695 16.9397 18.8895 16.9897 18.6395 17.3197C17.0095 19.3497 14.5895 20.5097 11.9995 20.5097C7.30945 20.5097 3.48945 16.6897 3.48945 11.9997V11.4997L3.94945 11.9597C4.09945 12.1097 4.28945 12.1797 4.47945 12.1797C4.66945 12.1797 4.85945 12.0997 4.99945 11.9497C5.28945 11.6597 5.28945 11.1797 4.99945 10.8897L3.26945 9.14969C3.19945 9.08969 3.10945 9.02969 3.01945 8.98969C2.83945 8.90969 2.62945 8.90969 2.44945 8.98969C2.35945 9.02969 2.27945 9.08969 2.20945 9.14969L0.469453 10.8897C0.179453 11.1797 0.179453 11.6597 0.469453 11.9497C0.759453 12.2397 1.23945 12.2397 1.52945 11.9497L1.98945 11.4897V11.9997C1.98945 17.5197 6.47945 22.0097 11.9995 22.0097C15.0495 22.0097 17.8995 20.6397 19.8095 18.2597C20.0695 17.9397 20.0195 17.4597 19.6895 17.1997Z" fill="currentColor"/>
<path d="M15.45 11.64C15.72 11.24 15.87 10.77 15.87 10.25C15.87 8.92 14.7 7.75 13.37 7.75H12.55V6.75C12.55 6.34 12.21 6 11.8 6C11.39 6 11.05 6.34 11.05 6.75V7.75H9C8.59 7.75 8.25 8.09 8.25 8.5V12V15.5C8.25 15.91 8.59 16.25 9 16.25H11.05V17.25C11.05 17.66 11.39 18 11.8 18C12.21 18 12.55 17.66 12.55 17.25V16.25H14C15.52 16.25 16.75 15.13 16.75 13.75C16.75 12.86 16.23 12.08 15.45 11.64ZM9.75 9.25H13.37C13.92 9.25 14.37 9.8 14.37 10.25C14.37 10.8 13.92 11.25 13.37 11.25H9.75V9.25ZM14 14.75H9.75V12.75H13.37H14C14.69 12.75 15.25 13.2 15.25 13.75C15.25 14.3 14.69 14.75 14 14.75Z" fill="currentColor"/>
</svg>
