<svg width="24" height="24" viewBox="0 0 24 24" fill="none" xmlns="http://www.w3.org/2000/svg">
<path d="M13.47 7.40963L15.93 6.19963C16.23 6.04963 16.31 5.65963 16.08 5.41963C15.19 4.43963 14.29 3.61963 13.57 2.99963C13.24 2.71963 12.75 2.94963 12.75 3.37963V6.95963C12.75 7.32963 13.14 7.56963 13.47 7.40963Z" fill="currentColor"/>
<path d="M12.75 19.7404V21.3903C12.75 21.6904 13.02 21.9404 13.32 21.8903C16.05 21.4404 18.33 19.6103 19.41 17.1503C19.6 16.7303 19.14 16.3104 18.72 16.5104L13.03 19.3003C12.86 19.3803 12.75 19.5503 12.75 19.7404Z" fill="currentColor"/>
<path d="M11.2505 3.35963C11.2505 2.92963 10.7605 2.69963 10.4305 2.96963C8.07046 4.94963 3.88046 9.11963 3.90046 13.8996C3.90046 17.9196 6.84046 21.2496 10.6805 21.8896C10.9805 21.9396 11.2505 21.6896 11.2505 21.3896V3.35963Z" fill="currentColor"/>
<path d="M13.4402 12.4704L18.7302 10.2504C19.0002 10.1304 19.1302 9.82043 19.0002 9.56043C18.6302 8.83043 18.2002 8.12043 17.7302 7.46043C17.5902 7.26043 17.3302 7.20043 17.1102 7.30043L13.0202 9.29043C12.8502 9.37043 12.7402 9.55043 12.7402 9.74043V12.0104C12.7502 12.3604 13.1102 12.6104 13.4402 12.4704Z" fill="currentColor"/>
<path d="M19.83 14.3097C19.99 14.2297 20.09 14.0797 20.09 13.9097C20.09 13.2697 20.01 12.6397 19.87 12.0197C19.8 11.7197 19.47 11.5597 19.19 11.6797L13.05 14.2997C12.87 14.3797 12.75 14.5597 12.75 14.7597V16.9597C12.75 17.3297 13.14 17.5697 13.47 17.4097L19.37 14.5397L19.83 14.3097Z" fill="currentColor"/>
</svg>
