<svg width="24" height="24" viewBox="0 0 24 24" fill="none" xmlns="http://www.w3.org/2000/svg">
<path d="M17.6005 5.31027L11.9505 2.27027C11.3505 1.95027 10.6405 1.95027 10.0405 2.27027L4.40047 5.31027C3.99047 5.54027 3.73047 5.98027 3.73047 6.46027C3.73047 6.95027 3.98047 7.39027 4.40047 7.61027L10.0505 10.6503C10.3505 10.8103 10.6805 10.8903 11.0005 10.8903C11.3205 10.8903 11.6605 10.8103 11.9505 10.6503L17.6005 7.61027C18.0105 7.39027 18.2705 6.95027 18.2705 6.46027C18.2705 5.98027 18.0105 5.54027 17.6005 5.31027Z" fill="currentColor"/>
<path d="M9.12 11.7106L3.87 9.09058C3.46 8.88058 3 8.91058 2.61 9.14058C2.23 9.38058 2 9.79058 2 10.2406V15.2006C2 16.0606 2.48 16.8306 3.25 17.2206L8.5 19.8406C8.68 19.9306 8.88 19.9806 9.08 19.9806C9.31 19.9806 9.55 19.9106 9.76 19.7906C10.14 19.5506 10.37 19.1406 10.37 18.6906V13.7306C10.36 12.8706 9.88 12.1006 9.12 11.7106Z" fill="currentColor"/>
<path d="M20.0006 10.2406V12.7006C19.5206 12.5606 19.0106 12.5006 18.5006 12.5006C17.1406 12.5006 15.8106 12.9706 14.7606 13.8106C13.3206 14.9406 12.5006 16.6506 12.5006 18.5006C12.5006 18.9906 12.5606 19.4806 12.6906 19.9506C12.5406 19.9306 12.3906 19.8706 12.2506 19.7806C11.8706 19.5506 11.6406 19.1406 11.6406 18.6906V13.7306C11.6406 12.8706 12.1206 12.1006 12.8806 11.7106L18.1306 9.09058C18.5406 8.88058 19.0006 8.91058 19.3906 9.14058C19.7706 9.38058 20.0006 9.79058 20.0006 10.2406Z" fill="currentColor"/>
<path d="M22.58 21.4999L21.74 20.6599C22.18 19.9999 22.44 19.1999 22.44 18.3499C22.44 16.0199 20.55 14.1299 18.22 14.1299C15.89 14.1299 14 16.0199 14 18.3499C14 20.6799 15.89 22.5699 18.22 22.5699C19.07 22.5699 19.87 22.3099 20.53 21.8699L21.37 22.7099C21.54 22.8799 21.75 22.9599 21.97 22.9599C22.19 22.9599 22.41 22.8799 22.57 22.7099C22.91 22.3699 22.91 21.8299 22.58 21.4999Z" fill="currentColor"/>
</svg>
