<svg width="24" height="24" viewBox="0 0 24 24" fill="none" xmlns="http://www.w3.org/2000/svg">
<path d="M17.6005 5.31027L11.9505 2.27027C11.3505 1.95027 10.6405 1.95027 10.0405 2.27027L4.40047 5.31027C3.99047 5.54027 3.73047 5.98027 3.73047 6.46027C3.73047 6.95027 3.98047 7.39027 4.40047 7.61027L10.0505 10.6503C10.3505 10.8103 10.6805 10.8903 11.0005 10.8903C11.3205 10.8903 11.6605 10.8103 11.9505 10.6503L17.6005 7.61027C18.0105 7.39027 18.2705 6.95027 18.2705 6.46027C18.2705 5.98027 18.0105 5.54027 17.6005 5.31027Z" fill="currentColor"/>
<path d="M9.12 11.7106L3.87 9.09058C3.46 8.88058 3 8.91058 2.61 9.14058C2.23 9.38058 2 9.79058 2 10.2406V15.2006C2 16.0606 2.48 16.8306 3.25 17.2206L8.5 19.8406C8.68 19.9306 8.88 19.9806 9.08 19.9806C9.31 19.9806 9.55 19.9106 9.76 19.7906C10.14 19.5506 10.37 19.1406 10.37 18.6906V13.7306C10.36 12.8706 9.88 12.1006 9.12 11.7106Z" fill="currentColor"/>
<path d="M20.0006 10.2406V12.7006C19.5206 12.5606 19.0106 12.5006 18.5006 12.5006C17.1406 12.5006 15.8106 12.9706 14.7606 13.8106C13.3206 14.9406 12.5006 16.6506 12.5006 18.5006C12.5006 18.9906 12.5606 19.4806 12.6906 19.9506C12.5406 19.9306 12.3906 19.8706 12.2506 19.7806C11.8706 19.5506 11.6406 19.1406 11.6406 18.6906V13.7306C11.6406 12.8706 12.1206 12.1006 12.8806 11.7106L18.1306 9.09058C18.5406 8.88058 19.0006 8.91058 19.3906 9.14058C19.7706 9.38058 20.0006 9.79058 20.0006 10.2406Z" fill="currentColor"/>
<path d="M21.6794 15.3197C20.7894 14.4297 19.6094 13.9797 18.4394 13.9997C17.3094 14.0097 16.1794 14.4597 15.3194 15.3197C14.7194 15.9097 14.3294 16.6497 14.1394 17.4197C14.0294 17.8397 13.9894 18.2697 14.0194 18.6997V18.7497C14.0194 18.8197 14.0294 18.8797 14.0394 18.9597C14.0394 18.9597 14.0394 18.9597 14.0494 18.9697V18.9997C14.1394 19.9797 14.5594 20.9297 15.3194 21.6797C16.4794 22.8397 18.1094 23.2297 19.5794 22.8597C20.0194 22.7497 20.4494 22.5697 20.8494 22.3297C21.1494 22.1597 21.4294 21.9397 21.6794 21.6797C22.4294 20.9297 22.8594 19.9797 22.9494 18.9897C22.9594 18.9897 22.9594 18.9697 22.9594 18.9597C22.9794 18.8897 22.9794 18.8097 22.9794 18.7397C22.9794 18.7297 22.9894 18.7097 22.9894 18.6897C23.0494 17.4797 22.6094 16.2397 21.6794 15.3197ZM20.2294 20.2097C19.9394 20.4997 19.4694 20.4997 19.1694 20.2097L18.5094 19.5497L17.8294 20.2297C17.5294 20.5297 17.0594 20.5297 16.7694 20.2297C16.4694 19.9397 16.4694 19.4697 16.7694 19.1697L17.4494 18.4897L16.7894 17.8297C16.4994 17.5297 16.4994 17.0597 16.7894 16.7697C17.0894 16.4697 17.5594 16.4697 17.8594 16.7697L18.5094 17.4297L19.1394 16.7897C19.4394 16.4997 19.9094 16.4997 20.2094 16.7897C20.4994 17.0897 20.4994 17.5597 20.2094 17.8597L19.5694 18.4897L20.2294 19.1397C20.5294 19.4397 20.5294 19.9097 20.2294 20.2097Z" fill="currentColor"/>
</svg>
