<svg width="24" height="24" viewBox="0 0 24 24" fill="none" xmlns="http://www.w3.org/2000/svg">
<path d="M21.0891 6.97953C20.2391 6.03953 18.8291 5.56953 16.7591 5.56953H16.5191V5.52953C16.5191 3.84953 16.5191 1.76953 12.7591 1.76953H11.2391C7.47906 1.76953 7.47906 3.84953 7.47906 5.52953V5.56953H7.23906C5.16906 5.56953 3.74906 6.03953 2.90906 6.97953C1.91906 8.08953 1.94906 9.55953 2.04906 10.5695L2.05906 10.6395L2.12814 11.4455C2.14134 11.5994 2.22488 11.7387 2.3546 11.8227C2.63829 12.0063 2.94012 12.199 3.22906 12.3595C3.36906 12.4495 3.51906 12.5295 3.66906 12.6095C4.79906 13.2295 6.00906 13.7195 7.24906 14.0595C7.27906 16.6495 9.39906 18.7495 11.9991 18.7495C14.6191 18.7495 16.7491 16.6195 16.7491 13.9995V13.9595C18.0091 13.5795 19.2191 13.0495 20.3491 12.3895C20.4091 12.3595 20.4491 12.3295 20.4991 12.2995C20.8937 12.0851 21.303 11.8043 21.6766 11.5395C21.7929 11.457 21.8678 11.3285 21.8832 11.1868L21.9491 10.5795C21.9591 10.5195 21.9591 10.4695 21.9691 10.3995C22.0491 9.39953 22.0291 8.01953 21.0891 6.97953ZM8.90906 5.52953C8.90906 3.82953 8.90906 3.18953 11.2391 3.18953H12.7591C15.0891 3.18953 15.0891 3.82953 15.0891 5.52953V5.56953H8.90906V5.52953ZM11.9991 17.2495C10.3491 17.2495 8.97906 16.0095 8.77906 14.4095C8.75906 14.2795 8.74906 14.1395 8.74906 13.9995C8.74906 12.2095 10.2091 10.7495 11.9991 10.7495C13.7891 10.7495 15.2491 12.2095 15.2491 13.9995C15.2491 14.1195 15.2391 14.2295 15.2291 14.3395V14.3495C15.0491 15.9795 13.6691 17.2495 11.9991 17.2495Z" fill="currentColor"/>
<path d="M11.4309 16.0303C11.2409 16.0303 11.0509 15.9603 10.9009 15.8103L9.91086 14.8303C9.62086 14.5403 9.62086 14.0603 9.91086 13.7703C10.2009 13.4803 10.6809 13.4803 10.9709 13.7703L11.4509 14.2503L13.0609 12.7703C13.3609 12.4903 13.8409 12.5103 14.1209 12.8103C14.4009 13.1103 14.3809 13.5903 14.0809 13.8703L11.9509 15.8403C11.7909 15.9603 11.6109 16.0303 11.4309 16.0303Z" fill="currentColor"/>
<path d="M21.0416 13.7311C21.2903 13.5929 21.6129 13.7931 21.587 14.0765L21.2316 17.9611C21.0216 19.9611 20.2016 22.0011 15.8016 22.0011H8.18156C3.78156 22.0011 2.96156 19.9611 2.76156 17.9711L2.41569 14.2678C2.38884 13.9802 2.69635 13.786 2.95156 13.9211C3.73156 14.3511 4.54156 14.7311 5.37156 15.0311C5.68156 15.1411 5.90156 15.4011 5.99156 15.7211C6.74156 18.3211 9.16156 20.2511 12.0016 20.2511C14.8916 20.2511 17.3316 18.2811 18.0416 15.5811C18.1216 15.2611 18.3416 15.0011 18.6516 14.8811C19.4916 14.5511 20.2916 14.1611 21.0416 13.7311Z" fill="currentColor"/>
</svg>
