<svg width="24" height="24" viewBox="0 0 24 24" fill="none" xmlns="http://www.w3.org/2000/svg">
<path d="M11.1307 15.8799C10.8807 15.8799 10.6307 15.7499 10.4907 15.5199C10.2807 15.1699 10.3907 14.6999 10.7507 14.4899L11.6407 13.9599V12.8799C11.6407 12.4699 11.9807 12.1299 12.3907 12.1299C12.8007 12.1299 13.1407 12.4699 13.1407 12.8799V14.3799C13.1407 14.6399 13.0007 14.8899 12.7807 15.0199L11.5307 15.7699C11.3907 15.8399 11.2607 15.8799 11.1307 15.8799Z" fill="currentColor"/>
<path d="M21.0891 6.97953C20.2391 6.03953 18.8291 5.56953 16.7591 5.56953H16.5191V5.52953C16.5191 3.84953 16.5191 1.76953 12.7591 1.76953H11.2391C7.47906 1.76953 7.47906 3.84953 7.47906 5.52953V5.56953H7.23906C5.16906 5.56953 3.74906 6.03953 2.90906 6.97953C1.91906 8.08953 1.94906 9.55953 2.04906 10.5695L2.05906 10.6395L2.12814 11.4455C2.14134 11.5994 2.22488 11.7387 2.3546 11.8227C2.63829 12.0063 2.94012 12.199 3.22906 12.3595C3.36906 12.4495 3.51906 12.5295 3.66906 12.6095C4.79906 13.2295 6.00906 13.7195 7.24906 14.0595C7.27906 16.6495 9.39906 18.7495 11.9991 18.7495C14.6191 18.7495 16.7491 16.6195 16.7491 13.9995V13.9595C18.0091 13.5795 19.2191 13.0495 20.3491 12.3895C20.4091 12.3595 20.4491 12.3295 20.4991 12.2995C20.8939 12.0849 21.3035 11.804 21.6772 11.539C21.7931 11.4568 21.868 11.3288 21.8837 11.1876L21.8991 11.0495L21.9491 10.5795C21.9591 10.5195 21.9591 10.4695 21.9691 10.3995C22.0491 9.39953 22.0291 8.01953 21.0891 6.97953ZM8.90906 5.52953C8.90906 3.82953 8.90906 3.18953 11.2391 3.18953H12.7591C15.0891 3.18953 15.0891 3.82953 15.0891 5.52953V5.56953H8.90906V5.52953ZM11.9991 17.2495C10.3491 17.2495 8.97906 16.0095 8.77906 14.4095C8.75906 14.2795 8.74906 14.1395 8.74906 13.9995C8.74906 12.2095 10.2091 10.7495 11.9991 10.7495C13.7891 10.7495 15.2491 12.2095 15.2491 13.9995C15.2491 14.1195 15.2391 14.2295 15.2291 14.3395V14.3495C15.0491 15.9795 13.6691 17.2495 11.9991 17.2495Z" fill="currentColor"/>
<path d="M21.0396 13.7301C21.2883 13.5919 21.611 13.7922 21.5851 14.0755L21.2296 17.9601C21.0196 19.9601 20.1996 22.0001 15.7996 22.0001H8.17961C3.77961 22.0001 2.95961 19.9601 2.75961 17.9701L2.41374 14.2668C2.38689 13.9793 2.6944 13.785 2.94961 13.9201C3.72961 14.3501 4.53961 14.7301 5.36961 15.0301C5.67961 15.1401 5.89961 15.4001 5.98961 15.7201C6.73961 18.3201 9.15961 20.2501 11.9996 20.2501C14.8896 20.2501 17.3296 18.2801 18.0396 15.5801C18.1196 15.2601 18.3396 15.0001 18.6496 14.8801C19.4896 14.5501 20.2896 14.1601 21.0396 13.7301Z" fill="currentColor"/>
</svg>
