<svg width="24" height="24" viewBox="0 0 24 24" fill="none" xmlns="http://www.w3.org/2000/svg">
<path d="M13.5991 14.5104L13.0691 13.9804L13.5691 13.4804C13.8591 13.1904 13.8591 12.7104 13.5691 12.4204C13.2791 12.1304 12.7991 12.1304 12.5091 12.4204L12.0091 12.9204L11.4791 12.3904C11.1891 12.1004 10.7091 12.1004 10.4191 12.3904C10.1291 12.6804 10.1291 13.1604 10.4191 13.4504L10.9491 13.9804L10.3991 14.5304C10.1091 14.8204 10.1091 15.3004 10.3991 15.5904C10.5491 15.7404 10.7391 15.8104 10.9291 15.8104C11.1191 15.8104 11.3091 15.7404 11.4591 15.5904L12.0091 15.0404L12.5391 15.5704C12.6891 15.7204 12.8791 15.7904 13.0691 15.7904C13.2591 15.7904 13.4491 15.7204 13.5991 15.5704C13.8891 15.2804 13.8891 14.8104 13.5991 14.5104Z" fill="currentColor"/>
<path d="M21.0891 6.97953C20.2391 6.03953 18.8291 5.56953 16.7591 5.56953H16.5191V5.52953C16.5191 3.84953 16.5191 1.76953 12.7591 1.76953H11.2391C7.47906 1.76953 7.47906 3.84953 7.47906 5.52953V5.56953H7.23906C5.16906 5.56953 3.74906 6.03953 2.90906 6.97953C1.91906 8.08953 1.94906 9.55953 2.04906 10.5695L2.05906 10.6395L2.12814 11.4455C2.14134 11.5994 2.22488 11.7387 2.3546 11.8227C2.63829 12.0063 2.94012 12.199 3.22906 12.3595C3.36906 12.4495 3.51906 12.5295 3.66906 12.6095C4.79906 13.2295 6.00906 13.7195 7.24906 14.0595C7.27906 16.6495 9.39906 18.7495 11.9991 18.7495C14.6191 18.7495 16.7491 16.6195 16.7491 13.9995V13.9595C18.0091 13.5795 19.2191 13.0495 20.3491 12.3895C20.4091 12.3595 20.4491 12.3295 20.4991 12.2995C20.8939 12.0849 21.3035 11.804 21.6772 11.539C21.7931 11.4568 21.868 11.3288 21.8837 11.1876L21.8991 11.0495L21.9491 10.5795C21.9591 10.5195 21.9591 10.4695 21.9691 10.3995C22.0491 9.39953 22.0291 8.01953 21.0891 6.97953ZM8.90906 5.52953C8.90906 3.82953 8.90906 3.18953 11.2391 3.18953H12.7591C15.0891 3.18953 15.0891 3.82953 15.0891 5.52953V5.56953H8.90906V5.52953ZM11.9991 17.2495C10.3491 17.2495 8.97906 16.0095 8.77906 14.4095C8.75906 14.2795 8.74906 14.1395 8.74906 13.9995C8.74906 12.2095 10.2091 10.7495 11.9991 10.7495C13.7891 10.7495 15.2491 12.2095 15.2491 13.9995C15.2491 14.1195 15.2391 14.2295 15.2291 14.3395V14.3495C15.0491 15.9795 13.6691 17.2495 11.9991 17.2495Z" fill="currentColor"/>
<path d="M21.0416 13.7311C21.2903 13.5929 21.6129 13.7931 21.587 14.0765L21.2316 17.9611C21.0216 19.9611 20.2016 22.0011 15.8016 22.0011H8.18156C3.78156 22.0011 2.96156 19.9611 2.76156 17.9711L2.41569 14.2678C2.38884 13.9802 2.69635 13.786 2.95156 13.9211C3.73156 14.3511 4.54156 14.7311 5.37156 15.0311C5.68156 15.1411 5.90156 15.4011 5.99156 15.7211C6.74156 18.3211 9.16156 20.2511 12.0016 20.2511C14.8916 20.2511 17.3316 18.2811 18.0416 15.5811C18.1216 15.2611 18.3416 15.0011 18.6516 14.8811C19.4916 14.5511 20.2916 14.1611 21.0416 13.7311Z" fill="currentColor"/>
</svg>
