<svg width="24" height="24" viewBox="0 0 24 24" fill="none" xmlns="http://www.w3.org/2000/svg">
<path d="M17.0408 10.6396L9.69083 3.28965L8.82083 2.41965C8.53083 2.12965 8.05083 2.12965 7.76083 2.41965C7.47083 2.70965 7.47083 3.18965 7.76083 3.47965L8.63083 4.34965L3.00083 9.97965C2.36083 10.6196 2.02083 11.2696 2.00083 11.9196C1.98083 12.6096 2.32083 13.2996 3.00083 13.9896L7.01083 17.9996C8.35083 19.3296 9.69083 19.3296 11.0208 17.9996L17.0408 11.9796C17.2408 11.7796 17.3308 11.5096 17.3108 11.2496C17.3008 11.0296 17.2008 10.7996 17.0408 10.6396Z" fill="currentColor"/>
<path d="M16 22.75H3C2.59 22.75 2.25 22.41 2.25 22C2.25 21.59 2.59 21.25 3 21.25H16C16.41 21.25 16.75 21.59 16.75 22C16.75 22.41 16.41 22.75 16 22.75Z" fill="currentColor"/>
<path d="M19.35 14.7803C19.09 14.5003 18.61 14.5003 18.35 14.7803C18.04 15.1203 16.5 16.8503 16.5 18.1703C16.5 19.4703 17.55 20.5203 18.85 20.5203C20.15 20.5203 21.2 19.4703 21.2 18.1703C21.2 16.8603 19.66 15.1203 19.35 14.7803Z" fill="currentColor"/>
</svg>
