<svg width="24" height="24" viewBox="0 0 24 24" fill="none" xmlns="http://www.w3.org/2000/svg">
<path d="M22 21.25C22 21.66 21.66 22 21.25 22H2.75C2.34 22 2 21.66 2 21.25C2 20.84 2.34 20.5 2.75 20.5H21.25C21.66 20.5 22 20.84 22 21.25Z" fill="currentColor"/>
<path d="M15.3895 4.51977L4.64945 15.2598C4.23945 15.6698 3.57945 15.6698 3.17945 15.2598H3.16945C1.77945 13.8598 1.77945 11.5998 3.16945 10.2098L10.3195 3.05977C11.7195 1.65977 13.9795 1.65977 15.3795 3.05977C15.7895 3.44977 15.7895 4.11977 15.3895 4.51977Z" fill="currentColor"/>
<path d="M20.8195 8.49031L17.7695 5.44031C17.3595 5.03031 16.6995 5.03031 16.2995 5.44031L5.55945 16.1803C5.14945 16.5803 5.14945 17.2403 5.55945 17.6503L8.60945 20.7103C10.0095 22.1003 12.2695 22.1003 13.6695 20.7103L20.8095 13.5603C22.2295 12.1603 22.2295 9.89031 20.8195 8.49031ZM12.7595 17.5203L11.5495 18.7403C11.2995 18.9903 10.8895 18.9903 10.6295 18.7403C10.3795 18.4903 10.3795 18.0803 10.6295 17.8203L11.8495 16.6003C12.0895 16.3603 12.5095 16.3603 12.7595 16.6003C13.0095 16.8503 13.0095 17.2803 12.7595 17.5203ZM16.7295 13.5503L14.2895 16.0003C14.0395 16.2403 13.6295 16.2403 13.3695 16.0003C13.1195 15.7503 13.1195 15.3403 13.3695 15.0803L15.8195 12.6303C16.0595 12.3903 16.4795 12.3903 16.7295 12.6303C16.9795 12.8903 16.9795 13.3003 16.7295 13.5503Z" fill="currentColor"/>
</svg>
