<svg width="24" height="24" viewBox="0 0 24 24" fill="none" xmlns="http://www.w3.org/2000/svg">
<path d="M18.9004 15.0303C16.6904 15.0303 14.9004 16.8203 14.9004 19.0303C14.9004 21.2403 16.6904 23.0303 18.9004 23.0303C21.1104 23.0303 22.9004 21.2403 22.9004 19.0303C22.9004 16.8203 21.1104 15.0303 18.9004 15.0303ZM20.5004 20.6803C20.3504 20.8303 20.1604 20.9003 19.9704 20.9003C19.7804 20.9003 19.5904 20.8303 19.4404 20.6803L18.9104 20.1503L18.3604 20.7003C18.2104 20.8503 18.0204 20.9203 17.8304 20.9203C17.6404 20.9203 17.4504 20.8503 17.3004 20.7003C17.0104 20.4103 17.0104 19.9303 17.3004 19.6403L17.8504 19.0903L17.3204 18.5603C17.0304 18.2703 17.0304 17.7903 17.3204 17.5003C17.6104 17.2103 18.0904 17.2103 18.3804 17.5003L18.9104 18.0303L19.4104 17.5303C19.7004 17.2403 20.1804 17.2403 20.4704 17.5303C20.7604 17.8203 20.7604 18.3003 20.4704 18.5903L19.9704 19.0903L20.5004 19.6203C20.7904 19.9103 20.7904 20.3903 20.5004 20.6803Z" fill="currentColor"/>
<path d="M22 7.55039V8.00039C22 8.55039 21.55 9.00039 21 9.00039H3C2.45 9.00039 2 8.55039 2 8.00039V7.54039C2 5.25039 3.85 3.40039 6.14 3.40039H17.85C20.14 3.40039 22 5.26039 22 7.55039Z" fill="currentColor"/>
<path d="M2 11.5002V16.4602C2 18.7502 3.85 20.6002 6.14 20.6002H12.4C12.98 20.6002 13.48 20.1102 13.43 19.5302C13.29 18.0002 13.78 16.3402 15.14 15.0202C15.7 14.4702 16.39 14.0502 17.14 13.8102C18.39 13.4102 19.6 13.4602 20.67 13.8202C21.32 14.0402 22 13.5702 22 12.8802V11.4902C22 10.9402 21.55 10.4902 21 10.4902H3C2.45 10.5002 2 10.9502 2 11.5002ZM8 17.2502H6C5.59 17.2502 5.25 16.9102 5.25 16.5002C5.25 16.0902 5.59 15.7502 6 15.7502H8C8.41 15.7502 8.75 16.0902 8.75 16.5002C8.75 16.9102 8.41 17.2502 8 17.2502Z" fill="currentColor"/>
</svg>
