<svg xmlns="http://www.w3.org/2000/svg" width="24" height="24" fill="none" viewBox="0 0 24 24">
  <path fill="currentColor" d="M17.148 10a1 1 0 1 0 0-2 1 1 0 0 0 0 2Zm0 6a1 1 0 1 0 0-2 1 1 0 0 0 0 2Zm2.602-3a1 1 0 1 0 0-2 1 1 0 0 0 0 2ZM6.799 10a1 1 0 1 0 0-2 1 1 0 0 0 0 2Zm0 6a1 1 0 1 0 0-2 1 1 0 0 0 0 2ZM4.2 13a1 1 0 1 0 0-2 1 1 0 0 0 0 2Zm11.698-6.8a1 1 0 1 0 0-2 1 1 0 0 0 0 2ZM8.1 6.2a1 1 0 1 0 0-2 1 1 0 0 0 0 2Zm3.949.8a1 1 0 1 0 0-2 1 1 0 0 0 0 2Zm3.849 13a1 1 0 1 0 0-2 1 1 0 0 0 0 2ZM8.1 20a1 1 0 1 0 0-2 1 1 0 0 0 0 2Zm3.949-.8a1 1 0 1 0 0-2 1 1 0 0 0 0 2Zm1.701-8.95a1.25 1.25 0 1 0 0-2.5 1.25 1.25 0 0 0 0 2.5Zm-3.5 0a1.25 1.25 0 1 0 0-2.5 1.25 1.25 0 0 0 0 2.5Zm5.25 3a1.25 1.25 0 1 0 0-2.5 1.25 1.25 0 0 0 0 2.5Zm-7 0a1.25 1.25 0 1 0 0-2.5 1.25 1.25 0 0 0 0 2.5Zm1.75 3a1.25 1.25 0 1 0 0-2.5 1.25 1.25 0 0 0 0 2.5Zm3.5 0a1.25 1.25 0 1 0 0-2.5 1.25 1.25 0 0 0 0 2.5ZM12 3.33c-.49 0-.88-.39-.88-.88s.39-.88.88-.88.88.39.88.88-.39.88-.88.88Zm5.25.27c-.42 0-.76-.34-.76-.75s.34-.75.75-.75.76.34.76.75-.33.75-.75.75Zm-10.5 0a.749.749 0 1 1 0-1.5h.01c.41 0 .75.34.75.75s-.34.75-.76.75ZM12 22.38c-.49 0-.88-.39-.88-.88s.39-.88.88-.88.88.39.88.88-.39.88-.88.88Zm5.25-.53c-.42 0-.76-.34-.76-.75s.34-.75.75-.75.76.34.76.75-.33.75-.75.75Zm-10.5 0a.749.749 0 1 1 0-1.5h.01c.41 0 .75.34.75.75s-.34.75-.76.75Zm-5.2-8.97a.88.88 0 0 1-.88-.87V12c0-.48.39-.88.88-.88s.88.39.88.88-.4.88-.88.88Zm2.2 4.87c-.41 0-.75-.33-.75-.75v-.01c0-.41.34-.75.75-.75s.75.34.75.75-.34.76-.75.76Zm0-9.99c-.41 0-.75-.34-.75-.75s.34-.75.75-.75.75.33.75.74v.01c0 .41-.34.75-.75.75Zm18.75 5.12a.88.88 0 0 1-.88-.87V12a.881.881 0 0 1 1.76 0c0 .49-.4.88-.88.88Zm-2.2 4.87c-.41 0-.75-.33-.75-.75v-.01c0-.41.34-.75.75-.75s.75.34.75.75-.34.76-.75.76Zm0-9.99c-.41 0-.75-.34-.75-.75s.34-.75.75-.75.75.33.75.75v.01c0 .4-.34.74-.75.74Z"/>
</svg>
