<svg width="24" height="24" viewBox="0 0 24 24" fill="none" xmlns="http://www.w3.org/2000/svg">
<path d="M19.27 3.65039L14.17 8.75039H3.2C2.54 8.75039 2 8.21039 2 7.55039V7.54039C2 5.25039 3.85 3.40039 6.14 3.40039H17.85C18.35 3.40039 18.83 3.49039 19.27 3.65039Z" fill="currentColor"/>
<path d="M12.67 10.25L7.17 15.75H6C5.59 15.75 5.25 16.09 5.25 16.5C5.25 16.81 5.45 17.09 5.73 17.19L3.38 19.54C2.53 18.79 2 17.69 2 16.46V11.45C2 10.79 2.54 10.25 3.2 10.25H12.67Z" fill="currentColor"/>
<path d="M22.0007 11V16.46C22.0007 18.75 20.1507 20.6 17.8607 20.6H8.81065C7.92065 20.6 7.47065 19.52 8.10065 18.89L9.45065 17.54C9.64065 17.35 9.89065 17.25 10.1607 17.25H14.5007C14.9107 17.25 15.2507 16.91 15.2507 16.5C15.2507 16.09 14.9107 15.75 14.5007 15.75H13.6607C12.7707 15.75 12.3207 14.67 12.9507 14.04L16.4107 10.58C16.7907 10.21 17.3007 10 17.8307 10H21.0007C21.5507 10 22.0007 10.45 22.0007 11Z" fill="currentColor"/>
<path d="M21.7709 2.22988C21.4709 1.92988 20.9809 1.92988 20.6809 2.22988L2.23086 20.6899C1.93086 20.9899 1.93086 21.4799 2.23086 21.7799C2.38086 21.9199 2.57086 21.9999 2.77086 21.9999C2.97086 21.9999 3.16086 21.9199 3.31086 21.7699L21.7709 3.30988C22.0809 3.00988 22.0809 2.52988 21.7709 2.22988Z" fill="currentColor"/>
<path d="M21.7705 3.30957L20.6105 4.46957L16.3305 8.74957L3.31055 21.7696C3.16055 21.9196 2.97055 21.9996 2.77055 21.9996C2.57055 21.9996 2.38055 21.9196 2.23055 21.7696C1.92055 21.4696 1.92055 20.9896 2.23055 20.6896L3.38055 19.5396L5.73055 17.1896L19.2705 3.64957L20.6905 2.22957C20.9905 1.91957 21.4705 1.91957 21.7705 2.22957C22.0805 2.52957 22.0805 3.00957 21.7705 3.30957Z" fill="currentColor"/>
<path d="M22.0005 7.41026C22.0005 6.52026 20.9205 6.07026 20.2905 6.70026L20.0005 7.00026L19.7105 7.29026C19.0805 7.92026 19.5205 9.00026 20.4105 9.00026H21.0005C21.5505 9.00026 22.0005 8.55026 22.0005 8.00026V7.41026Z" fill="currentColor"/>
</svg>
