<svg width="24" height="24" viewBox="0 0 24 24" fill="none" xmlns="http://www.w3.org/2000/svg">
<path d="M14.3498 2H9.64977C8.60977 2 7.75977 2.84 7.75977 3.88V4.82C7.75977 5.86 8.59977 6.7 9.63977 6.7H14.3498C15.3898 6.7 16.2298 5.86 16.2298 4.82V3.88C16.2398 2.84 15.3898 2 14.3498 2Z" fill="currentColor"/>
<path d="M17.2391 4.82047C17.2391 6.41047 15.9391 7.71047 14.3491 7.71047H9.64906C8.05906 7.71047 6.75906 6.41047 6.75906 4.82047C6.75906 4.26047 6.15906 3.91047 5.65906 4.17047C4.24906 4.92047 3.28906 6.41047 3.28906 8.12047V17.5305C3.28906 19.9905 5.29906 22.0005 7.75906 22.0005H16.2391C18.6991 22.0005 20.7091 19.9905 20.7091 17.5305V8.12047C20.7091 6.41047 19.7491 4.92047 18.3391 4.17047C17.8391 3.91047 17.2391 4.26047 17.2391 4.82047ZM15.7491 17.0005C15.7491 17.4105 15.4091 17.7505 14.9991 17.7505H11.9991C11.5891 17.7505 11.2491 17.4105 11.2491 17.0005C11.2491 16.5905 11.5891 16.2505 11.9991 16.2505H13.1891L8.46906 11.5305C8.17906 11.2405 8.17906 10.7605 8.46906 10.4705C8.75906 10.1805 9.23906 10.1805 9.52906 10.4705L14.2491 15.1905V14.0005C14.2491 13.5905 14.5891 13.2505 14.9991 13.2505C15.4091 13.2505 15.7491 13.5905 15.7491 14.0005V17.0005Z" fill="currentColor"/>
</svg>
