<svg width="24" height="24" viewBox="0 0 24 24" fill="none" xmlns="http://www.w3.org/2000/svg">
<path d="M13.89 2.88014L9.19999 2.14014C5.28999 1.53014 3.47999 2.85014 2.85999 6.76014L2.11999 11.4501C1.71999 14.0101 2.13999 15.6701 3.58999 16.6801C4.34999 17.2201 5.38999 17.5801 6.73999 17.7901L11.43 18.5301C15.34 19.1401 17.15 17.8201 17.77 13.9101L18.5 9.22014C18.62 8.45014 18.67 7.76014 18.63 7.15014C18.5 4.65014 17.03 3.37014 13.89 2.88014ZM8.23999 9.35014C7.06999 9.35014 6.11999 8.40014 6.11999 7.24014C6.11999 6.07014 7.06999 5.12014 8.23999 5.12014C9.39999 5.12014 10.35 6.07014 10.35 7.24014C10.35 8.40014 9.39999 9.35014 8.23999 9.35014Z" fill="currentColor"/>
<path d="M20.5006 13.4696L19.0006 17.9796C17.7506 21.7396 15.7506 22.7396 11.9906 21.4896L7.48063 19.9896C6.07063 19.5196 5.05063 18.9396 4.39062 18.2096C5.02062 18.4596 5.75063 18.6496 6.58063 18.7796L11.2806 19.5196C11.9206 19.6196 12.5206 19.6696 13.0806 19.6696C16.3806 19.6696 18.1506 17.8896 18.7606 14.0596L19.4906 9.36957C19.5906 8.78957 19.6306 8.27957 19.6306 7.80957C21.1506 9.05957 21.3706 10.8396 20.5006 13.4696Z" fill="currentColor"/>
</svg>
