<svg width="24" height="24" viewBox="0 0 24 24" fill="none" xmlns="http://www.w3.org/2000/svg">
<path d="M14.3498 2H9.64977C8.60977 2 7.75977 2.84 7.75977 3.88V4.82C7.75977 5.86 8.59977 6.7 9.63977 6.7H14.3498C15.3898 6.7 16.2298 5.86 16.2298 4.82V3.88C16.2398 2.84 15.3898 2 14.3498 2Z" fill="currentColor"/>
<path d="M17.2391 4.82047C17.2391 6.41047 15.9391 7.71047 14.3491 7.71047H9.64906C8.05906 7.71047 6.75906 6.41047 6.75906 4.82047C6.75906 4.26047 6.15906 3.91047 5.65906 4.17047C4.24906 4.92047 3.28906 6.41047 3.28906 8.12047V17.5305C3.28906 19.9905 5.29906 22.0005 7.75906 22.0005H16.2391C18.6991 22.0005 20.7091 19.9905 20.7091 17.5305V8.12047C20.7091 6.41047 19.7491 4.92047 18.3391 4.17047C17.8391 3.91047 17.2391 4.26047 17.2391 4.82047ZM15.5291 17.5305C15.3791 17.6805 15.1891 17.7505 14.9991 17.7505C14.8091 17.7505 14.6191 17.6805 14.4691 17.5305L9.74906 12.8105V14.0005C9.74906 14.4105 9.40906 14.7505 8.99906 14.7505C8.58906 14.7505 8.24906 14.4105 8.24906 14.0005V11.0005C8.24906 10.5905 8.58906 10.2505 8.99906 10.2505H11.9991C12.4091 10.2505 12.7491 10.5905 12.7491 11.0005C12.7491 11.4105 12.4091 11.7505 11.9991 11.7505H10.8091L15.5291 16.4705C15.8191 16.7605 15.8191 17.2405 15.5291 17.5305Z" fill="currentColor"/>
</svg>
