<svg width="24" height="24" viewBox="0 0 24 24" fill="none" xmlns="http://www.w3.org/2000/svg">
<path d="M14.3498 2H9.64977C8.60977 2 7.75977 2.84 7.75977 3.88V4.82C7.75977 5.86 8.59977 6.7 9.63977 6.7H14.3498C15.3898 6.7 16.2298 5.86 16.2298 4.82V3.88C16.2398 2.84 15.3898 2 14.3498 2Z" fill="currentColor"/>
<path d="M17.2391 4.82047C17.2391 6.41047 15.9391 7.71047 14.3491 7.71047H9.64906C8.05906 7.71047 6.75906 6.41047 6.75906 4.82047C6.75906 4.26047 6.15906 3.91047 5.65906 4.17047C4.24906 4.92047 3.28906 6.41047 3.28906 8.12047V17.5305C3.28906 19.9905 5.29906 22.0005 7.75906 22.0005H16.2391C18.6991 22.0005 20.7091 19.9905 20.7091 17.5305V8.12047C20.7091 6.41047 19.7491 4.92047 18.3391 4.17047C17.8391 3.91047 17.2391 4.26047 17.2391 4.82047ZM14.5291 16.6905C14.3791 16.8405 14.1891 16.9105 13.9991 16.9105C13.8091 16.9105 13.6191 16.8405 13.4691 16.6905L12.0191 15.2405L10.5291 16.7305C10.3791 16.8805 10.1891 16.9505 9.99906 16.9505C9.80906 16.9505 9.61906 16.8805 9.46906 16.7305C9.17906 16.4405 9.17906 15.9605 9.46906 15.6705L10.9591 14.1805L9.50906 12.7305C9.21906 12.4405 9.21906 11.9605 9.50906 11.6705C9.79906 11.3805 10.2791 11.3805 10.5691 11.6705L12.0191 13.1205L13.4191 11.7205C13.7091 11.4305 14.1891 11.4305 14.4791 11.7205C14.7691 12.0105 14.7691 12.4905 14.4791 12.7805L13.0791 14.1805L14.5291 15.6305C14.8191 15.9205 14.8191 16.3905 14.5291 16.6905Z" fill="currentColor"/>
</svg>
