<svg width="24" height="24" viewBox="0 0 24 24" fill="none" xmlns="http://www.w3.org/2000/svg">
<path d="M12 11.5303C9.24 11.5303 7 13.7703 7 16.5303C7 17.2703 7.16 17.9703 7.46 18.5903C7.54 18.7703 7.63 18.9403 7.73 19.1003C8.59 20.5503 10.18 21.5303 12 21.5303C13.82 21.5303 15.41 20.5503 16.27 19.1003C16.37 18.9403 16.46 18.7703 16.54 18.5903C16.84 17.9703 17 17.2703 17 16.5303C17 13.7703 14.76 11.5303 12 11.5303ZM13.5 18.1403C13.35 18.2903 13.16 18.3603 12.97 18.3603C12.78 18.3603 12.59 18.2903 12.44 18.1403L11.91 17.6103L11.36 18.1603C11.21 18.3103 11.02 18.3803 10.83 18.3803C10.64 18.3803 10.45 18.3103 10.3 18.1603C10.01 17.8703 10.01 17.3903 10.3 17.1003L10.85 16.5503L10.32 16.0203C10.03 15.7303 10.03 15.2503 10.32 14.9603C10.61 14.6703 11.09 14.6703 11.38 14.9603L11.91 15.4903L12.41 14.9903C12.7 14.7003 13.18 14.7003 13.47 14.9903C13.76 15.2803 13.76 15.7603 13.47 16.0503L12.97 16.5503L13.5 17.0803C13.79 17.3803 13.79 17.8503 13.5 18.1403Z" fill="currentColor"/>
<path d="M20.1993 17.29C19.8393 17.61 19.4493 17.88 19.0293 18.1C18.6693 18.28 18.3093 17.93 18.3693 17.53C18.4093 17.24 18.4293 16.94 18.4293 16.63C18.4293 13.05 15.5093 10.13 11.9293 10.13C8.34934 10.13 5.42934 13.05 5.42934 16.63C5.42934 17.09 5.47934 17.53 5.56934 17.96C5.63934 18.31 5.36934 18.66 5.01934 18.57C1.06934 17.61 1.04934 11.53 5.46934 11.21H5.51934C2.30934 2.28996 15.8493 -1.28004 17.3993 8.09996C21.7293 8.64996 23.4793 14.42 20.1993 17.29Z" fill="currentColor"/>
</svg>
