<svg width="24" height="24" viewBox="0 0 24 24" fill="none" xmlns="http://www.w3.org/2000/svg">
<path d="M20.6098 10.8305C19.8398 9.91045 18.8498 9.31045 17.6998 9.05045C17.4398 7.89045 16.9898 6.89045 16.3298 6.06045C16.3098 6.03045 16.2898 6.00045 16.2698 5.98045C14.0698 3.32045 10.4698 3.33045 8.03977 4.71045C5.95977 5.90045 4.18977 8.41045 5.11977 11.9904C2.98977 12.5105 2.00977 14.3704 2.00977 16.0504C2.00977 17.9304 3.23977 20.0404 5.97977 20.2404H16.3198C16.3298 20.2404 16.3498 20.2404 16.3598 20.2404C17.7798 20.2404 19.1398 19.7105 20.1898 18.7505C22.6998 16.5304 22.3698 12.9104 20.6098 10.8305Z" fill="currentColor"/>
<path d="M21.7592 8.73977C21.7592 9.07977 21.7192 9.40976 21.6192 9.72976C20.8892 8.87977 19.9592 8.24977 18.9292 7.85977C18.6092 6.85977 18.1492 5.96977 17.5492 5.18977C17.5192 5.14977 17.4892 5.10977 17.4492 5.05977C17.6392 5.01977 17.8392 5.00977 18.0292 5.00977C20.0892 5.00977 21.7592 6.67977 21.7592 8.73977Z" fill="currentColor"/>
</svg>
