<svg width="24" height="24" viewBox="0 0 24 24" fill="none" xmlns="http://www.w3.org/2000/svg">
<path d="M20.9509 4.12988L4.13086 20.9499C5.08086 21.6399 6.32086 21.9999 7.81086 21.9999H16.1909C19.8309 21.9999 22.0009 19.8299 22.0009 16.1899V7.80988C22.0009 6.31988 21.6409 5.07988 20.9509 4.12988ZM18.5009 16.2499H16.8109V17.9999C16.8109 18.4099 16.4709 18.7499 16.0609 18.7499C15.6509 18.7499 15.3109 18.4099 15.3109 17.9999V16.2499H13.5009C13.0909 16.2499 12.7509 15.9099 12.7509 15.4999C12.7509 15.0899 13.0909 14.7499 13.5009 14.7499H15.3109V12.9999C15.3109 12.5899 15.6509 12.2499 16.0609 12.2499C16.4709 12.2499 16.8109 12.5899 16.8109 12.9999V14.7499H18.5009C18.9109 14.7499 19.2509 15.0899 19.2509 15.4999C19.2509 15.9099 18.9109 16.2499 18.5009 16.2499Z" fill="currentColor"/>
<path d="M16.19 2H7.81C4.17 2 2 4.17 2 7.81V16.19C2 17.68 2.36 18.92 3.05 19.87L19.87 3.05C18.92 2.36 17.68 2 16.19 2ZM10.5 8.25H5.5C5.09 8.25 4.75 7.91 4.75 7.5C4.75 7.09 5.09 6.75 5.5 6.75H10.5C10.91 6.75 11.25 7.09 11.25 7.5C11.25 7.91 10.91 8.25 10.5 8.25Z" fill="currentColor"/>
</svg>
