<svg width="24" height="24" viewBox="0 0 24 24" fill="none" xmlns="http://www.w3.org/2000/svg">
<path d="M15.0002 22.75C14.7302 22.75 14.4802 22.6 14.3502 22.37C14.2202 22.14 14.2202 21.85 14.3602 21.62L15.4102 19.87C15.6202 19.51 16.0802 19.4 16.4402 19.61C16.8002 19.82 16.9102 20.28 16.7002 20.64L16.4302 21.09C19.1902 20.44 21.2602 17.96 21.2602 15C21.2602 14.59 21.6002 14.25 22.0102 14.25C22.4202 14.25 22.7602 14.59 22.7602 15C22.7502 19.27 19.2702 22.75 15.0002 22.75Z" fill="currentColor"/>
<path d="M2 9.75C1.59 9.75 1.25 9.41 1.25 9C1.25 4.73 4.73 1.25 9 1.25C9.27 1.25 9.52 1.4 9.65 1.63C9.78 1.86 9.78 2.15 9.64 2.38L8.59 4.14C8.38 4.49 7.92 4.61 7.56 4.39C7.21 4.18 7.09 3.72 7.31 3.36L7.58 2.91C4.81 3.56 2.75 6.04 2.75 9C2.75 9.41 2.41 9.75 2 9.75Z" fill="currentColor"/>
<path d="M10.6709 13.8504L7.53094 12.1604C7.20094 11.9804 6.80094 11.9804 6.47094 12.1604L3.33094 13.8504C3.10094 13.9704 2.96094 14.2204 2.96094 14.4904C2.96094 14.7604 3.10094 15.0104 3.33094 15.1304L6.47094 16.8204C6.64094 16.9104 6.82094 16.9504 7.00094 16.9504C7.18094 16.9504 7.36094 16.9104 7.53094 16.8204L10.6709 15.1304C10.9009 15.0104 11.0409 14.7604 11.0409 14.4904C11.0409 14.2204 10.8909 13.9804 10.6709 13.8504Z" fill="currentColor"/>
<path d="M5.95 17.4096L3.03 15.9496C2.81 15.8396 2.55 15.8496 2.33 15.9796C2.13 16.1096 2 16.3396 2 16.5896V19.3496C2 19.8296 2.26 20.2596 2.69 20.4696L5.61 21.9296C5.71 21.9696 5.82 21.9996 5.93 21.9996C6.06 21.9996 6.19 21.9596 6.31 21.8896C6.52 21.7596 6.65 21.5296 6.65 21.2796V18.5196C6.65 18.0496 6.38 17.6196 5.95 17.4096Z" fill="currentColor"/>
<path d="M11.6596 15.9796C11.4496 15.8496 11.1896 15.8396 10.9596 15.9496L8.03961 17.4096C7.60961 17.6196 7.34961 18.0496 7.34961 18.5296V21.2896C7.34961 21.5396 7.47961 21.7696 7.68961 21.8996C7.80961 21.9596 7.93961 21.9996 8.06961 21.9996C8.17961 21.9996 8.28961 21.9696 8.38961 21.9196L11.3096 20.4596C11.7396 20.2496 11.9996 19.8196 11.9996 19.3396V16.5796C11.9996 16.3396 11.8696 16.1096 11.6596 15.9796Z" fill="currentColor"/>
<path d="M20.6709 3.82988L17.5309 2.13988C17.2009 1.95988 16.8009 1.95988 16.4709 2.13988L13.3309 3.82988C13.1009 3.94988 12.9609 4.19988 12.9609 4.46988C12.9609 4.73988 13.1009 4.98988 13.3309 5.10988L16.4709 6.79988C16.6409 6.88988 16.8209 6.92988 17.0009 6.92988C17.1809 6.92988 17.3609 6.88988 17.5309 6.79988L20.6709 5.10988C20.9009 4.98988 21.0409 4.73988 21.0409 4.46988C21.0409 4.18988 20.8909 3.94988 20.6709 3.82988Z" fill="currentColor"/>
<path d="M15.95 7.38035L13.03 5.92035C12.81 5.81035 12.55 5.82035 12.33 5.95035C12.13 6.08035 12 6.31035 12 6.56035V9.32035C12 9.80035 12.26 10.2304 12.69 10.4404L15.61 11.9004C15.71 11.9504 15.82 11.9804 15.93 11.9804C16.06 11.9804 16.19 11.9404 16.31 11.8704C16.52 11.7404 16.65 11.5104 16.65 11.2604V8.50035C16.65 8.02035 16.38 7.59035 15.95 7.38035Z" fill="currentColor"/>
<path d="M21.6596 5.95035C21.4496 5.82035 21.1896 5.81035 20.9596 5.92035L18.0396 7.38035C17.6096 7.59035 17.3496 8.02035 17.3496 8.50035V11.2604C17.3496 11.5104 17.4796 11.7404 17.6896 11.8704C17.8096 11.9404 17.9396 11.9804 18.0696 11.9804C18.1796 11.9804 18.2896 11.9504 18.3896 11.9004L21.3096 10.4404C21.7396 10.2204 21.9996 9.79035 21.9996 9.32035V6.56035C21.9996 6.31035 21.8696 6.08035 21.6596 5.95035Z" fill="currentColor"/>
</svg>
