<svg width="24" height="24" viewBox="0 0 24 24" fill="none" xmlns="http://www.w3.org/2000/svg">
<path d="M12.0293 2.03027C10.0793 2.03027 8.2593 2.59027 6.7293 3.55027L13.5893 10.4203L13.5993 7.68027C13.5993 7.27027 13.9393 6.93027 14.3493 6.93027C14.7693 6.93027 15.0993 7.27027 15.0993 7.68027L15.0893 12.2303C15.0893 12.5403 14.8993 12.8103 14.6193 12.9203C14.5293 12.9603 14.4293 12.9803 14.3393 12.9803C14.1393 12.9803 13.9493 12.9003 13.8093 12.7603L5.6193 4.56027C5.5793 4.52027 5.5493 4.48027 5.5193 4.44027C3.3793 6.28027 2.0293 9.00027 2.0293 12.0303C2.0293 17.5503 6.5093 22.0303 12.0293 22.0303C13.9793 22.0303 15.7993 21.4703 17.3293 20.5103L10.4693 13.6403L10.4593 16.3803C10.4593 16.7903 10.1193 17.1303 9.7093 17.1303C9.2893 17.1303 8.9593 16.7903 8.9593 16.3803L8.9693 11.8303C8.9693 11.5203 9.1593 11.2503 9.4393 11.1403C9.7093 11.0203 10.0393 11.0803 10.2493 11.3003L18.4393 19.5003C18.4793 19.5403 18.5093 19.5803 18.5393 19.6203C20.6793 17.7803 22.0293 15.0603 22.0293 12.0303C22.0293 6.51027 17.5493 2.03027 12.0293 2.03027Z" fill="currentColor"/>
</svg>
