<svg width="24" height="24" viewBox="0 0 24 24" fill="none" xmlns="http://www.w3.org/2000/svg">
<path d="M4.09 8.08C4.04 8.38 4 8.68 4 9C4 8.69 4.04 8.38 4.09 8.08ZM4 15C4 15.32 4.04 15.62 4.09 15.92C4.04 15.62 4 15.31 4 15ZM8.09 19.91C8.38 19.96 8.69 20 9 20C8.69 20 8.39 19.96 8.09 19.91ZM8.09 4.09C8.39 4.04 8.69 4 9 4C8.69 4 8.38 4.04 8.09 4.09ZM15.92 4.09C15.62 4.04 15.32 4 15 4C15.31 4 15.62 4.04 15.92 4.09ZM19.91 8.08C19.96 8.38 20 8.69 20 9C20 8.68 19.96 8.38 19.91 8.08Z" fill="currentColor"/>
<path d="M22 8.3C22 8.72 21.67 9.05 21.25 9.05H20V10.8871C20 11.2207 19.638 11.4284 19.35 11.26C18.92 11.01 18.42 10.93 17.94 11.06C17.6321 11.1339 17.26 10.9349 17.26 10.6183V9.74C17.26 8.09 15.91 6.74 14.26 6.74H9.74C8.09 6.74 6.74 8.09 6.74 9.74V14.26C6.74 15.91 8.09 17.26 9.74 17.26H10.19C10.306 17.26 10.4 17.354 10.4 17.47C10.4 18.4335 11.0982 19.2436 12.0175 19.4298C12.1904 19.4648 12.3073 19.6716 12.25 19.8383C12.2172 19.9337 12.1302 20 12.0293 20H9.06V21.25C9.06 21.66 8.72 22 8.31 22C7.89 22 7.56 21.66 7.56 21.25V19.78C5.96 19.29 4.71 18.04 4.23 16.45H2.75C2.34 16.45 2 16.11 2 15.7C2 15.28 2.34 14.95 2.75 14.95H4V12.75H2.75C2.34 12.75 2 12.41 2 12C2 11.58 2.34 11.25 2.75 11.25H4V9.05H2.75C2.34 9.05 2 8.72 2 8.3C2 7.89 2.34 7.55 2.75 7.55H4.23C4.71 5.96 5.96 4.71 7.56 4.22V2.75C7.56 2.34 7.89 2 8.31 2C8.72 2 9.06 2.34 9.06 2.75V4H11.25V2.75C11.25 2.34 11.59 2 12 2C12.41 2 12.75 2.34 12.75 2.75V4H14.95V2.75C14.95 2.34 15.29 2 15.7 2C16.11 2 16.45 2.34 16.45 2.75V4.23C18.04 4.71 19.29 5.96 19.77 7.55H21.25C21.67 7.55 22 7.89 22 8.3Z" fill="currentColor"/>
<path d="M20.9904 15.5295C20.3104 15.5295 19.9204 15.1895 19.9204 14.6895C19.9204 14.4895 19.9804 14.2595 20.1204 14.0195C20.4004 13.5395 20.2304 12.9195 19.7504 12.6495L18.8404 12.1195C18.4204 11.8695 17.8804 12.0195 17.6304 12.4395L17.5704 12.5395C17.0904 13.3695 16.3104 13.3695 15.8304 12.5395L15.7704 12.4395C15.5304 12.0195 14.9804 11.8695 14.5704 12.1195L13.6504 12.6495C13.3304 12.8295 13.1404 13.1695 13.1404 13.5195C13.1404 13.6895 13.1904 13.8595 13.2804 14.0195C13.4204 14.2595 13.4904 14.4895 13.4904 14.6895C13.4904 15.1895 13.0904 15.5295 12.4104 15.5295C11.8604 15.5295 11.4004 15.9795 11.4004 16.5295V17.4695C11.4004 18.0195 11.8604 18.4695 12.4104 18.4695C13.0904 18.4695 13.4904 18.8095 13.4904 19.3095C13.4904 19.5095 13.4204 19.7395 13.2804 19.9795C13.0004 20.4595 13.1704 21.0795 13.6504 21.3495L14.5704 21.8795C14.9804 22.1295 15.5304 21.9795 15.7704 21.5595L15.8304 21.4595C16.3104 20.6295 17.0904 20.6295 17.5704 21.4595L17.6304 21.5595C17.8804 21.9795 18.4204 22.1295 18.8404 21.8795L19.7504 21.3495C20.0704 21.1695 20.2604 20.8295 20.2604 20.4795C20.2604 20.3095 20.2104 20.1395 20.1204 19.9795C19.9804 19.7395 19.9204 19.5095 19.9204 19.3095C19.9204 18.8095 20.3104 18.4695 20.9904 18.4695C21.5504 18.4695 22.0004 18.0195 22.0004 17.4695V16.5295C22.0004 15.9795 21.5504 15.5295 20.9904 15.5295ZM16.7004 18.7195C15.7504 18.7195 14.9804 17.9495 14.9804 16.9995C14.9804 16.0495 15.7504 15.2795 16.7004 15.2795C17.6504 15.2795 18.4204 16.0495 18.4204 16.9995C18.4204 17.9495 17.6504 18.7195 16.7004 18.7195Z" fill="currentColor"/>
<path d="M16.25 10.02V10.5925C16.25 10.9266 15.8047 11.1384 15.48 11.06C14.98 10.93 14.48 11 14.07 11.25L13.16 11.78C12.53 12.13 12.14 12.8 12.14 13.52C12.14 13.5796 12.1425 13.6396 12.1475 13.6996C12.1803 14.0858 11.9103 14.5545 11.5593 14.7191C11.0767 14.9454 10.6979 15.3577 10.5165 15.8624C10.4389 16.0785 10.2496 16.25 10.02 16.25C8.76 16.25 7.75 15.24 7.75 13.98V10.02C7.75 8.76 8.76 7.75 10.02 7.75H13.98C15.24 7.75 16.25 8.76 16.25 10.02Z" fill="currentColor"/>
</svg>
