<svg width="24" height="24" viewBox="0 0 24 24" fill="none" xmlns="http://www.w3.org/2000/svg">
<path d="M18.6897 11.5298C18.1197 11.3798 17.4497 11.2998 16.6497 11.2998C15.5397 11.2998 15.1297 11.5698 14.5597 11.9998C14.5297 12.0198 14.4997 12.0498 14.4697 12.0798L13.5197 13.0898C12.7197 13.9298 11.2797 13.9398 10.4797 13.0798L9.52969 12.0798C9.49969 12.0498 9.46969 12.0198 9.43969 11.9998C8.86969 11.5698 8.45969 11.2998 7.34969 11.2998C6.54969 11.2998 5.87969 11.3798 5.30969 11.5298C2.92969 12.1698 2.92969 14.0598 2.92969 15.7198V16.6498C2.92969 19.1598 2.92969 21.9998 8.27969 21.9998H15.7197C19.2697 21.9998 21.0697 20.1998 21.0697 16.6498V15.7198C21.0697 14.0598 21.0697 12.1698 18.6897 11.5298ZM14.3297 18.3998H9.66969C9.28969 18.3998 8.97969 18.0898 8.97969 17.6998C8.97969 17.3098 9.28969 16.9998 9.66969 16.9998H14.3297C14.7097 16.9998 15.0197 17.3098 15.0197 17.6998C15.0197 18.0898 14.7097 18.3998 14.3297 18.3998Z" fill="currentColor"/>
<path d="M19.2091 6.42V10.12C19.1691 10.1 19.1191 10.09 19.0791 10.08C18.3791 9.89 17.5891 9.8 16.6491 9.8C15.1091 9.8 14.3891 10.25 13.6491 10.81C13.5491 10.88 13.4591 10.97 13.3791 11.05L12.4191 12.06C12.3291 12.16 12.1691 12.22 11.9991 12.22C11.8291 12.22 11.6691 12.16 11.5691 12.05L10.6291 11.06C10.5391 10.96 10.4391 10.87 10.3391 10.8C9.61906 10.25 8.88906 9.8 7.34906 9.8C6.40906 9.8 5.61906 9.89 4.91906 10.08C4.87906 10.09 4.82906 10.1 4.78906 10.12V6.42C4.78906 4.35 4.78906 2 9.20906 2H14.7891C19.2091 2 19.2091 4.35 19.2091 6.42Z" fill="currentColor"/>
</svg>
