<svg width="24" height="24" viewBox="0 0 24 24" fill="none" xmlns="http://www.w3.org/2000/svg">
<path d="M20.9808 3.01986C20.1108 2.14986 18.8808 1.80986 17.6908 2.10986L7.89084 4.55986C6.24084 4.96986 4.97084 6.24986 4.56084 7.88986L2.11084 17.6999C1.81084 18.8899 2.15084 20.1199 3.02084 20.9899C3.68084 21.6399 4.55084 21.9999 5.45084 21.9999C5.73084 21.9999 6.02084 21.9699 6.30084 21.8899L16.1108 19.4399C17.7508 19.0299 19.0308 17.7599 19.4408 16.1099L21.8908 6.29986C22.1908 5.10986 21.8508 3.87986 20.9808 3.01986ZM12.0008 15.8799C9.86084 15.8799 8.12084 14.1399 8.12084 11.9999C8.12084 9.85986 9.86084 8.11986 12.0008 8.11986C14.1408 8.11986 15.8808 9.85986 15.8808 11.9999C15.8808 14.1399 14.1408 15.8799 12.0008 15.8799Z" fill="currentColor"/>
</svg>
