<svg width="24" height="24" viewBox="0 0 24 24" fill="none" xmlns="http://www.w3.org/2000/svg">
<path d="M20.7091 8.12047V17.5305C20.7091 19.9905 18.6991 22.0005 16.2391 22.0005H7.75906C5.29906 22.0005 3.28906 19.9905 3.28906 17.5305V8.12047C3.28906 6.41047 4.24906 4.92047 5.65906 4.17047C6.14906 3.91047 6.75906 4.26047 6.75906 4.82047C6.75906 6.41047 8.05906 7.71047 9.64906 7.71047H14.3491C15.9391 7.71047 17.2391 6.41047 17.2391 4.82047C17.2391 4.26047 17.8391 3.91047 18.3391 4.17047C19.7491 4.92047 20.7091 6.41047 20.7091 8.12047Z" fill="currentColor"/>
<path d="M14.3498 2H9.64977C8.60977 2 7.75977 2.84 7.75977 3.88V4.82C7.75977 5.86 8.59977 6.7 9.63977 6.7H14.3498C15.3898 6.7 16.2298 5.86 16.2298 4.82V3.88C16.2398 2.84 15.3898 2 14.3498 2Z" fill="currentColor"/>
</svg>
