<svg width="24" height="24" viewBox="0 0 24 24" fill="none" xmlns="http://www.w3.org/2000/svg">
<path d="M8.25864 21.2453C8.90561 20.5983 9.27728 19.7724 9.37364 18.9189C9.50441 17.7833 9.12586 16.6063 8.25864 15.7391C7.74244 15.2229 7.10923 14.8788 6.44161 14.7205C5.16831 14.397 3.75736 14.7342 2.75248 15.7391C2.05733 16.4343 1.67878 17.3221 1.6306 18.2375C1.59619 18.6298 1.6306 19.0359 1.73385 19.4282C1.89215 20.0959 2.23628 20.7291 2.75248 21.2453C4.27356 22.7663 6.73756 22.7663 8.25864 21.2453ZM6.96469 17.7764C7.36389 17.7764 7.69426 18.1068 7.69426 18.506C7.68738 18.912 7.36389 19.2355 6.95781 19.2424L6.23513 19.2355L6.24201 19.9307C6.23513 20.3368 5.91164 20.6602 5.50556 20.6671C5.09948 20.6602 4.776 20.3367 4.76911 19.9307L4.776 19.2355L4.05331 19.2424C3.64723 19.2355 3.32375 18.912 3.31686 18.506C3.32375 18.3064 3.40634 18.1274 3.53711 17.9966C3.66788 17.8659 3.84683 17.7833 4.04643 17.7764L4.776 17.7764L4.776 17.0193C4.776 16.8128 4.85859 16.6339 4.98936 16.5031C5.12013 16.3723 5.29908 16.2897 5.50556 16.2897C5.90476 16.2897 6.23513 16.6201 6.23513 17.0193L6.23513 17.7764L6.96469 17.7764Z" fill="currentColor"/>
<path d="M15.0952 3.84548V7.54425H13.6352V3.84548C13.6352 3.58267 13.4016 3.45613 13.2458 3.45613C13.1972 3.45613 13.1485 3.46587 13.0998 3.48533L5.38108 6.39568C4.8652 6.59035 4.53426 7.07703 4.53426 7.63185V8.284C3.6485 8.94589 3.07422 10.0068 3.07422 11.2041V7.63185C3.07422 6.47355 3.78477 5.44179 4.8652 5.03298L12.5937 2.1129C12.8078 2.03503 13.0317 1.99609 13.2458 1.99609C14.2192 1.99609 15.0952 2.78452 15.0952 3.84548Z" fill="currentColor"/>
<path d="M21.5691 14.1156V15.0889C21.5691 15.3518 21.3647 15.5659 21.0921 15.5756H19.671C19.1551 15.5756 18.6879 15.196 18.649 14.6899C18.6198 14.3881 18.7366 14.1059 18.9313 13.9112C19.1065 13.7262 19.3498 13.6289 19.6126 13.6289H21.0824C21.3647 13.6386 21.5691 13.8528 21.5691 14.1156Z" fill="currentColor"/>
<path d="M19.6019 12.6054H20.5947C21.1301 12.6054 21.5681 12.1674 21.5681 11.6321V11.2038C21.5681 9.18892 19.9231 7.54395 17.9082 7.54395H6.73405C5.9067 7.54395 5.14748 7.81649 4.53426 8.2837C3.6485 8.94558 3.07422 10.0065 3.07422 11.2038V12.9364C3.07422 13.3062 3.46356 13.5398 3.81397 13.423C4.35905 13.2381 4.93334 13.1408 5.50762 13.1408C8.4569 13.1408 10.8611 15.545 10.8611 18.4942C10.8611 19.1951 10.6762 19.964 10.3842 20.6454C10.2284 20.9958 10.4718 21.4143 10.8514 21.4143H17.9082C19.9231 21.4143 21.5681 19.7693 21.5681 17.7545V17.5696C21.5681 17.0342 21.1301 16.5962 20.5947 16.5962H19.7479C18.8135 16.5962 17.918 16.0219 17.6746 15.1167C17.4799 14.3769 17.7136 13.6566 18.2002 13.1894C18.5604 12.8196 19.0568 12.6054 19.6019 12.6054ZM14.2679 12.4107H9.40106C9.00198 12.4107 8.67104 12.0798 8.67104 11.6807C8.67104 11.2816 9.00198 10.9507 9.40106 10.9507H14.2679C14.6669 10.9507 14.9979 11.2816 14.9979 11.6807C14.9979 12.0798 14.6669 12.4107 14.2679 12.4107Z" fill="currentColor"/>
</svg>
