<svg width="24" height="24" viewBox="0 0 24 24" fill="none" xmlns="http://www.w3.org/2000/svg">
<path d="M21.0302 22H13.9902C13.5702 22 13.2402 21.66 13.2402 21.25C13.2402 20.84 13.5802 20.5 13.9902 20.5H21.0302C21.4502 20.5 21.7802 20.84 21.7802 21.25C21.7802 21.66 21.4502 22 21.0302 22Z" fill="currentColor"/>
<path d="M13.64 16.6904C14.03 17.0804 14.03 17.7104 13.64 18.1104L10.66 21.0904C9.55 22.2004 7.77 22.2604 6.59 21.2704C6.52 21.2104 6.46 21.1504 6.4 21.0904L5.53 20.2204L3.74 18.4304L2.88 17.5704C2.81 17.5004 2.75 17.4304 2.69 17.3604C1.71 16.1804 1.78 14.4204 2.88 13.3204L5.86 10.3404C6.25 9.95035 6.88 9.95035 7.27 10.3404L13.64 16.6904Z" fill="currentColor"/>
<path d="M21.1194 10.6404L16.1194 15.6404C15.7294 16.0304 15.0994 16.0304 14.7094 15.6404L8.33937 9.29043C7.94938 8.90043 7.94938 8.27043 8.33937 7.87043L13.3394 2.88043C14.5094 1.71043 16.4294 1.71043 17.5994 2.88043L21.1194 6.39043C22.2894 7.56043 22.2894 9.47043 21.1194 10.6404Z" fill="currentColor"/>
</svg>
