<svg width="24" height="24" viewBox="0 0 24 24" fill="none" xmlns="http://www.w3.org/2000/svg">
<path d="M20.6009 4.09961V6.29961C20.6009 7.09961 20.1009 8.09961 19.6009 8.59961L15.3009 12.3996C14.7009 12.8996 14.3009 13.8996 14.3009 14.6996V18.9996C14.3009 19.5996 13.9009 20.3996 13.4009 20.6996L12.0009 21.5996C10.7009 22.3996 8.90086 21.4996 8.90086 19.8996V14.5996C8.90086 13.8996 8.50086 12.9996 8.10086 12.4996L7.63086 12.0096C7.32086 11.6796 7.26086 11.1796 7.51086 10.7896L12.6309 2.56961C12.8109 2.27961 13.1309 2.09961 13.4809 2.09961H18.6009C19.7009 2.09961 20.6009 2.99961 20.6009 4.09961Z" fill="currentColor"/>
<path d="M10.3504 3.62961L6.80039 9.31961C6.46039 9.86961 5.68039 9.94961 5.23039 9.47961L4.30039 8.49961C3.80039 7.99961 3.40039 7.09961 3.40039 6.49961V4.19961C3.40039 2.99961 4.30039 2.09961 5.40039 2.09961H9.50039C10.2804 2.09961 10.7604 2.95961 10.3504 3.62961Z" fill="currentColor"/>
</svg>
