<svg width="24" height="24" viewBox="0 0 24 24" fill="none" xmlns="http://www.w3.org/2000/svg">
<path d="M19.6896 7.35044C19.4396 7.02044 18.9696 6.95044 18.6396 7.20044C18.3096 7.45044 18.2396 7.92044 18.4896 8.25044C19.5696 9.69044 20.1396 11.3704 20.1396 13.1104C20.1396 17.6004 16.4896 21.2504 11.9996 21.2504C7.50961 21.2504 3.85961 17.6004 3.85961 13.1104C3.85961 8.62044 7.50961 4.98044 11.9996 4.98044C12.5796 4.98044 13.1696 5.05044 13.8096 5.20044C13.8396 5.21044 13.8696 5.20044 13.9096 5.20044C13.9296 5.20044 13.9596 5.22044 13.9796 5.22044C14.0096 5.22044 14.0296 5.21044 14.0596 5.21044C14.0996 5.21044 14.1296 5.20044 14.1596 5.19044C14.2096 5.18044 14.2596 5.16044 14.3096 5.13044C14.3396 5.11044 14.3796 5.10044 14.4096 5.08044C14.4196 5.07044 14.4396 5.07044 14.4496 5.06044C14.4796 5.04044 14.4896 5.01044 14.5096 4.99044C14.5496 4.95044 14.5796 4.92044 14.6096 4.87044C14.6396 4.83044 14.6496 4.78044 14.6696 4.74044C14.6796 4.71044 14.6996 4.68044 14.7096 4.65044C14.7096 4.63044 14.7096 4.62044 14.7096 4.60044C14.7196 4.55044 14.7196 4.50044 14.7096 4.45044C14.7096 4.40044 14.7096 4.36044 14.6996 4.31044C14.6896 4.27044 14.6696 4.23044 14.6496 4.18044C14.6296 4.13044 14.6096 4.08044 14.5796 4.04044C14.5696 4.02044 14.5696 4.01044 14.5596 4.00044L12.5796 1.53044C12.3196 1.21044 11.8496 1.16044 11.5296 1.41044C11.2096 1.67044 11.1596 2.14044 11.4096 2.46044L12.2296 3.48044C12.1496 3.48044 12.0696 3.47044 11.9896 3.47044C6.67961 3.47044 2.34961 7.79044 2.34961 13.1104C2.34961 18.4304 6.66961 22.7504 11.9896 22.7504C17.3096 22.7504 21.6296 18.4304 21.6296 13.1104C21.6396 11.0404 20.9596 9.05044 19.6896 7.35044Z" fill="currentColor"/>
<path d="M9.53955 16.6698C9.12955 16.6698 8.78955 16.3298 8.78955 15.9198V12.5298L8.59955 12.7498C8.31955 13.0598 7.84955 13.0798 7.53955 12.8098C7.22955 12.5298 7.20955 12.0598 7.47955 11.7498L8.97955 10.0798C9.18955 9.84984 9.51955 9.76984 9.80955 9.87984C10.0996 9.98984 10.2896 10.2698 10.2896 10.5798V15.9298C10.2896 16.3398 9.95955 16.6698 9.53955 16.6698Z" fill="currentColor"/>
<path d="M14 16.6703C12.48 16.6703 11.25 15.4403 11.25 13.9203V12.5703C11.25 11.0503 12.48 9.82031 14 9.82031C15.52 9.82031 16.75 11.0503 16.75 12.5703V13.9203C16.75 15.4403 15.52 16.6703 14 16.6703ZM14 11.3303C13.31 11.3303 12.75 11.8903 12.75 12.5803V13.9303C12.75 14.6203 13.31 15.1803 14 15.1803C14.69 15.1803 15.25 14.6203 15.25 13.9303V12.5803C15.25 11.8903 14.69 11.3303 14 11.3303Z" fill="currentColor"/>
</svg>
