<svg width="24" height="24" viewBox="0 0 24 24" fill="none" xmlns="http://www.w3.org/2000/svg">
<path d="M14.4294 16.9203H12.1394C11.7294 16.9203 11.3894 16.5803 11.3894 16.1703C11.3894 15.7603 11.7294 15.4203 12.1394 15.4203H14.4294C14.8594 15.4203 15.2094 15.0703 15.2094 14.6403C15.2094 14.2103 14.8594 13.8603 14.4294 13.8603H12.1394C11.8994 13.8603 11.6694 13.7403 11.5294 13.5503C11.3894 13.3603 11.3494 13.1003 11.4294 12.8703L12.1894 10.5803C12.2894 10.2703 12.5794 10.0703 12.8994 10.0703H15.9594C16.3694 10.0703 16.7094 10.4103 16.7094 10.8203C16.7094 11.2303 16.3694 11.5703 15.9594 11.5703H13.4394L13.1794 12.3603H14.4294C15.6894 12.3603 16.7094 13.3803 16.7094 14.6403C16.7094 15.9003 15.6794 16.9203 14.4294 16.9203Z" fill="currentColor"/>
<path d="M9.54041 16.9198C9.13041 16.9198 8.79041 16.5798 8.79041 16.1698V12.7798L8.60041 12.9998C8.32041 13.3098 7.85041 13.3298 7.54041 13.0598C7.24041 12.7798 7.21041 12.3098 7.49041 11.9998L8.99041 10.3298C9.20041 10.0998 9.53041 10.0198 9.82041 10.1298C10.1104 10.2398 10.3004 10.5198 10.3004 10.8298V16.1798C10.2904 16.5898 9.96041 16.9198 9.54041 16.9198Z" fill="currentColor"/>
<path d="M19.6896 7.34978C19.4396 7.01978 18.9696 6.94978 18.6396 7.19978C18.3096 7.44978 18.2396 7.91978 18.4896 8.24978C19.5696 9.68978 20.1396 11.3698 20.1396 13.1098C20.1396 17.5998 16.4896 21.2498 11.9996 21.2498C7.50961 21.2498 3.85961 17.5998 3.85961 13.1098C3.85961 8.61978 7.50961 4.97978 11.9996 4.97978C12.5796 4.97978 13.1696 5.04978 13.8096 5.19978C13.8396 5.20978 13.8696 5.19978 13.8996 5.19978C13.9296 5.19978 13.9496 5.21978 13.9696 5.21978C13.9996 5.21978 14.0196 5.20978 14.0496 5.20978C14.0796 5.20978 14.1096 5.19978 14.1496 5.18978C14.2096 5.17978 14.2596 5.14978 14.3096 5.12978C14.3396 5.10978 14.3696 5.09978 14.3996 5.07978C14.4096 5.06978 14.4296 5.06978 14.4396 5.05978C14.4696 5.03978 14.4796 5.00978 14.4996 4.98978C14.5396 4.94978 14.5696 4.91978 14.5996 4.86978C14.6296 4.82978 14.6396 4.77978 14.6596 4.72978C14.6696 4.69978 14.6896 4.66978 14.6996 4.63978C14.6996 4.61978 14.6996 4.60978 14.6996 4.58978C14.7096 4.53978 14.7096 4.48978 14.6996 4.43978C14.6996 4.38978 14.6996 4.34978 14.6896 4.29978C14.6796 4.25978 14.6596 4.21978 14.6396 4.16978C14.6196 4.11978 14.5996 4.06978 14.5696 4.02978C14.5696 4.01978 14.5696 4.00978 14.5596 3.99978L12.5796 1.52978C12.3196 1.20978 11.8496 1.14978 11.5296 1.40978C11.2096 1.66978 11.1596 2.13978 11.4096 2.45978L12.2296 3.47978C12.1496 3.47978 12.0696 3.46978 11.9896 3.46978C6.67961 3.46978 2.34961 7.78978 2.34961 13.1098C2.34961 18.4298 6.66961 22.7498 11.9896 22.7498C17.3096 22.7498 21.6296 18.4298 21.6296 13.1098C21.6396 11.0398 20.9596 9.04978 19.6896 7.34978Z" fill="currentColor"/>
</svg>
