<svg width="24" height="24" viewBox="0 0 24 24" fill="none" xmlns="http://www.w3.org/2000/svg">
<path d="M19.4791 7.08955C19.2191 6.76955 18.7491 6.71955 18.4291 6.97955C18.1091 7.23955 18.0591 7.70955 18.3191 8.02955C19.4491 9.42955 20.0791 11.0895 20.1391 12.8295C20.2991 17.3095 16.7791 21.0895 12.2891 21.2395C7.79906 21.3995 4.02906 17.8795 3.86906 13.3995C3.70906 8.91954 7.22906 5.13955 11.7191 4.98955C12.2891 4.96955 12.8891 5.01955 13.5391 5.14955C13.5791 5.15955 13.6191 5.14955 13.6591 5.14955C13.7591 5.19955 13.8791 5.22955 13.9891 5.22955C14.1591 5.22955 14.3191 5.17955 14.4591 5.05955C14.7791 4.79955 14.8291 4.32955 14.5791 4.00955L12.5991 1.53955C12.3391 1.21955 11.8691 1.15955 11.5491 1.41955C11.2291 1.67955 11.1791 2.14955 11.4291 2.46955L12.2591 3.49955C12.0691 3.48955 11.8691 3.47955 11.6791 3.48955C6.36906 3.66955 2.19906 8.14955 2.38906 13.4595C2.57906 18.7695 7.04906 22.9395 12.3591 22.7495C17.6691 22.5595 21.8391 18.0895 21.6491 12.7795C21.5591 10.7095 20.8191 8.73955 19.4791 7.08955Z" fill="currentColor"/>
<path d="M12.3806 16.9203H10.0906C9.68062 16.9203 9.34062 16.5803 9.34062 16.1703C9.34062 15.7603 9.68062 15.4203 10.0906 15.4203H12.3806C12.8106 15.4203 13.1606 15.0703 13.1606 14.6403C13.1606 14.2103 12.8106 13.8603 12.3806 13.8603H10.0906C9.85062 13.8603 9.62062 13.7403 9.48062 13.5503C9.34062 13.3603 9.30062 13.1003 9.38062 12.8703L10.1406 10.5803C10.2406 10.2703 10.5306 10.0703 10.8506 10.0703H13.9106C14.3206 10.0703 14.6606 10.4103 14.6606 10.8203C14.6606 11.2303 14.3206 11.5703 13.9106 11.5703H11.3906L11.1306 12.3603H12.3806C13.6406 12.3603 14.6606 13.3803 14.6606 14.6403C14.6606 15.9003 13.6406 16.9203 12.3806 16.9203Z" fill="currentColor"/>
</svg>
