<svg width="24" height="24" viewBox="0 0 24 24" fill="none" xmlns="http://www.w3.org/2000/svg">
<path d="M8.5 12.75C8.09 12.75 7.75 12.41 7.75 12V6C7.75 5.59 8.09 5.25 8.5 5.25C8.91 5.25 9.25 5.59 9.25 6V12C9.25 12.41 8.91 12.75 8.5 12.75Z" fill="currentColor"/>
<path d="M8.5 22.75C8.09 22.75 7.75 22.41 7.75 22V18C7.75 17.59 8.09 17.25 8.5 17.25C8.91 17.25 9.25 17.59 9.25 18V22C9.25 22.41 8.91 22.75 8.5 22.75Z" fill="currentColor"/>
<path d="M15.5 22.75C15.09 22.75 14.75 22.41 14.75 22V6C14.75 5.59 15.09 5.25 15.5 5.25C15.91 5.25 16.25 5.59 16.25 6V22C16.25 22.41 15.91 22.75 15.5 22.75Z" fill="currentColor"/>
<path d="M10.1008 5.3C10.1008 5.79 9.90078 6.24 9.57078 6.57C9.24078 6.9 8.79078 7.1 8.30078 7.1H6.05078C6.33078 6.73 6.50078 6.25 6.50078 5.75V4.85C6.50078 4.35 6.33078 3.87 6.05078 3.5H8.30078C9.29078 3.5 10.1008 4.31 10.1008 5.3Z" fill="currentColor"/>
<path d="M6.5 4.8503V5.7503C6.5 6.2503 6.33 6.7303 6.05 7.1003C5.29 8.1103 3.73 8.45029 2.28 7.1603C2.12 7.0203 2 6.7203 2 6.5103V4.1703C2 3.9703 2.1 3.7003 2.23 3.5603C3.49 2.24029 5.01 2.4303 5.84 3.2603C5.91 3.3303 5.99 3.4103 6.05 3.5003C6.33 3.8703 6.5 4.3503 6.5 4.8503Z" fill="currentColor"/>
<path d="M13.9004 5.3C13.9004 5.79 14.1004 6.24 14.4304 6.57C14.7604 6.9 15.2104 7.1 15.7004 7.1H17.9504C17.6704 6.73 17.5004 6.25 17.5004 5.75V4.85C17.5004 4.35 17.6704 3.87 17.9504 3.5H15.7004C14.7104 3.5 13.9004 4.31 13.9004 5.3Z" fill="currentColor"/>
<path d="M17.5 4.8503V5.7503C17.5 6.2503 17.67 6.7303 17.95 7.1003C18.71 8.1103 20.27 8.45029 21.72 7.1603C21.88 7.0203 22 6.7203 22 6.5103V4.1703C22 3.9803 21.9 3.7003 21.77 3.5603C20.51 2.24029 18.99 2.4303 18.16 3.2603C18.09 3.3303 18.02 3.4103 17.95 3.5003C17.67 3.8703 17.5 4.3503 17.5 4.8503Z" fill="currentColor"/>
<path d="M10 13.5V17.5C10 18.33 9.33 19 8.5 19C7.67 19 7 18.33 7 17.5V13.5C7 12.67 7.67 12 8.5 12C9.33 12 10 12.67 10 13.5Z" fill="currentColor"/>
</svg>
