<svg width="24" height="24" viewBox="0 0 24 24" fill="none" xmlns="http://www.w3.org/2000/svg">
<path d="M22.0009 8.69008C22.0009 9.88008 21.8109 10.9801 21.4809 12.0001C19.9009 17.0001 15.0309 19.9901 12.6209 20.8101C12.2809 20.9301 11.7209 20.9301 11.3809 20.8101C10.7409 20.5901 9.93085 20.2201 9.06085 19.7001C8.50085 19.3701 8.41085 18.5901 8.87085 18.1301L20.1509 6.85008C20.6909 6.31008 21.6409 6.54008 21.8309 7.28008C21.9409 7.73008 22.0009 8.20008 22.0009 8.69008Z" fill="currentColor"/>
<path d="M22.5295 1.47043C22.2395 1.18043 21.7595 1.18043 21.4695 1.47043L19.1295 3.81043C18.3395 3.36043 17.4195 3.10043 16.4395 3.10043C14.6295 3.10043 13.0095 3.98043 11.9995 5.33043C10.9895 3.98043 9.36945 3.10043 7.55945 3.10043C4.48945 3.10043 1.99945 5.60043 1.99945 8.69043C1.99945 9.88043 2.18945 10.9804 2.51945 12.0004C3.16945 14.0704 4.38945 15.8004 5.76945 17.1704L1.46945 21.4704C1.17945 21.7604 1.17945 22.2404 1.46945 22.5304C1.61945 22.6804 1.80945 22.7504 1.99945 22.7504C2.18945 22.7504 2.37945 22.6804 2.52945 22.5304L22.5295 2.53043C22.8195 2.24043 22.8195 1.76043 22.5295 1.47043Z" fill="currentColor"/>
</svg>
