<svg width="24" height="24" viewBox="0 0 24 24" fill="none" xmlns="http://www.w3.org/2000/svg">
<path d="M17.2004 12.4004C14.5504 12.4004 12.4004 14.5504 12.4004 17.2004C12.4004 18.1004 12.6504 18.9504 13.1004 19.6704C13.9304 21.0604 15.4504 22.0004 17.2004 22.0004C18.9504 22.0004 20.4804 21.0604 21.3004 19.6704C21.7404 18.9504 22.0004 18.1004 22.0004 17.2004C22.0004 14.5504 19.8504 12.4004 17.2004 12.4004ZM19.5804 16.5704L17.0204 18.9304C16.8804 19.0604 16.6904 19.1304 16.5104 19.1304C16.3204 19.1304 16.1304 19.0604 15.9804 18.9104L14.8004 17.7304C14.5104 17.4404 14.5104 16.9604 14.8004 16.6704C15.0904 16.3804 15.5704 16.3804 15.8604 16.6704L16.5304 17.3404L18.5604 15.4604C18.8604 15.1804 19.3404 15.2004 19.6204 15.5004C19.9004 15.8104 19.8804 16.2904 19.5804 16.5704Z" fill="currentColor"/>
<path d="M22 8.72965C22 9.91965 21.81 11.0196 21.48 12.0396C21.42 12.2496 21.17 12.3096 20.99 12.1796C19.9 11.3696 18.57 10.9396 17.2 10.9396C13.73 10.9396 10.9 13.7696 10.9 17.2396C10.9 18.3196 11.18 19.3796 11.71 20.3196C11.87 20.5996 11.68 20.9597 11.38 20.8496C8.97 20.0296 4.1 17.0396 2.52 12.0396C2.19 11.0196 2 9.91965 2 8.72965C2 5.63965 4.49 3.13965 7.56 3.13965C9.37 3.13965 10.99 4.01965 12 5.36965C13.01 4.01965 14.63 3.13965 16.44 3.13965C19.51 3.13965 22 5.63965 22 8.72965Z" fill="currentColor"/>
</svg>
