<svg width="24" height="24" viewBox="0 0 24 24" fill="none" xmlns="http://www.w3.org/2000/svg">
<path d="M20.6804 13.9104V13.9004C19.8004 12.9704 18.5704 12.4004 17.2004 12.4004C14.5504 12.4004 12.4004 14.5504 12.4004 17.2004C12.4004 18.4304 12.8704 19.5504 13.6304 20.4004C14.5104 21.3804 15.7804 22.0004 17.2004 22.0004C19.8504 22.0004 22.0004 19.8504 22.0004 17.2004C22.0004 15.9304 21.5004 14.7704 20.6804 13.9104ZM18.9904 18.0104H17.9504V19.1004C17.9504 19.5104 17.6104 19.8504 17.2004 19.8504C16.7904 19.8504 16.4504 19.5104 16.4504 19.1004V18.0104H15.4104C14.9904 18.0104 14.6604 17.6804 14.6604 17.2604C14.6604 16.8504 14.9804 16.5204 15.4004 16.5104H16.4504V15.5104C16.4504 15.4904 16.4504 15.4704 16.4604 15.4504C16.4804 15.0704 16.8104 14.7604 17.2004 14.7604C17.6004 14.7604 17.9304 15.0804 17.9504 15.4804V16.5104H18.9904C19.4104 16.5104 19.7404 16.8504 19.7404 17.2604C19.7404 17.6804 19.4104 18.0104 18.9904 18.0104Z" fill="currentColor"/>
<path d="M22 8.72965C22 9.91965 21.81 11.0196 21.48 12.0396C21.42 12.2496 21.17 12.3096 20.99 12.1796C19.9 11.3696 18.57 10.9396 17.2 10.9396C13.73 10.9396 10.9 13.7696 10.9 17.2396C10.9 18.3196 11.18 19.3796 11.71 20.3196C11.87 20.5996 11.68 20.9597 11.38 20.8496C8.97 20.0296 4.1 17.0396 2.52 12.0396C2.19 11.0196 2 9.91965 2 8.72965C2 5.63965 4.49 3.13965 7.56 3.13965C9.37 3.13965 10.99 4.01965 12 5.36965C13.01 4.01965 14.63 3.13965 16.44 3.13965C19.51 3.13965 22 5.63965 22 8.72965Z" fill="currentColor"/>
</svg>
