<svg width="24" height="24" viewBox="0 0 24 24" fill="none" xmlns="http://www.w3.org/2000/svg">
<path d="M20.6904 13.9204C20.6804 13.9204 20.6804 13.9104 20.6804 13.9104V13.9004C19.8004 12.9804 18.5704 12.4004 17.2004 12.4004C14.5504 12.4004 12.4004 14.5504 12.4004 17.2004C12.4004 18.4304 12.8704 19.5504 13.6304 20.4004C14.5104 21.3804 15.7804 22.0004 17.2004 22.0004C19.8504 22.0004 22.0004 19.8504 22.0004 17.2004C22.0004 15.9304 21.5004 14.7804 20.6904 13.9204ZM19.0104 19.0704C18.8704 19.2104 18.6704 19.2904 18.4804 19.2904C18.2904 19.2904 18.1004 19.2104 17.9504 19.0704L17.2104 18.3304L16.4504 19.1004C16.3004 19.2404 16.1104 19.3204 15.9204 19.3204C15.8204 19.3204 15.7304 19.3004 15.6404 19.2604C15.5504 19.2304 15.4604 19.1704 15.3904 19.1004C15.0904 18.8004 15.0904 18.3304 15.3904 18.0404L16.1504 17.2704L15.4204 16.5304C15.1204 16.2404 15.1204 15.7604 15.4204 15.4704C15.7104 15.1804 16.1804 15.1804 16.4804 15.4704L17.2104 16.2104L17.9204 15.5004C18.2204 15.2104 18.6904 15.2104 18.9804 15.5004C19.1504 15.6704 19.2204 15.8904 19.1904 16.1104C19.1804 16.2804 19.1104 16.4404 18.9804 16.5604L18.2704 17.2704L19.0104 18.0104C19.3104 18.3004 19.3104 18.7704 19.0104 19.0704Z" fill="currentColor"/>
<path d="M22 8.72965C22 9.91965 21.81 11.0196 21.48 12.0396C21.42 12.2496 21.17 12.3096 20.99 12.1796C19.9 11.3696 18.57 10.9396 17.2 10.9396C13.73 10.9396 10.9 13.7696 10.9 17.2396C10.9 18.3196 11.18 19.3796 11.71 20.3196C11.87 20.5996 11.68 20.9597 11.38 20.8496C8.97 20.0296 4.1 17.0396 2.52 12.0396C2.19 11.0196 2 9.91965 2 8.72965C2 5.63965 4.49 3.13965 7.56 3.13965C9.37 3.13965 10.99 4.01965 12 5.36965C13.01 4.01965 14.63 3.13965 16.44 3.13965C19.51 3.13965 22 5.63965 22 8.72965Z" fill="currentColor"/>
</svg>
