<svg width="24" height="24" viewBox="0 0 24 24" fill="none" xmlns="http://www.w3.org/2000/svg">
<path d="M20.0402 6.81969L14.2802 2.78969C12.7102 1.68969 10.3002 1.74969 8.79023 2.91969L3.78023 6.82969C2.78023 7.60969 1.99023 9.20969 1.99023 10.4697V17.3697C1.99023 19.9197 4.06023 21.9997 6.61023 21.9997H17.3902C19.9402 21.9997 22.0102 19.9297 22.0102 17.3797V10.5997C22.0102 9.24969 21.1402 7.58969 20.0402 6.81969ZM16.8802 16.1897C16.8802 16.2797 16.8602 16.3697 16.8302 16.4597C16.7602 16.6297 16.6202 16.7697 16.4502 16.8397C16.3602 16.8797 16.2702 16.8897 16.1802 16.8897H14.3202C13.9302 16.8897 13.6202 16.5797 13.6202 16.1897C13.6202 15.7997 13.9302 15.4897 14.3202 15.4897H14.5002L12.3902 13.3797L11.3702 14.8997C11.2502 15.0697 11.0702 15.1897 10.8602 15.2097C10.6402 15.2297 10.4502 15.1597 10.3002 15.0097L7.32023 12.0297C7.05023 11.7597 7.05023 11.3197 7.32023 11.0397C7.59023 10.7597 8.03023 10.7697 8.31024 11.0397L10.6902 13.4197L11.7102 11.8997C11.8302 11.7297 12.0102 11.6097 12.2202 11.5897C12.4402 11.5697 12.6302 11.6397 12.7802 11.7897L15.5002 14.5097V14.3297C15.5002 13.9397 15.8102 13.6297 16.2002 13.6297C16.5902 13.6297 16.9002 13.9397 16.9002 14.3297V16.1897H16.8802Z" fill="currentColor"/>
</svg>
