<svg width="24" height="24" viewBox="0 0 24 24" fill="none" xmlns="http://www.w3.org/2000/svg">
<path d="M20.0402 6.81969L14.2802 2.78969C12.7102 1.68969 10.3002 1.74969 8.79023 2.91969L3.78023 6.82969C2.78023 7.60969 1.99023 9.20969 1.99023 10.4697V17.3697C1.99023 19.9197 4.06023 21.9997 6.61023 21.9997H17.3902C19.9402 21.9997 22.0102 19.9297 22.0102 17.3797V10.5997C22.0102 9.24969 21.1402 7.58969 20.0402 6.81969ZM16.8802 13.3997C16.8802 13.7897 16.5702 14.0997 16.1802 14.0997C15.7902 14.0997 15.4802 13.7897 15.4802 13.3997V13.2197L12.7602 15.9397C12.6102 16.0897 12.4102 16.1597 12.2002 16.1397C12.0002 16.1197 11.8102 15.9997 11.7002 15.8297L10.6802 14.3097L8.30023 16.6897C8.16023 16.8297 7.99023 16.8897 7.81023 16.8897C7.63023 16.8897 7.45023 16.8197 7.32023 16.6897C7.05023 16.4197 7.05023 15.9797 7.32023 15.6997L10.3002 12.7197C10.4502 12.5697 10.6502 12.4997 10.8602 12.5197C11.0702 12.5397 11.2602 12.6497 11.3702 12.8297L12.3902 14.3497L14.5002 12.2397H14.3202C13.9302 12.2397 13.6202 11.9297 13.6202 11.5397C13.6202 11.1497 13.9302 10.8397 14.3202 10.8397H16.1802C16.2702 10.8397 16.3602 10.8597 16.4502 10.8897C16.6202 10.9597 16.7602 11.0997 16.8302 11.2697C16.8702 11.3597 16.8802 11.4497 16.8802 11.5397V13.3997Z" fill="currentColor"/>
</svg>
