<svg width="24" height="24" viewBox="0 0 24 24" fill="none" xmlns="http://www.w3.org/2000/svg">
<path d="M20.5393 19.0403C20.3893 19.1903 20.1993 19.2603 20.0093 19.2603C19.8193 19.2603 19.6293 19.1903 19.4793 19.0403L14.5293 14.0903L15.0593 13.5603L15.5893 13.0303L20.5393 17.9803C20.8293 18.2703 20.8293 18.7503 20.5393 19.0403Z" fill="currentColor"/>
<path d="M6.46937 9.28009L12.2694 15.0801C12.6594 15.4701 12.6594 16.1001 12.2694 16.4901L11.3694 17.4001C10.5594 18.2001 9.27938 18.2001 8.47937 17.4001L4.13938 13.0601C3.34938 12.2701 3.34938 10.9801 4.13938 10.1801L5.04938 9.27009C5.43938 8.89009 6.07937 8.89009 6.46937 9.28009Z" fill="currentColor"/>
<path d="M18.5898 10.1897L14.7798 13.9897C14.3798 14.3897 13.7398 14.3897 13.3398 13.9897L7.55977 8.20969C7.15977 7.80969 7.15977 7.16969 7.55977 6.76969L11.3698 2.95969C12.1598 2.16969 13.4498 2.16969 14.2498 2.95969L18.5898 7.29969C19.3798 8.09969 19.3798 9.37969 18.5898 10.1897Z" fill="currentColor"/>
<path d="M8 21.75H2C1.59 21.75 1.25 21.41 1.25 21C1.25 20.59 1.59 20.25 2 20.25H8C8.41 20.25 8.75 20.59 8.75 21C8.75 21.41 8.41 21.75 8 21.75Z" fill="currentColor"/>
</svg>
