<svg width="24" height="24" viewBox="0 0 24 24" fill="none" xmlns="http://www.w3.org/2000/svg">
<path d="M15.7007 4.35007L6.4007 13.6501C5.9307 14.1201 5.1107 14.0201 4.8107 13.4201C4.2707 12.3501 3.9707 11.1801 3.9707 10.0501C3.9707 7.60007 5.0607 5.31007 6.9707 3.77007C8.8807 2.23007 11.3807 1.66007 13.8307 2.20007C14.3707 2.32007 14.9007 2.49007 15.4007 2.72007C16.0407 3.01007 16.2007 3.85007 15.7007 4.35007Z" fill="currentColor"/>
<path d="M15.4494 20.6304C13.1894 19.9904 10.8094 19.9904 8.54941 20.6304C8.17941 20.7404 7.95941 21.1204 8.06941 21.4904C8.17941 21.8604 8.55941 22.0704 8.92941 21.9704C10.9394 21.4004 13.0494 21.4004 15.0594 21.9704C15.1194 21.9904 15.1894 22.0004 15.2494 22.0004C15.5494 22.0004 15.8294 21.8004 15.9194 21.4904C16.0294 21.1204 15.8194 20.7404 15.4494 20.6304Z" fill="currentColor"/>
<path d="M20.5591 1.94992C20.2691 1.65992 19.7891 1.65992 19.4991 1.94992L3.64914 17.7999C3.35914 18.0899 3.35914 18.5699 3.64914 18.8599C3.79914 19.0099 3.98914 19.0799 4.17914 19.0799C4.36914 19.0799 4.55914 19.0099 4.70914 18.8599L7.16914 16.3999C7.38914 16.5799 7.61914 16.7599 7.85914 16.9199V17.7499C7.84914 18.0299 7.83914 18.4599 8.16914 18.8099C8.51914 19.1599 9.03914 19.2099 9.44914 19.2099H14.5791C15.1191 19.2099 15.5291 19.0599 15.8091 18.7799C16.1991 18.3799 16.1791 17.8799 16.1691 17.6199V16.9199C19.2791 14.8299 21.2291 10.4199 19.2091 6.35992C18.9891 5.92992 18.7191 5.51992 18.4191 5.13992L20.5491 3.00992C20.8491 2.71992 20.8491 2.23992 20.5591 1.94992Z" fill="currentColor"/>
</svg>
