<svg width="24" height="24" viewBox="0 0 24 24" fill="none" xmlns="http://www.w3.org/2000/svg">
<path d="M19.2107 6.35952C18.1707 4.25952 16.1607 2.70952 13.8307 2.19952C11.3907 1.65952 8.8907 2.23952 6.9807 3.77952C5.0607 5.30952 3.9707 7.59952 3.9707 10.0495C3.9707 12.6395 5.5207 15.3495 7.8607 16.9195V17.7495C7.8507 18.0295 7.8407 18.4595 8.1807 18.8095C8.5307 19.1695 9.0507 19.2095 9.4607 19.2095H14.5907C15.1307 19.2095 15.5407 19.0595 15.8207 18.7795C16.2007 18.3895 16.1907 17.8895 16.1807 17.6195V16.9195C19.2807 14.8295 21.2307 10.4195 19.2107 6.35952Z" fill="currentColor"/>
<path d="M15.2592 22.0004C15.1992 22.0004 15.1292 21.9904 15.0692 21.9704C13.0592 21.4004 10.9492 21.4004 8.93918 21.9704C8.56918 22.0704 8.17918 21.8604 8.07918 21.4904C7.96918 21.1204 8.18918 20.7304 8.55918 20.6304C10.8192 19.9904 13.1992 19.9904 15.4592 20.6304C15.8292 20.7404 16.0492 21.1204 15.9392 21.4904C15.8392 21.8004 15.5592 22.0004 15.2592 22.0004Z" fill="currentColor"/>
</svg>
