<svg width="24" height="24" viewBox="0 0 24 24" fill="none" xmlns="http://www.w3.org/2000/svg">
<path d="M7.5007 12.0005C7.5007 11.3374 7.64861 10.7076 7.91148 10.1377C8.11499 9.69642 8.07996 9.15973 7.73636 8.81613L5.15929 6.23906C4.74923 5.829 4.07311 5.85053 3.74213 6.32671C2.62168 7.93866 1.9707 9.89445 1.9707 12.0005C1.9707 14.1048 2.62067 16.0592 3.73347 17.6705C4.06348 18.1483 4.74064 18.1714 5.15178 17.7613L7.73484 15.1848C8.07922 14.8413 8.11463 14.304 7.91102 13.8623C7.64844 13.2926 7.5007 12.6632 7.5007 12.0005Z" fill="currentColor"/>
<path d="M12.0009 7.5C12.6641 7.5 13.2938 7.64791 13.8637 7.91078C14.305 8.11428 14.8417 8.07926 15.1853 7.73566L17.7345 5.18643C18.1438 4.77717 18.1233 4.10256 17.6486 3.77141C16.0425 2.65097 14.0854 2 11.9709 2C9.86674 2 7.91966 2.64985 6.31072 3.76248C5.8331 4.09277 5.80998 4.76993 6.22007 5.18107L8.78114 7.74868C9.12705 8.09546 9.66901 8.12873 10.1126 7.92105C10.6864 7.6524 11.3246 7.5 12.0009 7.5Z" fill="currentColor"/>
<path d="M19.8905 5.90633C19.7128 5.6767 19.3754 5.66475 19.1699 5.8698L15.9511 9.08034C15.7777 9.25329 15.7578 9.52498 15.8817 9.73622C16.2721 10.4017 16.5004 11.1724 16.5004 12.0002C16.5004 12.8283 16.2719 13.5992 15.8814 14.2647C15.7576 14.4757 15.7773 14.7471 15.9503 14.9201L19.1699 18.1397C19.3753 18.3452 19.7131 18.3334 19.8908 18.1035C21.1961 16.4152 21.9704 14.2971 21.9704 12.0002C21.9704 9.7032 21.196 7.5934 19.8905 5.90633Z" fill="currentColor"/>
<path d="M11.9992 16.5004C11.1712 16.5004 10.4003 16.2719 9.73473 15.8814C9.52372 15.7576 9.25233 15.7773 9.07933 15.9503L5.82976 19.1999C5.62427 19.4053 5.63601 19.7431 5.86592 19.9208C7.55424 21.2261 9.67239 22.0004 11.9692 22.0004C14.2764 22.0004 16.3961 21.2254 18.077 19.9111C18.305 19.7329 18.3156 19.3968 18.111 19.1922L14.8864 15.9676C14.7146 15.7958 14.4455 15.775 14.2351 15.8964C13.572 16.2789 12.8106 16.5004 11.9992 16.5004Z" fill="currentColor"/>
</svg>
