<svg width="24" height="24" viewBox="0 0 24 24" fill="none" xmlns="http://www.w3.org/2000/svg">
<path d="M19.0693 14.2396C18.7793 14.5296 18.3193 14.5296 18.0393 14.2396C17.7493 13.9496 17.7493 13.4896 18.0393 13.2096C20.0393 11.2096 20.0393 7.95961 18.0393 5.96961C16.0393 3.97961 12.7893 3.96961 10.7993 5.96961C8.8093 7.96961 8.7993 11.2196 10.7993 13.2096C11.0893 13.4996 11.0893 13.9596 10.7993 14.2396C10.5093 14.5296 10.0493 14.5296 9.7693 14.2396C7.1993 11.6696 7.1993 7.48961 9.7693 4.92961C12.3393 2.36961 16.5193 2.35961 19.0793 4.92961C21.6393 7.49961 21.6393 11.6696 19.0693 14.2396Z" fill="currentColor"/>
<path d="M4.9307 9.76047C5.2207 9.47047 5.68071 9.47047 5.96071 9.76047C6.25071 10.0505 6.25071 10.5105 5.96071 10.7905C3.96071 12.7905 3.96071 16.0405 5.96071 18.0305C7.9607 20.0205 11.2107 20.0305 13.2007 18.0305C15.1907 16.0305 15.2007 12.7805 13.2007 10.7905C12.9107 10.5005 12.9107 10.0405 13.2007 9.76047C13.4907 9.47047 13.9507 9.47047 14.2307 9.76047C16.8007 12.3305 16.8007 16.5105 14.2307 19.0705C11.6607 21.6305 7.48071 21.6405 4.92071 19.0705C2.36071 16.5005 2.3607 12.3305 4.9307 9.76047Z" fill="currentColor"/>
</svg>
