<svg width="24" height="24" viewBox="0 0 24 24" fill="none" xmlns="http://www.w3.org/2000/svg">
<path d="M20.6207 8.7C19.5807 4.07 15.5407 2 12.0007 2C12.0007 2 12.0007 2 11.9907 2C8.46073 2 4.43073 4.07 3.38073 8.69C2.20073 13.85 5.36073 18.22 8.22073 20.98C9.28073 22 10.6407 22.51 12.0007 22.51C13.3607 22.51 14.7207 22 15.7707 20.98C18.6307 18.22 21.7907 13.86 20.6207 8.7ZM14.7507 11.75H12.7507V13.75C12.7507 14.16 12.4107 14.5 12.0007 14.5C11.5907 14.5 11.2507 14.16 11.2507 13.75V11.75H9.25073C8.84073 11.75 8.50073 11.41 8.50073 11C8.50073 10.59 8.84073 10.25 9.25073 10.25H11.2507V8.25C11.2507 7.84 11.5907 7.5 12.0007 7.5C12.4107 7.5 12.7507 7.84 12.7507 8.25V10.25H14.7507C15.1607 10.25 15.5007 10.59 15.5007 11C15.5007 11.41 15.1607 11.75 14.7507 11.75Z" fill="currentColor"/>
</svg>
