<svg width="24" height="24" viewBox="0 0 24 24" fill="none" xmlns="http://www.w3.org/2000/svg">
<path d="M20.6207 8.7C19.5807 4.07 15.5407 2 12.0007 2C12.0007 2 12.0007 2 11.9907 2C8.46073 2 4.43073 4.07 3.38073 8.69C2.20073 13.85 5.36073 18.22 8.22073 20.98C9.28073 22 10.6407 22.51 12.0007 22.51C13.3607 22.51 14.7207 22 15.7707 20.98C18.6307 18.22 21.7907 13.86 20.6207 8.7ZM14.5307 13.49C14.3807 13.64 14.1907 13.71 14.0007 13.71C13.8107 13.71 13.6207 13.64 13.4707 13.49L12.0207 12.04L10.5307 13.53C10.3807 13.68 10.1907 13.75 10.0007 13.75C9.81073 13.75 9.62073 13.68 9.47073 13.53C9.18073 13.24 9.18073 12.76 9.47073 12.47L10.9607 10.98L9.51073 9.53C9.22073 9.24 9.22073 8.76 9.51073 8.47C9.80073 8.18 10.2807 8.18 10.5707 8.47L12.0207 9.92L13.4207 8.52C13.7107 8.23 14.1907 8.23 14.4807 8.52C14.7707 8.81 14.7707 9.29 14.4807 9.58L13.0807 10.98L14.5307 12.43C14.8207 12.72 14.8207 13.19 14.5307 13.49Z" fill="currentColor"/>
</svg>
