<svg width="24" height="24" viewBox="0 0 24 24" fill="none" xmlns="http://www.w3.org/2000/svg">
<path d="M15.7806 20.98C14.7206 22 13.3606 22.51 12.0006 22.51C10.6406 22.51 9.28063 21.99 8.22063 20.97C7.86063 20.63 7.50063 20.25 7.14062 19.86L20.0406 6.95996C20.2906 7.49996 20.4806 8.06996 20.6206 8.69996C21.7906 13.86 18.6306 18.22 15.7806 20.98Z" fill="currentColor"/>
<path d="M21.7709 2.22988C21.4709 1.92988 20.9809 1.92988 20.6809 2.22988L2.23086 20.6899C1.93086 20.9899 1.93086 21.4799 2.23086 21.7799C2.38086 21.9199 2.57086 21.9999 2.77086 21.9999C2.97086 21.9999 3.16086 21.9199 3.31086 21.7699L21.7709 3.30988C22.0809 3.00988 22.0809 2.52988 21.7709 2.22988Z" fill="currentColor"/>
<path d="M8.8506 10.31C8.8506 8.57 10.2606 7.16 12.0006 7.16C13.3106 7.16 14.4306 7.96 14.9106 9.1L18.8906 5.12C17.1206 2.98 14.4406 2 12.0006 2C10.2306 2 8.3406 2.52 6.7606 3.61C5.1806 4.71 3.9006 6.38 3.3806 8.69C2.5406 12.36 3.9006 15.64 5.7906 18.21L10.7906 13.21C9.6506 12.74 8.8506 11.61 8.8506 10.31Z" fill="currentColor"/>
</svg>
