<svg width="24" height="24" viewBox="0 0 24 24" fill="none" xmlns="http://www.w3.org/2000/svg">
<path d="M16.5098 5.01L14.5498 3.05C13.1498 1.65 10.8498 1.65 9.44977 3.05L7.48977 5.01C7.09977 5.4 7.09977 6.04 7.48977 6.43L11.2998 10.24C11.6898 10.63 12.3198 10.63 12.7098 10.24L16.5198 6.43C16.8998 6.04 16.8998 5.4 16.5098 5.01Z" fill="currentColor"/>
<path d="M5.01 7.48977L3.05 9.44977C1.65 10.8498 1.65 13.1498 3.05 14.5498L5.01 16.5098C5.4 16.8998 6.03 16.8998 6.42 16.5098L10.23 12.6998C10.62 12.3098 10.62 11.6798 10.23 11.2898L6.43 7.48977C6.04 7.09977 5.4 7.09977 5.01 7.48977Z" fill="currentColor"/>
<path d="M20.9491 9.44977L18.9891 7.48977C18.5991 7.09977 17.9691 7.09977 17.5791 7.48977L13.7691 11.2998C13.3791 11.6898 13.3791 12.3198 13.7691 12.7098L17.5791 16.5198C17.9691 16.9098 18.5991 16.9098 18.9891 16.5198L20.9491 14.5598C22.3491 13.1498 22.3491 10.8498 20.9491 9.44977Z" fill="currentColor"/>
<path d="M7.48907 18.99L9.44907 20.95C10.8491 22.35 13.1491 22.35 14.5491 20.95L16.5091 18.99C16.8991 18.6 16.8991 17.97 16.5091 17.58L12.6991 13.77C12.3091 13.38 11.6791 13.38 11.2891 13.77L7.47907 17.58C7.09907 17.96 7.09907 18.6 7.48907 18.99Z" fill="currentColor"/>
</svg>
