<svg width="24" height="24" viewBox="0 0 24 24" fill="none" xmlns="http://www.w3.org/2000/svg">
<path d="M18.6493 4.59027C16.8893 2.99027 14.5593 2.03027 11.9993 2.03027C6.4993 2.03027 2.0293 6.50027 2.0293 12.0003C2.0293 17.5003 6.4993 21.9703 11.9993 21.9703C14.5593 21.9703 16.8893 21.0103 18.6493 19.4103C20.6893 17.6003 21.9693 14.9403 21.9693 12.0003C21.9693 9.06027 20.6893 6.40027 18.6493 4.59027ZM11.9693 16.3903C11.9493 18.0403 10.7193 18.4403 9.5693 17.9803C7.1993 17.0303 5.5293 14.7103 5.5293 12.0003C5.5293 9.29027 7.1993 6.97027 9.5693 6.01027C10.7193 5.55027 11.9493 5.96027 11.9693 7.60027V16.3903Z" fill="currentColor"/>
</svg>
