<svg width="24" height="24" viewBox="0 0 24 24" fill="none" xmlns="http://www.w3.org/2000/svg">
<path d="M14.8406 10.8996L20.5006 7.1096C21.0706 6.7296 21.2206 5.9496 20.8406 5.3896L19.0206 2.6796C18.6406 2.1096 17.8606 1.9596 17.3006 2.3396L11.6406 6.1296L14.8406 10.8996Z" fill="currentColor"/>
<path d="M14.5197 10.4196L12.7597 11.5996L10.0897 13.3896L9.73969 13.6196L9.57969 13.3796L7.33969 10.0396L7.17969 9.79961L11.9597 6.59961L14.5197 10.4196Z" fill="currentColor"/>
<path d="M5.63912 16.02L9.58912 13.38L7.34912 10.04L3.39912 12.68C2.93912 12.99 2.81912 13.61 3.12912 14.07L4.25912 15.75C4.55912 16.21 5.17912 16.33 5.63912 16.02Z" fill="currentColor"/>
<path d="M16.5594 21.8096C16.4594 21.8496 16.3494 21.8796 16.2494 21.8796C15.9594 21.8796 15.6894 21.7096 15.5594 21.4296L11.8294 13.1896L8.04941 21.4396C7.91941 21.7096 7.64941 21.8796 7.35941 21.8796C7.25941 21.8796 7.14941 21.8496 7.04941 21.8096C6.67941 21.6296 6.50941 21.1896 6.67941 20.8096L10.0894 13.3896L12.7594 11.5996L16.9294 20.8196C17.0994 21.1896 16.9294 21.6396 16.5594 21.8096Z" fill="currentColor"/>
</svg>
