<svg width="24" height="24" viewBox="0 0 24 24" fill="none" xmlns="http://www.w3.org/2000/svg">
<path d="M21.5307 15.9304C21.3707 15.6604 20.9207 15.2404 19.8007 15.4404C19.1807 15.5504 18.5507 15.6004 17.9207 15.5704C15.5907 15.4704 13.4807 14.4004 12.0107 12.7504C10.7107 11.3004 9.91068 9.41036 9.90068 7.37036C9.90068 6.23036 10.1207 5.13036 10.5707 4.09036C11.0107 3.08036 10.7007 2.55036 10.4807 2.33036C10.2507 2.10036 9.71068 1.78036 8.65068 2.22036C4.56068 3.94036 2.03068 8.04036 2.33068 12.4304C2.63068 16.5604 5.53068 20.0904 9.37068 21.4204C10.2907 21.7404 11.2607 21.9304 12.2607 21.9704C12.4207 21.9804 12.5807 21.9904 12.7407 21.9904C16.0907 21.9904 19.2307 20.4104 21.2107 17.7204C21.8807 16.7904 21.7007 16.2004 21.5307 15.9304Z" fill="currentColor"/>
</svg>
