<svg width="24" height="24" viewBox="0 0 24 24" fill="none" xmlns="http://www.w3.org/2000/svg">
<path d="M20.9597 17.8405L19.3297 18.3905C18.8797 18.5405 18.5197 18.8905 18.3697 19.3505L17.8197 20.9805C17.3497 22.3905 15.3697 22.3605 14.9297 20.9505L13.0797 15.0005C12.7197 13.8205 13.8097 12.7205 14.9797 13.0905L20.9397 14.9405C22.3397 15.3805 22.3597 17.3705 20.9597 17.8405Z" fill="currentColor"/>
<path d="M20.9994 11.5004C20.9994 11.9304 20.9694 12.3604 20.9194 12.7804C20.8794 13.0804 20.5694 13.2604 20.2794 13.1704L15.4294 11.6604C14.3494 11.3304 13.1994 11.6104 12.3994 12.4004C11.5994 13.2004 11.3094 14.3704 11.6494 15.4504L13.1494 20.2804C13.2394 20.5704 13.0494 20.8804 12.7494 20.9204C12.3294 20.9704 11.9194 21.0004 11.4994 21.0004C6.15942 21.0004 1.85942 16.6104 1.99942 11.2304C2.13942 6.27039 6.26942 2.14039 11.2294 2.00039C16.6094 1.86039 20.9994 6.16039 20.9994 11.5004Z" fill="currentColor"/>
</svg>
