<svg width="24" height="24" viewBox="0 0 24 24" fill="none" xmlns="http://www.w3.org/2000/svg">
<path d="M13.1807 11.8596C12.7807 11.8596 12.4207 11.6396 12.2507 11.2796L10.8007 8.38961L10.3807 9.16961C10.1507 9.59961 9.6907 9.86961 9.2007 9.86961H8.4707C8.0607 9.86961 7.7207 9.52961 7.7207 9.11961C7.7207 8.70961 8.0607 8.36961 8.4707 8.36961H9.1107L9.9007 6.90961C10.0907 6.56961 10.4707 6.33961 10.8307 6.35961C11.2207 6.35961 11.5707 6.58961 11.7507 6.92961L13.1807 9.78961L13.5207 9.09961C13.7507 8.63961 14.2007 8.35961 14.7207 8.35961H15.5307C15.9407 8.35961 16.2807 8.69961 16.2807 9.10961C16.2807 9.51961 15.9407 9.85961 15.5307 9.85961H14.8207L14.1107 11.2696C13.9307 11.6396 13.5807 11.8596 13.1807 11.8596Z" fill="currentColor"/>
<path d="M2.74982 18.6498C2.33982 18.6498 1.99982 18.3098 1.99982 17.8998V12.1998C1.94982 9.4898 2.95982 6.9298 4.83982 5.0098C6.71982 3.0998 9.23982 2.0498 11.9498 2.0498C17.4898 2.0498 21.9998 6.5598 21.9998 12.0998V17.7998C21.9998 18.2098 21.6598 18.5498 21.2498 18.5498C20.8398 18.5498 20.4998 18.2098 20.4998 17.7998V12.0998C20.4998 7.3898 16.6698 3.5498 11.9498 3.5498C9.63982 3.5498 7.49982 4.43981 5.90982 6.0598C4.30982 7.68981 3.45982 9.85981 3.49982 12.1798V17.8898C3.49982 18.3098 3.16982 18.6498 2.74982 18.6498Z" fill="currentColor"/>
<path d="M5.94 12.4502H5.81C3.71 12.4502 2 14.1602 2 16.2602V18.1402C2 20.2402 3.71 21.9502 5.81 21.9502H5.94C8.04 21.9502 9.75 20.2402 9.75 18.1402V16.2602C9.75 14.1602 8.04 12.4502 5.94 12.4502Z" fill="currentColor"/>
<path d="M18.19 12.4502H18.06C15.96 12.4502 14.25 14.1602 14.25 16.2602V18.1402C14.25 20.2402 15.96 21.9502 18.06 21.9502H18.19C20.29 21.9502 22 20.2402 22 18.1402V16.2602C22 14.1602 20.29 12.4502 18.19 12.4502Z" fill="currentColor"/>
</svg>
