<svg width="24" height="24" viewBox="0 0 24 24" fill="none" xmlns="http://www.w3.org/2000/svg">
<path d="M21.7207 6.27977V7.44977C21.7207 8.42977 21.3307 9.26977 20.6407 9.75977C20.2107 10.0798 19.6807 10.2298 19.1307 10.2298C18.7907 10.2298 18.4507 10.1798 18.1007 10.0598L12.7207 8.26977V17.9998C12.7207 20.6198 10.5907 22.7498 7.9707 22.7498C5.3507 22.7498 3.2207 20.6198 3.2207 17.9998C3.2207 15.3798 5.3507 13.2498 7.9707 13.2498C9.2307 13.2498 10.3707 13.7498 11.2207 14.5498V3.99977C11.2207 3.02977 11.6207 2.18977 12.3107 1.68977C13.0007 1.19977 13.9207 1.08977 14.8407 1.38977L19.2607 2.86977C20.6207 3.31977 21.7207 4.84977 21.7207 6.27977Z" fill="currentColor"/>
</svg>
