<svg width="24" height="24" viewBox="0 0 24 24" fill="none" xmlns="http://www.w3.org/2000/svg">
<path d="M20.8894 5.17958V16.4796C20.8894 18.4596 19.2794 20.0696 17.2994 20.0696C15.3294 20.0696 13.7094 18.4596 13.7094 16.4796C13.7094 14.5096 15.3294 12.8996 17.2994 12.8996C18.1394 12.8996 18.8894 13.1896 19.4994 13.6696V7.71958L10.2894 10.3396V18.4096C10.2894 20.3896 8.66937 21.9996 6.69937 21.9996C4.71937 21.9996 3.10938 20.3896 3.10938 18.4096C3.10938 16.4396 4.71937 14.8296 6.69937 14.8296C7.52938 14.8296 8.27938 15.1196 8.88938 15.5896V6.74958C8.88938 5.27958 9.77938 4.13958 11.1894 3.75958L16.9694 2.17958C18.1394 1.85958 19.1294 1.96958 19.8294 2.50958C20.5394 3.03958 20.8894 3.93958 20.8894 5.17958Z" fill="currentColor"/>
</svg>
