<svg width="24" height="24" viewBox="0 0 24 24" fill="none" xmlns="http://www.w3.org/2000/svg">
<path d="M20.1892 14.0598L19.0592 12.1798C18.8092 11.7698 18.5892 10.9798 18.5892 10.4998V8.6298C18.5892 4.9998 15.6392 2.0498 12.0192 2.0498C8.38923 2.0598 5.43923 4.9998 5.43923 8.6298V10.4898C5.43923 10.9698 5.21923 11.7598 4.97923 12.1698L3.84923 14.0498C3.41923 14.7798 3.31923 15.6098 3.58923 16.3298C3.85923 17.0598 4.46923 17.6398 5.26923 17.8998C6.34923 18.2598 7.43923 18.5198 8.54923 18.7098C8.65923 18.7298 8.76923 18.7398 8.87923 18.7598C9.01923 18.7798 9.16923 18.7998 9.31923 18.8198C9.57923 18.8598 9.83923 18.8898 10.1092 18.9098C10.7392 18.9698 11.3792 18.9998 12.0192 18.9998C12.6492 18.9998 13.2792 18.9698 13.8992 18.9098C14.1292 18.8898 14.3592 18.8698 14.5792 18.8398C14.7592 18.8198 14.9392 18.7998 15.1192 18.7698C15.2292 18.7598 15.3392 18.7398 15.4492 18.7198C16.5692 18.5398 17.6792 18.2598 18.7592 17.8998C19.5292 17.6398 20.1192 17.0598 20.3992 16.3198C20.6792 15.5698 20.5992 14.7498 20.1892 14.0598ZM12.7492 9.9998C12.7492 10.4198 12.4092 10.7598 11.9892 10.7598C11.5692 10.7598 11.2292 10.4198 11.2292 9.9998V6.89981C11.2292 6.4798 11.5692 6.1398 11.9892 6.1398C12.4092 6.1398 12.7492 6.4798 12.7492 6.89981V9.9998Z" fill="currentColor"/>
<path d="M14.8297 20.01C14.4097 21.17 13.2997 22 11.9997 22C11.2097 22 10.4297 21.68 9.87969 21.11C9.55969 20.81 9.31969 20.41 9.17969 20C9.30969 20.02 9.43969 20.03 9.57969 20.05C9.80969 20.08 10.0497 20.11 10.2897 20.13C10.8597 20.18 11.4397 20.21 12.0197 20.21C12.5897 20.21 13.1597 20.18 13.7197 20.13C13.9297 20.11 14.1397 20.1 14.3397 20.07C14.4997 20.05 14.6597 20.03 14.8297 20.01Z" fill="currentColor"/>
</svg>
