<svg width="24" height="24" viewBox="0 0 24 24" fill="none" xmlns="http://www.w3.org/2000/svg">
<path d="M20.5491 9.44004H19.4491C19.2991 9.44004 19.1491 9.47004 19.0091 9.51004L14.0191 4.52004C14.4991 3.90004 14.4591 3.01004 13.8891 2.45004L13.1091 1.67004C12.5191 1.08004 11.4791 1.08004 10.8791 1.67004L10.0991 2.45004C9.53914 3.01004 9.49914 3.90004 9.97914 4.52004L4.98914 9.51004C4.84914 9.47004 4.69914 9.44004 4.54914 9.44004H3.44914C2.57914 9.44004 1.86914 10.15 1.86914 11.02V12.12C1.86914 12.99 2.57914 13.7 3.44914 13.7H4.54914C5.41914 13.7 6.12914 12.99 6.12914 12.12V11.02C6.12914 10.87 6.09914 10.72 6.05914 10.58L11.0491 5.59004C11.3191 5.80004 11.6591 5.91004 11.9991 5.91004C12.3391 5.91004 12.6791 5.79004 12.9591 5.58004L17.9491 10.57C17.9091 10.71 17.8791 10.86 17.8791 11.01V12.11C17.8791 12.98 18.5891 13.69 19.4591 13.69H20.5591C21.4291 13.69 22.1391 12.98 22.1391 12.11V11.01C22.1191 10.14 21.4191 9.44004 20.5491 9.44004Z" fill="currentColor"/>
<path d="M15.7491 16.5502L14.1091 18.0002H9.84907L8.20907 16.5502C7.25907 15.7702 7.25907 15.1702 7.97907 14.2502L10.8691 10.5902C11.0691 10.3402 11.2991 10.1702 11.5591 10.0802C11.8291 9.9902 12.1191 9.9902 12.3991 10.0802C12.6491 10.1702 12.8791 10.3402 13.0891 10.5902L15.9791 14.2502C16.6991 15.1602 16.6691 15.7302 15.7491 16.5502Z" fill="currentColor"/>
<path d="M13.2909 21.9998H10.7009C9.78087 21.9998 9.09087 21.2498 9.27087 20.4498L9.58087 19.0598C9.64087 18.7798 9.89087 18.5898 10.1709 18.5898H13.8209C14.1009 18.5898 14.3409 18.7798 14.4109 19.0598L14.7209 20.4498C14.9209 21.2998 14.2709 21.9998 13.2909 21.9998Z" fill="currentColor"/>
</svg>
