<svg width="24" height="24" viewBox="0 0 24 24" fill="none" xmlns="http://www.w3.org/2000/svg">
<path d="M17.49 9.59965L5.6 16.7696C4.9 17.1896 4 16.6896 4 15.8696V7.86965C4 4.37965 7.77 2.19965 10.8 3.93965L15.39 6.57965L17.48 7.77965C18.17 8.18965 18.18 9.18965 17.49 9.59965Z" fill="currentColor"/>
<path d="M18.0908 15.4596L14.0408 17.7996L10.0008 20.1296C8.55079 20.9596 6.91079 20.7896 5.72079 19.9496C5.14079 19.5496 5.21079 18.6596 5.82079 18.2996L18.5308 10.6796C19.1308 10.3196 19.9208 10.6596 20.0308 11.3496C20.2808 12.8996 19.6408 14.5696 18.0908 15.4596Z" fill="currentColor"/>
</svg>
