<svg width="24" height="24" viewBox="0 0 24 24" fill="none" xmlns="http://www.w3.org/2000/svg">
<path d="M21.28 15.72C20.63 15.27 19.84 15 19 15C18.06 15 17.19 15.33 16.5 15.88C15.58 16.61 15 17.74 15 19C15 19.75 15.21 20.46 15.58 21.06C15.62 21.13 15.67 21.2 15.73 21.27C16.43 22.31 17.63 23 19 23C20.01 23 20.93 22.63 21.63 22C21.94 21.74 22.21 21.42 22.42 21.06C22.79 20.46 23 19.75 23 19C23 17.64 22.32 16.44 21.28 15.72ZM20.6 20.58C20.45 20.73 20.26 20.8 20.07 20.8C19.88 20.8 19.69 20.73 19.54 20.58L19.01 20.05L18.46 20.6C18.31 20.75 18.12 20.82 17.93 20.82C17.74 20.82 17.55 20.75 17.4 20.6C17.11 20.31 17.11 19.83 17.4 19.54L17.95 18.99L17.42 18.46C17.13 18.17 17.13 17.69 17.42 17.4C17.71 17.11 18.19 17.11 18.48 17.4L19.01 17.93L19.51 17.43C19.8 17.14 20.28 17.14 20.57 17.43C20.86 17.72 20.86 18.2 20.57 18.49L20.07 18.99L20.6 19.52C20.89 19.81 20.89 20.28 20.6 20.58Z" fill="currentColor"/>
<path d="M21.8507 10.2497C21.0707 5.79967 17.2407 2.34967 12.7307 2.02967C6.6307 1.58967 1.5907 6.63967 2.0307 12.7297C2.3507 17.2397 5.8007 21.0597 10.2507 21.8397C11.4007 22.0397 12.5207 22.0397 13.5907 21.8597C13.9007 21.8097 14.0807 21.4697 13.9607 21.1897C13.6607 20.5097 13.5007 19.7597 13.5007 18.9897C13.5007 17.2997 14.2507 15.7397 15.5707 14.6997C16.5407 13.9197 17.7607 13.4897 19.0007 13.4897C19.7807 13.4897 20.5207 13.6497 21.1907 13.9497C21.4807 14.0797 21.8107 13.8897 21.8707 13.5797C22.0507 12.5197 22.0507 11.3997 21.8507 10.2497ZM14.5007 13.5697L13.3007 14.2597L12.1007 14.9497C10.6107 15.8097 9.3907 15.1097 9.3907 13.3797V11.9997V10.6097C9.3907 8.88967 10.6107 8.17967 12.1007 9.03967L13.3007 9.72967L14.5007 10.4197C15.9907 11.2997 15.9907 12.6997 14.5007 13.5697Z" fill="currentColor"/>
</svg>
