<svg width="24" height="24" viewBox="0 0 24 24" fill="none" xmlns="http://www.w3.org/2000/svg">
<path d="M8.09 11.6305H3.4C3.48 6.96046 4.4 6.19046 7.27 4.49046C7.6 4.29046 7.71 3.87046 7.51 3.53046C7.32 3.20046 6.89 3.09046 6.56 3.29046C3.18 5.29046 2 6.51046 2 12.3205V17.7105C2 19.4205 3.39 20.8005 5.09 20.8005H8.09C9.85 20.8005 11.18 19.4705 11.18 17.7105V14.7105C11.18 12.9605 9.85 11.6305 8.09 11.6305Z" fill="currentColor"/>
<path d="M18.9105 11.6305H14.2205C14.3005 6.96046 15.2205 6.19046 18.0905 4.49046C18.4205 4.29046 18.5305 3.87046 18.3305 3.53046C18.1305 3.20046 17.7105 3.09046 17.3705 3.29046C13.9905 5.29046 12.8105 6.51046 12.8105 12.3305V17.7205C12.8105 19.4305 14.2005 20.8105 15.9005 20.8105H18.9005C20.6605 20.8105 21.9905 19.4805 21.9905 17.7205V14.7205C22.0005 12.9605 20.6705 11.6305 18.9105 11.6305Z" fill="currentColor"/>
</svg>
