<svg width="24" height="24" viewBox="0 0 24 24" fill="none" xmlns="http://www.w3.org/2000/svg">
<path d="M19.6297 7.24039C19.9297 7.71039 19.7697 8.34039 19.2897 8.63039L18.6997 8.98039L5.58967 16.8404C5.10967 17.1304 4.47967 16.9704 4.19967 16.4804C3.19967 14.7404 2.74967 12.6204 3.13967 10.4004C3.79967 6.63039 6.89967 3.63039 10.6897 3.09039C14.4397 2.56039 17.8297 4.36039 19.6297 7.24039Z" fill="currentColor"/>
<path d="M20.8892 13.4298C20.2092 17.6798 16.4492 20.9298 12.1392 20.9998C10.2392 21.0298 8.47917 20.4798 7.01917 19.4898C6.39917 19.0798 6.41917 18.1598 7.05917 17.7798L19.4692 10.4898C20.1192 10.1098 20.9192 10.5498 20.9792 11.2998C21.0292 11.9998 20.9992 12.7098 20.8892 13.4298Z" fill="currentColor"/>
</svg>
