<svg width="24" height="24" viewBox="0 0 24 24" fill="none" xmlns="http://www.w3.org/2000/svg">
<path d="M12.0014 19.75H9.32141C8.16141 19.75 7.15141 19.05 6.75141 17.97C6.34141 16.89 6.64141 15.7 7.51141 14.93L15.5014 7.94C15.9814 7.52 15.9914 6.95 15.8514 6.56C15.7014 6.17 15.3214 5.75 14.6814 5.75H12.0014C11.5914 5.75 11.2514 5.41 11.2514 5C11.2514 4.59 11.5914 4.25 12.0014 4.25H14.6814C15.8414 4.25 16.8514 4.95 17.2514 6.03C17.6614 7.11 17.3614 8.3 16.4914 9.07L8.50141 16.06C8.02141 16.48 8.01141 17.05 8.15141 17.44C8.30141 17.83 8.68141 18.25 9.32141 18.25H12.0014C12.4114 18.25 12.7514 18.59 12.7514 19C12.7514 19.41 12.4114 19.75 12.0014 19.75Z" fill="currentColor"/>
<path d="M20 15H17C15.9 15 15 15.9 15 17V20C15 21.1 15.9 22 17 22H20C21.1 22 22 21.1 22 20V17C22 15.9 21.1 15 20 15ZM18.51 19.5C17.96 19.5 17.51 19.05 17.51 18.5C17.51 17.95 17.95 17.5 18.51 17.5H18.52C19.07 17.5 19.52 17.95 19.52 18.5C19.52 19.05 19.07 19.5 18.51 19.5Z" fill="currentColor"/>
<path d="M5.4707 2C3.5407 2 1.9707 3.57 1.9707 5.5C1.9707 7.43 3.5407 9 5.4707 9C7.4007 9 8.9707 7.43 8.9707 5.5C8.9707 3.57 7.4107 2 5.4707 2ZM5.5107 6.5C4.9607 6.5 4.5107 6.05 4.5107 5.5C4.5107 4.95 4.9507 4.5 5.5107 4.5H5.5207C6.0707 4.5 6.5207 4.95 6.5207 5.5C6.5207 6.05 6.0707 6.5 5.5107 6.5Z" fill="currentColor"/>
</svg>
