<svg width="24" height="24" viewBox="0 0 24 24" fill="none" xmlns="http://www.w3.org/2000/svg">
<path d="M22.9998 15.3704V17.5604C22.9998 20.0004 21.2198 22.3004 18.7998 22.9704C18.6298 23.0104 18.4498 23.0104 18.2898 22.9704C17.1098 22.6504 16.0698 21.9304 15.3398 21.0004C14.5498 20.0204 14.0898 18.8104 14.0898 17.5604V15.3704C14.0898 14.9504 14.3998 14.4904 14.7798 14.3304L17.5598 13.1904C18.1898 12.9404 18.8898 12.9404 19.5198 13.1904L20.5198 13.6004L22.3098 14.3304C22.6898 14.4904 22.9998 14.9504 22.9998 15.3704Z" fill="currentColor"/>
<path d="M20.9493 11.0103L20.7693 12.0803L20.0693 11.8003C19.0793 11.4003 17.9993 11.4003 16.9893 11.8003L14.1993 12.9503C13.2493 13.3503 12.5893 14.3403 12.5893 15.3703V17.5603C12.5893 18.7503 12.9193 19.9403 13.5293 21.0003H6.1793C4.8093 21.0003 3.5193 19.9103 3.2893 18.5603L2.0293 11.0103C1.8693 10.0803 2.3393 8.83028 3.0793 8.24028L9.6593 2.98028C10.6693 2.17028 12.3093 2.17028 13.3193 2.99028L19.8993 8.24028C20.6293 8.83028 21.1093 10.0803 20.9493 11.0103Z" fill="currentColor"/>
</svg>
