<svg width="24" height="24" viewBox="0 0 24 24" fill="none" xmlns="http://www.w3.org/2000/svg">
<path d="M13.4909 13.3799H11.0009C10.7009 13.3799 10.4609 13.6199 10.4609 13.9199C10.4609 14.2199 10.7009 14.4599 11.0009 14.4599H13.4909C13.7909 14.4599 14.0309 14.2199 14.0309 13.9199C14.0309 13.6199 13.7909 13.3799 13.4909 13.3799Z" fill="currentColor"/>
<path d="M9.44039 13.3799H8.19039C7.89039 13.3799 7.65039 13.6199 7.65039 13.9199C7.65039 14.2199 7.89039 14.4599 8.19039 14.4599H9.44039C9.74039 14.4599 9.98039 14.2199 9.98039 13.9199C9.98039 13.6199 9.74039 13.3799 9.44039 13.3799Z" fill="currentColor"/>
<path d="M18.5408 4.22043L13.0408 2.16043C12.4708 1.95043 11.5408 1.95043 10.9708 2.16043L5.47078 4.22043C4.41078 4.62043 3.55078 5.86043 3.55078 6.99043V15.0904C3.55078 15.9004 4.08078 16.9704 4.73078 17.4504L10.2308 21.5604C11.2008 22.2904 12.7908 22.2904 13.7608 21.5604L19.2608 17.4504C19.9108 16.9604 20.4408 15.9004 20.4408 15.0904V6.99043C20.4508 5.86043 19.5908 4.62043 18.5408 4.22043ZM18.1708 13.6504C18.1508 15.7204 17.5808 16.2404 15.4308 16.2404H8.58078C6.39078 16.2404 5.84078 15.7004 5.84078 13.5304V11.2004C5.84078 10.9204 6.06078 10.7004 6.34078 10.7004H17.6708C17.9508 10.7004 18.1708 10.9204 18.1708 11.2004V13.6504ZM18.1708 9.11043C18.1708 9.39043 17.9508 9.61043 17.6708 9.61043H6.34078C6.06078 9.61043 5.84078 9.39043 5.84078 9.11043V8.47043C5.84078 6.51043 6.30078 5.88043 8.01078 5.77043C8.19078 5.77043 8.38078 5.76043 8.58078 5.76043H15.4308C17.6208 5.76043 18.1708 6.30043 18.1708 8.47043V9.11043Z" fill="currentColor"/>
</svg>
