<svg width="24" height="24" viewBox="0 0 24 24" fill="none" xmlns="http://www.w3.org/2000/svg">
<path d="M13.4303 15.0004H4.40034C2.58034 15.0004 1.42034 13.0504 2.30034 11.4504L4.63034 7.21043L6.81034 3.24043C7.72034 1.59043 10.1003 1.59043 11.0103 3.24043L13.2003 7.21043L14.2503 9.12043L15.5303 11.4504C16.4103 13.0504 15.2503 15.0004 13.4303 15.0004Z" fill="currentColor"/>
<path d="M22.6507 16C22.6507 19.59 19.7407 22.5 16.1507 22.5C13.1007 22.5 10.5507 20.41 9.84075 17.57C9.77075 17.27 10.0007 17 10.3107 17H14.0807C15.4707 17 16.7307 16.28 17.4407 15.09C18.1407 13.89 18.1707 12.45 17.4907 11.23L16.9907 10.31C16.8007 9.96995 17.0707 9.55995 17.4507 9.62995C20.4107 10.23 22.6507 12.85 22.6507 16Z" fill="currentColor"/>
</svg>
