<svg width="24" height="24" viewBox="0 0 24 24" fill="none" xmlns="http://www.w3.org/2000/svg">
<path d="M19.3608 4.63984L5.83078 18.1698L4.73078 17.3498C4.08078 16.8598 3.55078 15.7998 3.55078 14.9798V6.88984C3.55078 5.75984 4.41078 4.51984 5.46078 4.11984L10.9608 2.05984C11.5308 1.84984 12.4708 1.84984 13.0408 2.05984L18.5408 4.11984C18.8308 4.22984 19.1108 4.40984 19.3608 4.63984Z" fill="currentColor"/>
<path d="M20.451 14.9798C20.451 15.7998 19.921 16.8598 19.271 17.3498L13.771 21.4598C12.791 22.1798 11.211 22.1798 10.231 21.4598L8.47097 20.1498C7.98097 19.7898 7.93096 19.0698 8.36096 18.6398L18.741 8.25983C19.371 7.62983 20.451 8.07983 20.451 8.96983V14.9798Z" fill="currentColor"/>
<path d="M21.7709 2.22988C21.4709 1.92988 20.9809 1.92988 20.6809 2.22988L2.23086 20.6899C1.93086 20.9899 1.93086 21.4799 2.23086 21.7799C2.38086 21.9199 2.57086 21.9999 2.77086 21.9999C2.97086 21.9999 3.16086 21.9199 3.31086 21.7699L21.7709 3.30988C22.0809 3.00988 22.0809 2.52988 21.7709 2.22988Z" fill="currentColor"/>
</svg>
