<svg width="24" height="24" viewBox="0 0 24 24" fill="none" xmlns="http://www.w3.org/2000/svg">
<path d="M18.5408 4.16965L13.0408 2.10965C12.4708 1.89965 11.5408 1.89965 10.9708 2.10965L5.47078 4.16965C4.41078 4.56965 3.55078 5.80965 3.55078 6.93965V15.0396C3.55078 15.8496 4.08078 16.9196 4.73078 17.3996L10.2308 21.5096C11.2008 22.2396 12.7908 22.2396 13.7608 21.5096L19.2608 17.3996C19.9108 16.9096 20.4408 15.8496 20.4408 15.0396V6.93965C20.4508 5.80965 19.5908 4.56965 18.5408 4.16965ZM12.7508 12.8696V15.4996C12.7508 15.9096 12.4108 16.2496 12.0008 16.2496C11.5908 16.2496 11.2508 15.9096 11.2508 15.4996V12.8696C10.2408 12.5496 9.50078 11.6096 9.50078 10.4996C9.50078 9.11965 10.6208 7.99965 12.0008 7.99965C13.3808 7.99965 14.5008 9.11965 14.5008 10.4996C14.5008 11.6196 13.7608 12.5496 12.7508 12.8696Z" fill="currentColor"/>
</svg>
