<svg width="24" height="24" viewBox="0 0 24 24" fill="none" xmlns="http://www.w3.org/2000/svg">
<path d="M16 12.6899V18.0799C16 20.4199 14.44 21.9699 12.11 21.9699H5.89C3.56 21.9699 2 20.4199 2 18.0799V10.3099C2 7.96992 3.56 6.41992 5.89 6.41992H9.72C10.75 6.41992 11.74 6.82992 12.47 7.55992L14.86 9.93992C15.59 10.6699 16 11.6599 16 12.6899Z" fill="currentColor"/>
<path d="M21.9995 8.24973V13.6397C21.9995 15.9697 20.4395 17.5297 18.1095 17.5297H16.9995V12.6897C16.9995 11.3997 16.4795 10.1397 15.5695 9.22973L13.1795 6.84973C12.2695 5.93973 11.0095 5.41973 9.71953 5.41973H8.01953C8.19953 3.33973 9.70953 1.96973 11.8895 1.96973H15.7195C16.7495 1.96973 17.7395 2.37973 18.4695 3.10973L20.8595 5.49973C21.5895 6.22973 21.9995 7.21973 21.9995 8.24973Z" fill="currentColor"/>
</svg>
