<svg width="24" height="24" viewBox="0 0 24 24" fill="none" xmlns="http://www.w3.org/2000/svg">
<path d="M20.8593 8.56028L13.9293 3.02028C12.8593 2.16028 11.1293 2.16028 10.0693 3.01028L3.13929 8.56028C2.35929 9.18028 1.85929 10.4903 2.02929 11.4703L3.35929 19.4303C3.59929 20.8503 4.95929 22.0003 6.39929 22.0003H17.5993C19.0293 22.0003 20.3993 20.8403 20.6393 19.4303L21.9693 11.4703C22.1293 10.4903 21.6293 9.18028 20.8593 8.56028ZM9.37929 17.3803C8.81929 17.3803 8.37929 16.9303 8.37929 16.3803C8.37929 15.8303 8.82929 15.3803 9.37929 15.3803C9.92929 15.3803 10.3793 15.8303 10.3793 16.3803C10.3793 16.9303 9.92929 17.3803 9.37929 17.3803ZM12.3893 17.1203C12.3793 17.1203 12.3793 17.1203 12.3693 17.1203C11.9593 17.1203 11.6293 16.7903 11.6193 16.3903C11.5893 15.0403 10.6993 14.1503 9.34929 14.1203C8.93929 14.1103 8.60929 13.7703 8.61929 13.3503C8.62929 12.9403 8.95929 12.6203 9.36929 12.6203C9.37929 12.6203 9.37929 12.6203 9.38929 12.6203C11.5393 12.6703 13.0793 14.2003 13.1193 16.3503C13.1293 16.7703 12.8093 17.1203 12.3893 17.1203ZM15.3793 17.1203C14.9593 17.1203 14.6293 16.7903 14.6193 16.3803C14.6093 15.7203 14.4993 15.0903 14.2993 14.5003C13.7893 13.0403 12.6993 11.9603 11.2393 11.4403C10.6493 11.2303 10.0193 11.1203 9.35929 11.1203C8.94929 11.1203 8.60929 10.7803 8.61929 10.3603C8.61929 9.95028 8.95929 9.62028 9.36929 9.62028H9.37929C10.2093 9.63028 10.9993 9.77028 11.7393 10.0303C13.6293 10.7003 15.0393 12.1103 15.7093 14.0003C15.9693 14.7403 16.1093 15.5403 16.1193 16.3603C16.1293 16.7803 15.7993 17.1203 15.3793 17.1203Z" fill="currentColor"/>
</svg>
