<svg width="24" height="24" viewBox="0 0 24 24" fill="none" xmlns="http://www.w3.org/2000/svg">
<path d="M18.7109 9.48952C18.6109 9.48952 18.5109 9.46952 18.4109 9.42952C18.0309 9.25952 17.8609 8.81952 18.0209 8.43952C18.2109 8.00952 18.1009 7.37952 17.7509 6.85952C17.4009 6.32952 16.8709 5.96952 16.3909 5.99952C15.9509 5.99952 15.6409 5.66952 15.6309 5.25952C15.6309 4.83952 15.9609 4.50952 16.3709 4.49952C17.4009 4.47952 18.3709 5.06952 19.0009 6.01952C19.6409 6.97952 19.7909 8.12952 19.4009 9.02952C19.2809 9.31952 19.0009 9.48952 18.7109 9.48952Z" fill="currentColor"/>
<path d="M21.8201 10.4803C21.7501 10.4803 21.6901 10.4703 21.6201 10.4503C21.2201 10.3403 20.9901 9.93035 21.1001 9.53035C21.4801 8.17035 21.1601 6.55035 20.2501 5.19035C19.3401 3.83035 17.9601 2.92035 16.5501 2.75035C16.1401 2.70035 15.8501 2.33035 15.9001 1.92035C15.9501 1.51035 16.3301 1.21035 16.7301 1.27035C18.5601 1.49035 20.3401 2.65035 21.4901 4.37035C22.6401 6.09035 23.0301 8.17035 22.5401 9.95035C22.4501 10.2603 22.1501 10.4803 21.8201 10.4803Z" fill="currentColor"/>
<path d="M17.1209 11.78C17.1209 12.08 16.8709 12.33 16.5709 12.33H3.43086C3.13086 12.33 2.88086 12.08 2.88086 11.78C2.88086 11.48 3.13086 11.23 3.43086 11.23H4.17086L4.45086 9.90996C4.71086 8.62996 5.26086 7.45996 7.44086 7.45996H12.5709C14.7509 7.45996 15.2909 8.63996 15.5609 9.90996L15.8409 11.23H16.5809C16.8709 11.23 17.1209 11.48 17.1209 11.78Z" fill="currentColor"/>
<path d="M17.4305 15.9099C17.3205 14.7099 17.0005 13.4199 14.6605 13.4199H5.34053C3.00054 13.4199 2.68053 14.7099 2.57053 15.9099L2.16053 20.3599C2.11053 20.9099 2.29053 21.4699 2.67053 21.8899C3.06053 22.3099 3.60053 22.5499 4.19053 22.5499H5.56053C6.74053 22.5499 6.97053 21.8699 7.12053 21.4299L7.27053 20.9899C7.44054 20.4899 7.48054 20.3599 8.14054 20.3599H11.8805C12.5405 20.3599 12.5605 20.4299 12.7505 20.9899L12.9005 21.4299C13.0505 21.8799 13.2705 22.5499 14.4605 22.5499H15.8305C16.4105 22.5499 16.9605 22.3099 17.3505 21.8899C17.7305 21.4699 17.9105 20.9199 17.8605 20.3599L17.4305 15.9099ZM7.81053 17.4299H5.62053C5.32053 17.4299 5.07053 17.1799 5.07053 16.8799C5.07053 16.5799 5.32053 16.3299 5.62053 16.3299H7.81053C8.11054 16.3299 8.36053 16.5799 8.36053 16.8799C8.36053 17.1799 8.11054 17.4299 7.81053 17.4299ZM14.3805 17.4299H12.1905C11.8905 17.4299 11.6405 17.1799 11.6405 16.8799C11.6405 16.5799 11.8905 16.3299 12.1905 16.3299H14.3805C14.6805 16.3299 14.9305 16.5799 14.9305 16.8799C14.9305 17.1799 14.6805 17.4299 14.3805 17.4299Z" fill="currentColor"/>
</svg>
