<svg width="24" height="24" viewBox="0 0 24 24" fill="none" xmlns="http://www.w3.org/2000/svg">
<path d="M19.4792 2.81973L19.7592 3.38973C19.8992 3.66973 20.2492 3.92973 20.5592 3.98973L20.9392 4.04973C22.0792 4.23973 22.3492 5.07973 21.5292 5.90973L21.1792 6.25973C20.9492 6.49973 20.8192 6.95973 20.8892 7.27973L20.9392 7.48973C21.2492 8.86973 20.5192 9.39973 19.3192 8.67973L19.0592 8.52973C18.7492 8.34973 18.2492 8.34973 17.9392 8.52973L17.6792 8.67973C16.4692 9.40973 15.7392 8.86973 16.0592 7.48973L16.1092 7.27973C16.1792 6.95973 16.0492 6.49973 15.8192 6.25973L15.4692 5.89973C14.6492 5.06973 14.9192 4.22973 16.0592 4.03973L16.4392 3.97973C16.7392 3.92973 17.0992 3.65973 17.2392 3.37973L17.5192 2.80973C18.0592 1.72973 18.9392 1.72973 19.4792 2.81973Z" fill="currentColor"/>
<path d="M21.57 10.09C21.21 10.35 20.2 10.83 18.76 10.09C18.6 10.01 18.4 10 18.24 10.09C17.67 10.38 17.15 10.5 16.74 10.5C16.1 10.5 15.65 10.25 15.43 10.09C15.06 9.82 14.28 9.05 14.55 7.42C14.58 7.25 14.53 7.08 14.42 6.95C13.73 6.16 13.35 5.1 13.62 4.27C13.72 3.94 13.51 3.5 13.17 3.5H7C4 3.5 2 5 2 8.5V15.5C2 19 4 20.5 7 20.5H17C20 20.5 22 19 22 15.5V10.27C22 10.08 21.73 9.98 21.57 10.09ZM14.34 12.09C13.68 12.62 12.84 12.88 12 12.88C11.16 12.88 10.31 12.62 9.66 12.09L6.53 9.59C6.21 9.33 6.16 8.85 6.41 8.53C6.67 8.21 7.14 8.15 7.46 8.41L10.59 10.91C11.35 11.52 12.64 11.52 13.4 10.91C13.72 10.65 14.19 10.7 14.45 11.03C14.72 11.35 14.67 11.83 14.34 12.09Z" fill="currentColor"/>
</svg>
