<svg width="24" height="24" viewBox="0 0 24 24" fill="none" xmlns="http://www.w3.org/2000/svg">
<path d="M14.9991 1.62012H8.99914C5.80914 1.62012 4.61914 2.81012 4.61914 6.00012V18.0001C4.61914 21.1901 5.80914 22.3801 8.99914 22.3801H14.9991C18.1891 22.3801 19.3791 21.1901 19.3791 18.0001V6.00012C19.3791 2.81012 18.1891 1.62012 14.9991 1.62012ZM11.9991 6.00012C12.8291 6.00012 13.4991 6.67012 13.4991 7.50012C13.4991 8.33012 12.8291 9.00012 11.9991 9.00012C11.1691 9.00012 10.4991 8.33012 10.4991 7.50012C10.4991 6.67012 11.1691 6.00012 11.9991 6.00012ZM11.9991 18.0001C10.3391 18.0001 8.99914 16.6601 8.99914 15.0001C8.99914 13.3401 10.3391 12.0001 11.9991 12.0001C13.6591 12.0001 14.9991 13.3401 14.9991 15.0001C14.9991 16.6601 13.6591 18.0001 11.9991 18.0001Z" fill="currentColor"/>
</svg>
