<svg width="24" height="24" viewBox="0 0 24 24" fill="none" xmlns="http://www.w3.org/2000/svg">
<path d="M18.6992 14.4595C18.3492 14.8095 18.1492 15.5095 18.2592 15.9895L18.9492 19.0095C19.2392 20.2595 19.0592 21.1995 18.4392 21.6495C18.1892 21.8295 17.8892 21.9195 17.5392 21.9195C17.0292 21.9195 16.4292 21.7295 15.7692 21.3395L12.8392 19.5995C12.3792 19.3295 11.6192 19.3295 11.1592 19.5995L8.22922 21.3395C7.11922 21.9895 6.16922 22.0995 5.55922 21.6495C5.51922 21.6195 5.47922 21.5895 5.44922 21.5495L18.0692 8.92955C18.5292 8.46955 19.1792 8.25955 19.8192 8.36955L19.9692 8.39955C21.0292 8.57955 21.7392 9.05955 21.9692 9.75955C22.1892 10.4595 21.8892 11.2695 21.1292 12.0295L18.6992 14.4595Z" fill="currentColor"/>
<path d="M5.73937 16C5.84937 15.52 5.64937 14.81 5.29937 14.46L2.86937 12.03C2.10937 11.27 1.80937 10.46 2.02937 9.76C2.25937 9.06 2.96937 8.58 4.02937 8.4L7.14937 7.88C7.59937 7.8 8.14937 7.4 8.35937 6.99L10.0794 3.54C10.5794 2.55 11.2594 2 11.9994 2C12.7394 2 13.4194 2.55 13.9194 3.54L15.6394 6.99C15.7694 7.25 16.0394 7.5 16.3294 7.67L5.06937 18.93L5.73937 16Z" fill="currentColor"/>
<path d="M21.7709 2.22988C21.4709 1.92988 20.9809 1.92988 20.6809 2.22988L2.23086 20.6899C1.93086 20.9899 1.93086 21.4799 2.23086 21.7799C2.38086 21.9199 2.57086 21.9999 2.77086 21.9999C2.97086 21.9999 3.16086 21.9199 3.31086 21.7699L21.7709 3.30988C22.0809 3.00988 22.0809 2.52988 21.7709 2.22988Z" fill="currentColor"/>
</svg>
