<svg width="24" height="24" viewBox="0 0 24 24" fill="none" xmlns="http://www.w3.org/2000/svg">
<path d="M9.00084 14.2197H3.92084C3.31084 14.2197 2.75084 14.5297 2.43084 15.0497C2.11084 15.5597 2.08084 16.1697 2.34084 16.7097C3.57084 19.2297 5.79084 21.2097 8.43084 22.1397C8.61084 22.1997 8.81084 22.2397 9.00084 22.2397C9.35084 22.2397 9.70084 22.1297 10.0008 21.9197C10.4708 21.5897 10.7508 21.0497 10.7508 20.4797L10.7608 15.9797C10.7608 15.5097 10.5808 15.0697 10.2508 14.7397C9.91084 14.4097 9.47084 14.2197 9.00084 14.2197Z" fill="currentColor"/>
<path d="M22.4799 9.6C21.3599 4.68 17.0499 1.25 11.9999 1.25C6.94993 1.25 2.63993 4.68 1.51993 9.6C1.39993 10.12 1.51993 10.65 1.85993 11.07C2.19993 11.49 2.69993 11.73 3.23993 11.73H20.7699C21.3099 11.73 21.8099 11.49 22.1499 11.07C22.4799 10.65 22.5999 10.11 22.4799 9.6Z" fill="currentColor"/>
<path d="M20.06 14.2698L15 14.2598C14.53 14.2598 14.09 14.4398 13.76 14.7698C13.43 15.0998 13.25 15.5398 13.25 16.0098L13.26 20.4898C13.26 21.0598 13.54 21.5998 14.01 21.9298C14.31 22.1398 14.66 22.2498 15.01 22.2498C15.2 22.2498 15.39 22.2198 15.57 22.1498C18.19 21.2298 20.41 19.2598 21.64 16.7698C21.9 16.2398 21.87 15.6198 21.56 15.1198C21.23 14.5798 20.67 14.2698 20.06 14.2698Z" fill="currentColor"/>
</svg>
