<svg width="24" height="24" viewBox="0 0 24 24" fill="none" xmlns="http://www.w3.org/2000/svg">
<path d="M16.42 7.95012C18.86 10.3901 18.86 14.3501 16.42 16.7901C13.98 19.2301 10.02 19.2301 7.58 16.7901C5.14 14.3501 5.14 10.3901 7.58 7.95012C10.02 5.51012 13.98 5.51012 16.42 7.95012Z" fill="currentColor"/>
<path d="M8.24905 22.3899C8.15905 22.3899 8.05905 22.3699 7.96905 22.3399C5.71905 21.4399 3.89905 19.8499 2.67905 17.7499C1.49905 15.6999 1.02905 13.3799 1.33905 11.0199C1.38905 10.6099 1.77905 10.3199 2.17905 10.3699C2.58905 10.4199 2.87905 10.7999 2.82905 11.2099C2.56905 13.2399 2.96905 15.2399 3.97905 16.9999C5.01905 18.7999 6.58906 20.1699 8.51905 20.9399C8.89906 21.0999 9.08905 21.5299 8.93905 21.9199C8.82905 22.2099 8.53905 22.3899 8.24905 22.3899Z" fill="currentColor"/>
<path d="M5.84962 5.23035C5.62962 5.23035 5.40962 5.13035 5.25962 4.94035C4.99962 4.62035 5.05962 4.15035 5.38962 3.89035C7.28962 2.40035 9.57962 1.61035 11.9996 1.61035C14.3596 1.61035 16.6096 2.37035 18.4996 3.81035C18.8296 4.06035 18.8896 4.53035 18.6396 4.86035C18.3896 5.19035 17.9196 5.25035 17.5896 5.00035C15.9596 3.76035 14.0296 3.11035 11.9996 3.11035C9.91962 3.11035 7.94962 3.79035 6.30962 5.07035C6.16962 5.18035 6.00962 5.23035 5.84962 5.23035Z" fill="currentColor"/>
<path d="M15.7507 22.3896C15.4507 22.3896 15.1707 22.2096 15.0507 21.9196C14.9007 21.5396 15.0807 21.0996 15.4707 20.9396C17.4007 20.1596 18.9707 18.7996 20.0107 16.9996C21.0307 15.2396 21.4307 13.2396 21.1607 11.2196C21.1107 10.8096 21.4007 10.4296 21.8107 10.3796C22.2107 10.3296 22.6007 10.6196 22.6507 11.0296C22.9507 13.3796 22.4907 15.7096 21.3107 17.7596C20.1007 19.8596 18.2707 21.4396 16.0207 22.3496C15.9407 22.3696 15.8507 22.3896 15.7507 22.3896Z" fill="currentColor"/>
</svg>
