<svg width="24" height="24" viewBox="0 0 24 24" fill="none" xmlns="http://www.w3.org/2000/svg">
<path d="M10 3.75H11.25V8.5C11.25 8.91 11.59 9.25 12 9.25C12.41 9.25 12.75 8.91 12.75 8.5V3.75H14C14.41 3.75 14.75 3.41 14.75 3C14.75 2.59 14.41 2.25 14 2.25H10C9.59 2.25 9.25 2.59 9.25 3C9.25 3.41 9.59 3.75 10 3.75Z" fill="currentColor"/>
<path d="M14 20.25H12.75V15.5C12.75 15.09 12.41 14.75 12 14.75C11.59 14.75 11.25 15.09 11.25 15.5V20.25H10C9.59 20.25 9.25 20.59 9.25 21C9.25 21.41 9.59 21.75 10 21.75H14C14.41 21.75 14.75 21.41 14.75 21C14.75 20.59 14.41 20.25 14 20.25Z" fill="currentColor"/>
<path d="M2.83036 9.87994C2.95036 9.94994 3.08036 9.97993 3.20036 9.97993C3.46036 9.97993 3.71036 9.84994 3.85036 9.59994L4.48036 8.51994L8.60037 10.8999C8.71037 10.9699 8.84036 10.9999 8.97037 10.9999C9.23036 10.9999 9.48036 10.8699 9.62036 10.6199C9.83036 10.2699 9.70037 9.80994 9.35037 9.59994L5.23036 7.21993L5.85036 6.13993C6.06036 5.77993 5.93036 5.31993 5.58036 5.11993C5.22036 4.90993 4.76036 5.02993 4.56036 5.38993L2.56036 8.84994C2.35036 9.21994 2.47036 9.66994 2.83036 9.87994Z" fill="currentColor"/>
<path d="M21.1704 14.1202C20.8104 13.9102 20.3504 14.0302 20.1504 14.3902L19.5204 15.4702L15.4004 13.1002C15.0404 12.8902 14.5804 13.0202 14.3804 13.3702C14.1704 13.7302 14.3004 14.1902 14.6504 14.3902L18.7604 16.7702L18.1404 17.8502C17.9304 18.2102 18.0604 18.6702 18.4104 18.8702C18.5304 18.9402 18.6604 18.9702 18.7804 18.9702C19.0404 18.9702 19.2904 18.8402 19.4304 18.5902L21.4304 15.1302C21.6504 14.7802 21.5304 14.3302 21.1704 14.1202Z" fill="currentColor"/>
<path d="M18.7707 7.2197L14.6507 9.5997C14.2907 9.8097 14.1707 10.2697 14.3807 10.6197C14.5207 10.8597 14.7707 10.9997 15.0307 10.9997C15.1607 10.9997 15.2907 10.9697 15.4007 10.8997L19.5107 8.5197L20.1407 9.5997C20.2807 9.8397 20.5307 9.9797 20.7907 9.9797C20.9207 9.9797 21.0507 9.9497 21.1607 9.8797C21.5207 9.6697 21.6407 9.2097 21.4307 8.8597L19.4307 5.3997C19.2207 5.0397 18.7607 4.9197 18.4107 5.1297C18.0507 5.3397 17.9307 5.7997 18.1407 6.1497L18.7707 7.2197Z" fill="currentColor"/>
<path d="M5.23036 16.7802L9.34036 14.4002C9.70037 14.1902 9.82036 13.7302 9.61036 13.3802C9.40036 13.0202 8.94036 12.9002 8.59036 13.1102L4.48036 15.4902L3.85036 14.4102C3.64036 14.0502 3.18036 13.9302 2.83036 14.1402C2.47036 14.3502 2.35036 14.8102 2.56036 15.1602L4.56036 18.6202C4.70036 18.8602 4.95036 19.0002 5.21036 19.0002C5.34036 19.0002 5.47036 18.9702 5.58036 18.9002C5.94036 18.6902 6.06036 18.2302 5.85036 17.8802L5.23036 16.7802Z" fill="currentColor"/>
<path d="M15.5 12C15.5 12.64 15.33 13.23 15.03 13.75C14.42 14.8 13.29 15.5 12 15.5C10.71 15.5 9.58 14.8 8.97 13.75C8.67 13.23 8.5 12.64 8.5 12C8.5 11.36 8.67 10.77 8.97 10.25C9.58 9.2 10.71 8.5 12 8.5C13.29 8.5 14.42 9.2 15.03 10.25C15.33 10.77 15.5 11.36 15.5 12Z" fill="currentColor"/>
</svg>
