<svg width="24" height="24" viewBox="0 0 24 24" fill="none" xmlns="http://www.w3.org/2000/svg">
<path d="M17.8796 6.11961L3.9196 20.0796C3.4896 20.5096 2.7696 20.4696 2.4196 19.9796C1.9196 19.2896 1.8196 18.3296 2.3396 17.4996L5.0996 13.0696C5.4696 12.4796 5.4696 11.5196 5.0996 10.9296L2.3396 6.49961C1.4096 5.01961 2.4796 3.09961 4.2196 3.09961H15.6696C16.3496 3.09961 17.1896 3.56961 17.5496 4.13961L18.0196 4.87961C18.2596 5.27961 18.2096 5.78961 17.8796 6.11961Z" fill="currentColor"/>
<path d="M21.6299 13.11L16.4499 20.01C16.0899 20.5 15.2899 20.9 14.6699 20.9H7.50987C6.61987 20.9 6.16987 19.82 6.79987 19.19L18.3199 7.67999C18.7699 7.22999 19.5399 7.30999 19.8799 7.85999L21.7299 10.83C22.1299 11.47 22.0899 12.5 21.6299 13.11Z" fill="currentColor"/>
</svg>
