<svg width="24" height="24" viewBox="0 0 24 24" fill="none" xmlns="http://www.w3.org/2000/svg">
<path d="M17.1907 4.96C17.1907 4.97 17.1907 4.97 17.1907 4.98C16.9407 4.97 16.6907 4.96 16.4207 4.96H8.7207L9.7907 3.9C10.7707 2.91 11.8507 2 13.1007 2C14.3607 2 15.4407 2.91 16.4207 3.9L16.9807 4.46C17.1207 4.59 17.1907 4.77 17.1907 4.96Z" fill="currentColor"/>
<path d="M20.8409 13.1702C21.2309 13.1702 21.5409 12.8502 21.5409 12.4502V11.5702C21.5409 7.6402 20.3409 6.4502 16.4209 6.4502H10.1209H7.58094C3.66094 6.4502 2.46094 7.6502 2.46094 11.5702V12.0002C2.46094 12.4002 2.77094 12.7102 3.16094 12.7102C4.00094 12.7102 4.67094 13.3902 4.67094 14.2202C4.67094 15.0502 4.00094 15.7402 3.16094 15.7402C2.77094 15.7402 2.46094 16.0502 2.46094 16.4502V16.8802C2.46094 20.8102 3.66094 22.0002 7.58094 22.0002H10.1109H16.4109C20.3309 22.0002 21.5309 20.8002 21.5309 16.8802C21.5309 16.4902 21.2209 16.1702 20.8309 16.1702C19.9909 16.1702 19.3209 15.5002 19.3209 14.6702C19.3309 13.8402 20.0009 13.1702 20.8409 13.1702ZM10.8209 18.8602C10.8209 19.2502 10.5009 19.5702 10.1109 19.5702C9.72094 19.5702 9.40094 19.2502 9.40094 18.8602V16.1802C9.40094 15.7902 9.72094 15.4702 10.1109 15.4702C10.5009 15.4702 10.8209 15.7902 10.8209 16.1802V18.8602ZM10.8209 12.2702C10.8209 12.6602 10.5009 12.9802 10.1109 12.9802C9.72094 12.9802 9.40094 12.6602 9.40094 12.2702V9.5902C9.40094 9.2002 9.72094 8.8802 10.1109 8.8802C10.5009 8.8802 10.8209 9.2002 10.8209 9.5902V12.2702Z" fill="currentColor"/>
</svg>
