<svg width="24" height="24" viewBox="0 0 24 24" fill="none" xmlns="http://www.w3.org/2000/svg">
<path d="M16.6506 3.86035H9.91061V6.88035C9.91061 7.27035 9.59061 7.58035 9.21061 7.58035C8.83061 7.58035 8.51061 7.27035 8.51061 6.88035V3.86035H7.35061C3.40061 3.86035 2.10061 5.04035 2.01061 8.73035C2.00061 8.91035 2.08061 9.10035 2.21061 9.23035C2.34061 9.37035 2.51061 9.44035 2.71061 9.44035C4.11061 9.44035 5.26061 10.6004 5.26061 12.0004C5.26061 13.4004 4.11061 14.5604 2.71061 14.5604C2.52061 14.5604 2.34061 14.6304 2.21061 14.7704C2.08061 14.9004 2.00061 15.0904 2.01061 15.2704C2.10061 18.9604 3.40061 20.1404 7.35061 20.1404H8.51061V17.1204C8.51061 16.7304 8.83061 16.4204 9.21061 16.4204C9.59061 16.4204 9.91061 16.7304 9.91061 17.1204V20.1404H16.6506C20.7506 20.1404 22.0006 18.8904 22.0006 14.7904V9.21035C22.0006 5.11035 20.7506 3.86035 16.6506 3.86035ZM18.4706 11.9004L17.5406 12.8004C17.5006 12.8304 17.4906 12.8904 17.5006 12.9404L17.7206 14.2104C17.7606 14.4404 17.6706 14.6804 17.4706 14.8204C17.2806 14.9604 17.0306 14.9804 16.8206 14.8704L15.6706 14.2704C15.6306 14.2504 15.5706 14.2504 15.5306 14.2704L14.3806 14.8704C14.2906 14.9204 14.1906 14.9404 14.0906 14.9404C13.9606 14.9404 13.8406 14.9004 13.7306 14.8204C13.5406 14.6804 13.4406 14.4504 13.4806 14.2104L13.7006 12.9404C13.7106 12.8904 13.6906 12.8404 13.6606 12.8004L12.7306 11.9004C12.5606 11.7404 12.5006 11.4904 12.5706 11.2704C12.6406 11.0404 12.8306 10.8804 13.0706 10.8504L14.3506 10.6604C14.4006 10.6504 14.4406 10.6204 14.4706 10.5804L15.0406 9.42035C15.1506 9.21035 15.3606 9.08035 15.6006 9.08035C15.8406 9.08035 16.0506 9.21035 16.1506 9.42035L16.7206 10.5804C16.7406 10.6304 16.7806 10.6604 16.8306 10.6604L18.1106 10.8504C18.3506 10.8804 18.5406 11.0504 18.6106 11.2704C18.7006 11.4904 18.6406 11.7304 18.4706 11.9004Z" fill="currentColor"/>
</svg>
