<svg width="24" height="24" viewBox="0 0 24 24" fill="none" xmlns="http://www.w3.org/2000/svg">
<path d="M11.2497 3.89961V12.9196C11.2497 13.2496 11.0897 13.5496 10.8197 13.7396L3.60969 18.7896C3.01969 19.1996 2.17969 18.8796 2.04969 18.1696C1.89969 17.3096 2.09969 16.2996 2.69969 15.2096L5.81969 9.59961L8.75969 4.30961C8.98969 3.89961 9.23969 3.53961 9.49969 3.22961C10.0997 2.52961 11.2497 2.97961 11.2497 3.89961Z" fill="currentColor"/>
<path d="M20.39 18.7896L13.18 13.7396C12.91 13.5496 12.75 13.2496 12.75 12.9196V3.89961C12.75 2.97961 13.9 2.52961 14.5 3.22961C14.76 3.53961 15.01 3.89961 15.24 4.30961L18.18 9.59961L21.3 15.2096C21.9 16.2996 22.1 17.3096 21.95 18.1696C21.82 18.8796 20.98 19.1996 20.39 18.7896Z" fill="currentColor"/>
<path d="M5.26018 19.14L11.4102 15.04C11.7402 14.82 12.2802 14.82 12.6102 15.04L18.7602 19.14C20.3902 20.23 20.1202 21.12 18.1602 21.12H5.85018C3.90018 21.11 3.63018 20.22 5.26018 19.14Z" fill="currentColor"/>
</svg>
