<svg width="24" height="24" viewBox="0 0 24 24" fill="none" xmlns="http://www.w3.org/2000/svg">
<path d="M6.36 7.78027H2V11.2503H6.36V7.78027Z" fill="currentColor"/>
<path d="M6.36039 6.28988V2.12988C4.08039 2.54988 2.59039 4.01988 2.15039 6.27988H6.33039C6.34039 6.27988 6.35039 6.28988 6.36039 6.28988Z" fill="currentColor"/>
<path d="M6.36 16.31V12.75H2V16.28H6.24C6.28 16.28 6.32 16.3 6.36 16.31Z" fill="currentColor"/>
<path d="M21.8494 6.27969C21.4194 4.08969 20.0194 2.64969 17.8594 2.17969V6.27969H21.8494Z" fill="currentColor"/>
<path d="M16.3594 11.25V2.01C16.3094 2 16.2494 2 16.1894 2H7.85938V11.25H16.3594Z" fill="currentColor"/>
<path d="M21.9994 12.75H17.8594V16.28H21.9994V12.75Z" fill="currentColor"/>
<path d="M17.8594 21.8203C19.9994 21.3503 21.3994 19.9303 21.8394 17.7803H17.8594V21.8203Z" fill="currentColor"/>
<path d="M6.24016 17.7798H2.16016C2.62016 19.9998 4.10016 21.4498 6.36016 21.8698V17.7598C6.32016 17.7698 6.28016 17.7798 6.24016 17.7798Z" fill="currentColor"/>
<path d="M21.9994 7.78027H17.8594V11.2503H21.9994V7.78027Z" fill="currentColor"/>
<path d="M7.85938 12.75V22H16.1894C16.2494 22 16.3094 22 16.3594 21.99V12.75H7.85938Z" fill="currentColor"/>
</svg>
