<svg width="24" height="24" viewBox="0 0 24 24" fill="none" xmlns="http://www.w3.org/2000/svg">
<path d="M11.25 7.86035H2V16.1904C2 16.2504 2 16.3104 2.01 16.3604H11.25V7.86035Z" fill="currentColor"/>
<path d="M7.68945 6.36H11.2495V2H7.71945V6.24C7.71945 6.28 7.69945 6.32 7.68945 6.36Z" fill="currentColor"/>
<path d="M6.22086 6.24016V2.16016C4.00086 2.62016 2.55086 4.10016 2.13086 6.36016H6.24086C6.23086 6.32016 6.22086 6.28016 6.22086 6.24016Z" fill="currentColor"/>
<path d="M16.22 2H12.75V6.36H16.22V2Z" fill="currentColor"/>
<path d="M17.7109 6.36039H21.8709C21.4509 4.08039 19.9809 2.59039 17.7209 2.15039V6.33039C17.7209 6.34039 17.7109 6.35039 17.7109 6.36039Z" fill="currentColor"/>
<path d="M17.7207 21.8504C19.9107 21.4204 21.3507 20.0204 21.8207 17.8604H17.7207V21.8504Z" fill="currentColor"/>
<path d="M16.22 17.8604H12.75V22.0004H16.22V17.8604Z" fill="currentColor"/>
<path d="M12.75 16.3604H21.99C22 16.3104 22 16.2504 22 16.1904V7.86035H12.75V16.3604Z" fill="currentColor"/>
<path d="M11.2507 17.8604H7.7207V22.0004H11.2507V17.8604Z" fill="currentColor"/>
<path d="M2.17969 17.8604C2.64969 20.0004 4.06969 21.4004 6.21969 21.8404V17.8604H2.17969Z" fill="currentColor"/>
</svg>
