<svg width="24" height="24" viewBox="0 0 24 24" fill="none" xmlns="http://www.w3.org/2000/svg">
<path d="M14.7295 5.86V2.5C14.7295 2.22 14.5095 2 14.2295 2H9.76953C9.48953 2 9.26953 2.22 9.26953 2.5V5.86C9.26953 6.14 9.48953 6.36 9.76953 6.36H14.2295C14.5095 6.36 14.7295 6.14 14.7295 5.86Z" fill="currentColor"/>
<path d="M7.25047 2.01972C4.69047 2.17972 2.94047 3.49972 2.29047 5.69972C2.19047 6.02972 2.43047 6.35972 2.77047 6.35972H7.27047C7.55047 6.35972 7.77047 6.13972 7.77047 5.85972V2.51972C7.77047 2.23972 7.53047 1.99972 7.25047 2.01972Z" fill="currentColor"/>
<path d="M16.7505 2.00996C19.3105 2.16996 21.0605 3.48996 21.7105 5.68996C21.8105 6.01996 21.5705 6.34996 21.2305 6.34996H16.7305C16.4505 6.34996 16.2305 6.12996 16.2305 5.84996V2.50996C16.2305 2.22996 16.4705 1.98996 16.7505 2.00996Z" fill="currentColor"/>
<path d="M22 15.7C22 15.69 21.99 15.68 21.98 15.67C21.94 15.61 21.89 15.55 21.84 15.5C21.83 15.49 21.82 15.47 21.81 15.46C21 14.56 19.81 14 18.5 14C17.24 14 16.09 14.52 15.27 15.36C14.48 16.17 14 17.28 14 18.5C14 19.34 14.24 20.14 14.65 20.82C14.87 21.19 15.15 21.53 15.47 21.81C15.49 21.82 15.5 21.83 15.51 21.84C15.56 21.89 15.61 21.93 15.67 21.98C15.67 21.98 15.67 21.98 15.68 21.98C15.69 21.99 15.7 22 15.71 22C16.46 22.63 17.43 23 18.5 23C20.14 23 21.57 22.12 22.35 20.82C22.58 20.43 22.76 20 22.87 19.55C22.96 19.21 23 18.86 23 18.5C23 17.44 22.63 16.46 22 15.7ZM20.18 19.23H19.25V20.2C19.25 20.61 18.91 20.95 18.5 20.95C18.09 20.95 17.75 20.61 17.75 20.2V19.23H16.82C16.41 19.23 16.07 18.89 16.07 18.48C16.07 18.07 16.41 17.73 16.82 17.73H17.75V16.84C17.75 16.43 18.09 16.09 18.5 16.09C18.91 16.09 19.25 16.43 19.25 16.84V17.73H20.18C20.59 17.73 20.93 18.07 20.93 18.48C20.93 18.89 20.6 19.23 20.18 19.23Z" fill="currentColor"/>
<path d="M22 8.36035V12.7404C22 13.1104 21.61 13.3504 21.28 13.1804C20.44 12.7404 19.48 12.5004 18.5 12.5004C16.89 12.5004 15.32 13.1604 14.2 14.3104C13.1 15.4304 12.5 16.9204 12.5 18.5004C12.5 19.3104 12.82 20.3504 13.22 21.2204C13.38 21.5704 13.14 22.0004 12.75 22.0004H7.81C4.6 22.0004 2 19.4004 2 16.1904V8.36035C2 8.08035 2.22 7.86035 2.5 7.86035H21.5C21.78 7.86035 22 8.08035 22 8.36035Z" fill="currentColor"/>
</svg>
