<svg width="24" height="24" viewBox="0 0 24 24" fill="none" xmlns="http://www.w3.org/2000/svg">
<path opacity="0.4" d="M17.7405 7.57031C17.7505 7.64031 17.7505 7.72031 17.7405 7.79031C17.7405 7.72031 17.7305 7.65031 17.7305 7.58031L17.7405 7.57031Z" fill="currentColor"/>
<path d="M17.2809 6.56L3.83086 20.01C2.43086 19.12 1.88086 17.53 1.88086 16V8C1.88086 4.58 3.21086 3.25 6.63086 3.25H12.6309C15.5209 3.25 16.9109 4.2 17.2809 6.56Z" fill="currentColor"/>
<path d="M21.4 2.22988C21.1 1.92988 20.61 1.92988 20.31 2.22988L1.85 20.6899C1.55 20.9899 1.55 21.4799 1.85 21.7799C2 21.9199 2.2 21.9999 2.39 21.9999C2.59 21.9999 2.78 21.9199 2.93 21.7699L21.4 3.30988C21.7 3.00988 21.7 2.52988 21.4 2.22988Z" fill="currentColor"/>
<path d="M22.3802 8.38047V15.6205C22.3802 17.0505 21.6802 17.6205 21.2802 17.8305C21.0902 17.9305 20.7902 18.0405 20.4202 18.0405C19.9902 18.0405 19.4602 17.9005 18.8402 17.4605L17.3602 16.4205C17.2902 18.6305 16.5902 19.8905 15.0002 20.4205C14.3602 20.6505 13.5702 20.7505 12.6202 20.7505H6.62016C6.38016 20.7505 6.15016 20.7405 5.91016 20.7105L15.0002 11.6305L20.6502 5.98047C20.9102 6.00047 21.1202 6.08047 21.2802 6.17047C21.6802 6.38047 22.3802 6.95047 22.3802 8.38047Z" fill="currentColor"/>
</svg>
