<svg width="100%" height="100%" viewBox="0 0 24 25" fill="none" xmlns="http://www.w3.org/2000/svg">
<path d="M13.8176 15.8205C13.5121 15.8205 13.3005 15.6042 13.3005 15.2845V10.0144H13.277L12.1064 10.8324C12.0029 10.9077 11.9089 10.9406 11.7914 10.9406C11.561 10.9406 11.3965 10.776 11.3965 10.5363C11.3965 10.3623 11.4623 10.2401 11.6598 10.1037L13.0701 9.10238C13.3569 8.90022 13.5121 8.85791 13.7377 8.85791C14.1091 8.85791 14.3301 9.07887 14.3301 9.44557V15.2845C14.3301 15.6042 14.1185 15.8205 13.8176 15.8205Z" fill="currentColor"/>
<path d="M6.88115 15.7317C6.56146 15.7317 6.38281 15.553 6.38281 15.2897C6.38281 15.0829 6.44393 14.9701 6.67429 14.7397L8.79456 12.5959C9.6784 11.6933 9.89465 11.3454 9.89465 10.8047C9.89465 10.1607 9.39632 9.69053 8.71464 9.69053C8.04706 9.69053 7.58634 10.0337 7.35127 10.6966C7.25725 10.9082 7.13501 11.0351 6.87644 11.0351C6.58027 11.0351 6.41102 10.8517 6.41102 10.5885C6.41102 10.5086 6.42042 10.438 6.43923 10.3675C6.58497 9.65292 7.37008 8.8208 8.71934 8.8208C10.0169 8.8208 10.9336 9.62002 10.9336 10.7389C10.9336 11.5099 10.5716 12.0553 9.42923 13.1977L7.812 14.8196V14.8431H10.6281C10.9148 14.8431 11.0935 15.0218 11.0935 15.2897C11.0935 15.553 10.9148 15.7317 10.6281 15.7317H6.88115Z" fill="currentColor"/>
<path d="M17.9957 14.7616C17.7052 14.7616 17.5243 14.5639 17.5243 14.279V12.7714H16.0432C15.7527 12.7714 15.5527 12.6013 15.5527 12.3256C15.5527 12.0498 15.7527 11.8751 16.0432 11.8751H17.5243V10.363C17.5243 10.078 17.7052 9.88037 17.9957 9.88037C18.2814 9.88037 18.4624 10.078 18.4624 10.363V11.8751H19.9387C20.2292 11.8751 20.4339 12.0498 20.4339 12.3256C20.4339 12.6013 20.2292 12.7714 19.9387 12.7714H18.4624V14.279C18.4624 14.5639 18.2814 14.7616 17.9957 14.7616Z" fill="currentColor"/>
<path d="M1.75 15.3208C1.75 14.9066 2.08579 14.5708 2.5 14.5708C2.91421 14.5708 3.25 14.9066 3.25 15.3208C3.25 17.7468 3.73974 19.25 4.65527 20.1655C5.5708 21.0811 7.07397 21.5708 9.5 21.5708C9.91421 21.5708 10.25 21.9066 10.25 22.3208C10.25 22.735 9.91421 23.0708 9.5 23.0708C6.92603 23.0708 4.9292 22.5605 3.59473 21.2261C2.26026 19.8916 1.75 17.8948 1.75 15.3208ZM21.75 15.3208C21.75 14.9066 22.0858 14.5708 22.5 14.5708C22.9142 14.5708 23.25 14.9066 23.25 15.3208C23.25 17.8948 22.7397 19.8916 21.4053 21.2261C20.0708 22.5605 18.074 23.0708 15.5 23.0708C15.0858 23.0708 14.75 22.735 14.75 22.3208C14.75 21.9066 15.0858 21.5708 15.5 21.5708C17.926 21.5708 19.4292 21.0811 20.3447 20.1655C21.2603 19.25 21.75 17.7468 21.75 15.3208ZM1.75 9.3208C1.75 6.74683 2.26026 4.75 3.59473 3.41553C4.9292 2.08106 6.92603 1.5708 9.5 1.5708C9.91421 1.5708 10.25 1.90659 10.25 2.3208C10.25 2.73501 9.91421 3.0708 9.5 3.0708C7.07397 3.0708 5.5708 3.56054 4.65527 4.47607C3.73974 5.39161 3.25 6.89477 3.25 9.3208C3.25 9.73501 2.91421 10.0708 2.5 10.0708C2.08579 10.0708 1.75 9.73501 1.75 9.3208ZM21.75 9.3208C21.75 6.89477 21.2603 5.39161 20.3447 4.47607C19.4292 3.56054 17.926 3.0708 15.5 3.0708C15.0858 3.0708 14.75 2.73501 14.75 2.3208C14.75 1.90659 15.0858 1.5708 15.5 1.5708C18.074 1.5708 20.0708 2.08106 21.4053 3.41553C22.7397 4.75 23.25 6.74683 23.25 9.3208C23.25 9.73501 22.9142 10.0708 22.5 10.0708C22.0858 10.0708 21.75 9.73501 21.75 9.3208Z" fill="currentColor"/>
</svg>
