<svg width="100%" height="100%" viewBox="0 0 25 25" fill="none" xmlns="http://www.w3.org/2000/svg">
<path d="M11.7211 15.7427C10.2247 15.7427 9.16797 14.9337 9.16797 13.7928C9.16797 12.9324 9.77585 12.2544 10.6643 12.0626V12.0393C9.9021 11.8242 9.41112 11.249 9.41112 10.5336C9.41112 9.50019 10.3837 8.74268 11.7211 8.74268C13.0631 8.74268 14.0217 9.49551 14.0217 10.5383C14.0217 11.2443 13.54 11.8148 12.7779 12.0393V12.0626C13.6663 12.259 14.2742 12.9371 14.2742 13.7928C14.2742 14.9384 13.2127 15.7427 11.7211 15.7427ZM11.7211 11.6886C12.4599 11.6886 12.9883 11.249 12.9883 10.6318C12.9883 10.0099 12.4646 9.57501 11.7211 9.57501C10.9729 9.57501 10.4539 10.0099 10.4539 10.6318C10.4539 11.249 10.9729 11.6886 11.7211 11.6886ZM11.7211 14.901C12.5815 14.901 13.1893 14.4053 13.1893 13.718C13.1893 13.0212 12.5815 12.5303 11.7211 12.5303C10.8607 12.5303 10.2481 13.0259 10.2481 13.718C10.2481 14.4053 10.8607 14.901 11.7211 14.901Z" fill="currentColor"/>
<path d="M7.50776 15.705C7.20382 15.705 6.9934 15.4899 6.9934 15.1719V9.93009H6.97002L5.80569 10.7437C5.70282 10.8185 5.6093 10.8513 5.49239 10.8513C5.26327 10.8513 5.09961 10.6876 5.09961 10.4491C5.09961 10.2761 5.16507 10.1545 5.36147 10.0189L6.76427 9.02294C7.04951 8.82187 7.20382 8.77979 7.42827 8.77979C7.79767 8.77979 8.01745 8.99956 8.01745 9.36429V15.1719C8.01745 15.4899 7.80702 15.705 7.50776 15.705Z" fill="currentColor"/>
<path d="M17.9181 14.6699C17.6292 14.6699 17.4492 14.4734 17.4492 14.1899V12.6905H15.9761C15.6872 12.6905 15.4883 12.5213 15.4883 12.247C15.4883 11.9727 15.6872 11.799 15.9761 11.799H17.4492V10.295C17.4492 10.0115 17.6292 9.81494 17.9181 9.81494C18.2023 9.81494 18.3823 10.0115 18.3823 10.295V11.799H19.8507C20.1396 11.799 20.3433 11.9727 20.3433 12.247C20.3433 12.5213 20.1396 12.6905 19.8507 12.6905H18.3823V14.1899C18.3823 14.4734 18.2023 14.6699 17.9181 14.6699Z" fill="currentColor"/>
<path d="M1.75 15.2451C1.75 14.8309 2.08579 14.4951 2.5 14.4951C2.91421 14.4951 3.25 14.8309 3.25 15.2451C3.25 17.6711 3.73974 19.1743 4.65527 20.0898C5.5708 21.0054 7.07397 21.4951 9.5 21.4951C9.91421 21.4951 10.25 21.8309 10.25 22.2451C10.25 22.6593 9.91421 22.9951 9.5 22.9951C6.92603 22.9951 4.9292 22.4849 3.59473 21.1504C2.26026 19.8159 1.75 17.8191 1.75 15.2451ZM21.75 15.2451C21.75 14.8309 22.0858 14.4951 22.5 14.4951C22.9142 14.4951 23.25 14.8309 23.25 15.2451C23.25 17.8191 22.7397 19.8159 21.4053 21.1504C20.0708 22.4849 18.074 22.9951 15.5 22.9951C15.0858 22.9951 14.75 22.6593 14.75 22.2451C14.75 21.8309 15.0858 21.4951 15.5 21.4951C17.926 21.4951 19.4292 21.0054 20.3447 20.0898C21.2603 19.1743 21.75 17.6711 21.75 15.2451ZM1.75 9.24512C1.75 6.67114 2.26026 4.67431 3.59473 3.33984C4.9292 2.00538 6.92603 1.49512 9.5 1.49512C9.91421 1.49512 10.25 1.8309 10.25 2.24512C10.25 2.65933 9.91421 2.99512 9.5 2.99512C7.07397 2.99512 5.5708 3.48486 4.65527 4.40039C3.73974 5.31592 3.25 6.81909 3.25 9.24512C3.25 9.65933 2.91421 9.99512 2.5 9.99512C2.08579 9.99512 1.75 9.65933 1.75 9.24512ZM21.75 9.24512C21.75 6.81909 21.2603 5.31592 20.3447 4.40039C19.4292 3.48486 17.926 2.99512 15.5 2.99512C15.0858 2.99512 14.75 2.65933 14.75 2.24512C14.75 1.8309 15.0858 1.49512 15.5 1.49512C18.074 1.49512 20.0708 2.00538 21.4053 3.33984C22.7397 4.67431 23.25 6.67114 23.25 9.24512C23.25 9.65933 22.9142 9.99512 22.5 9.99512C22.0858 9.99512 21.75 9.65933 21.75 9.24512Z" fill="currentColor"/>
</svg>
