<svg width="24" height="24" viewBox="0 0 24 24" fill="none" xmlns="http://www.w3.org/2000/svg">
<path d="M14.1297 11.3401C14.5197 9.70008 13.0897 8.27003 11.4497 8.66003C10.6797 8.85003 10.0497 9.48005 9.85974 10.2501C9.46974 11.8901 10.8997 13.32 12.5397 12.93C13.3197 12.74 13.9497 12.1101 14.1297 11.3401Z" stroke="currentColor" stroke-width="1.5" stroke-linecap="round" stroke-linejoin="round"/>
<path d="M18.0109 17.19C19.7209 15.59 20.7909 13.32 20.7909 10.79C20.7909 5.92998 16.8509 2 12.0009 2C7.15093 2 3.21094 5.93998 3.21094 10.79C3.21094 13.33 4.29094 15.62 6.02094 17.22" stroke="currentColor" stroke-width="1.5" stroke-linecap="round" stroke-linejoin="round"/>
<path d="M7.99977 14.5498C7.07977 13.5698 6.50977 12.2498 6.50977 10.7898C6.50977 7.75979 8.96977 5.2998 11.9998 5.2998C15.0298 5.2998 17.4898 7.75979 17.4898 10.7898C17.4898 12.2498 16.9198 13.5598 15.9998 14.5498" stroke="currentColor" stroke-width="1.5" stroke-linecap="round" stroke-linejoin="round"/>
<path d="M10.3007 16.6598L8.86071 18.4498C7.72071 19.8798 8.73071 21.9898 10.5607 21.9898H13.4307C15.2607 21.9898 16.2807 19.8698 15.1307 18.4498L13.6907 16.6598C12.8307 15.5698 11.1707 15.5698 10.3007 16.6598Z" stroke="currentColor" stroke-width="1.5" stroke-linecap="round" stroke-linejoin="round"/>
</svg>
