<svg width="100%" height="100%" viewBox="0 0 27 25" fill="none" xmlns="http://www.w3.org/2000/svg">
<path fill-rule="evenodd" clip-rule="evenodd" d="M21.3625 14.2186C22.5182 14.0161 23.836 14.2091 24.7941 14.8448L24.7951 14.8455C25.4499 15.2821 25.8529 15.9146 25.8529 16.6198C25.8529 17.3249 25.4501 17.9573 24.7956 18.3938C23.8446 19.0305 22.5423 19.223 21.3893 19.0294C21.0787 18.9772 20.8693 18.6832 20.9214 18.3727C20.9735 18.0622 21.2675 17.8527 21.5781 17.9048C22.5078 18.0609 23.501 17.8885 24.1615 17.4461L24.1626 17.4454C24.5796 17.1673 24.7126 16.8573 24.7126 16.6198C24.7126 16.3825 24.5797 16.0726 24.1631 15.7946C23.4943 15.3511 22.4862 15.1794 21.5592 15.3418C21.2491 15.3961 20.9536 15.1887 20.8993 14.8785C20.8449 14.5684 21.0523 14.2729 21.3625 14.2186Z" fill="currentColor"/>
<path fill-rule="evenodd" clip-rule="evenodd" d="M3.22494 15.7951C3.89373 15.3516 4.90183 15.1799 5.82879 15.3422C6.13895 15.3966 6.43443 15.1892 6.48877 14.879C6.5431 14.5689 6.33572 14.2734 6.02556 14.2191C4.86982 14.0166 3.552 14.2096 2.59397 14.8453L2.59397 14.8453L2.59295 14.846C1.93813 15.2825 1.53516 15.9151 1.53516 16.6203C1.53516 17.3253 1.9379 17.9577 2.5924 18.3943C3.54338 19.031 4.84572 19.2234 5.99877 19.0299C6.3093 18.9777 6.51878 18.6837 6.46665 18.3732C6.41451 18.0627 6.12051 17.8532 5.80997 17.9053C4.88028 18.0614 3.88709 17.889 3.2265 17.4465L3.22547 17.4459C2.80841 17.1678 2.67545 16.8577 2.67545 16.6203C2.67545 16.383 2.8083 16.0731 3.22494 15.7951Z" fill="currentColor"/>
<path fill-rule="evenodd" clip-rule="evenodd" d="M13.6373 13.0913C15.1029 13.0913 16.5975 13.4591 17.7526 14.2304C18.7912 14.9215 19.3863 15.8904 19.3863 16.9331C19.3863 17.9756 18.7915 18.9461 17.7536 19.6409L17.7534 19.641C16.5947 20.4163 15.0981 20.7864 13.6316 20.7864C12.1655 20.7864 10.6691 20.4165 9.51055 19.6415C8.47199 18.9504 7.87695 17.9815 7.87695 16.9388C7.87695 15.8964 8.47176 14.9258 9.50969 14.231L9.51178 14.2296C10.6737 13.4592 12.1713 13.0913 13.6373 13.0913ZM10.143 15.1793C9.34199 15.7159 9.01724 16.3642 9.01724 16.9388C9.01724 17.5133 9.34185 18.1597 10.1427 18.6925L10.1439 18.6933C11.0757 19.3168 12.3386 19.6461 13.6316 19.6461C14.9246 19.6461 16.1875 19.3168 17.1193 18.6933C17.921 18.1566 18.246 17.508 18.246 16.9331C18.246 16.3587 17.9214 15.7123 17.1206 15.1795L17.1197 15.1789C16.192 14.5593 14.931 14.2316 13.6373 14.2316C12.3443 14.2316 11.0791 14.559 10.143 15.1793Z" fill="currentColor"/>
<path fill-rule="evenodd" clip-rule="evenodd" d="M0.695312 8.64551C0.695312 8.36937 0.91917 8.14551 1.19531 8.14551H26.1953C26.4715 8.14551 26.6953 8.36937 26.6953 8.64551C26.6953 8.92165 26.4715 9.14551 26.1953 9.14551H1.19531C0.91917 9.14551 0.695312 8.92165 0.695312 8.64551Z" fill="currentColor"/>
<path fill-rule="evenodd" clip-rule="evenodd" d="M10.8816 7.54541C11.2797 6.48316 12.3029 5.72672 13.5088 5.72672C14.7094 5.72672 15.7354 6.4835 16.1351 7.54541H17.3297C16.8911 5.84466 15.3456 4.58643 13.5088 4.58643C11.665 4.58643 10.1244 5.84511 9.6875 7.54541H10.8816ZM10.9773 9.74541H9.75263C10.2482 11.2868 11.6638 12.4123 13.3604 12.4693C13.384 12.4701 13.4077 12.4694 13.4312 12.4673C13.4823 12.4627 13.537 12.4631 13.5737 12.4668C13.5989 12.4693 13.6243 12.4702 13.6496 12.4693C15.3469 12.4123 16.7619 11.2863 17.2612 9.74541H16.0355C15.6007 10.6491 14.6996 11.2809 13.6434 11.3284C13.5535 11.3219 13.4582 11.3222 13.3681 11.3285C12.3105 11.2815 11.4094 10.6491 10.9773 9.74541Z" fill="currentColor"/>
<path d="M24.415 9.74561C24.6168 10.1093 24.7324 10.5271 24.7324 10.9712V10.9751C24.7227 12.3426 23.6462 13.4533 22.29 13.5024C22.2591 13.5036 22.228 13.5025 22.1973 13.4985C22.1665 13.5025 22.1355 13.5036 22.1045 13.5024C20.7491 13.4533 19.6699 12.3426 19.6699 10.9712C19.67 10.5258 19.7848 10.1085 19.9854 9.74561H21.54C21.1043 9.97966 20.8097 10.4389 20.8096 10.9712C20.8096 11.7146 21.3817 12.3139 22.1055 12.3608C22.1662 12.3555 22.2284 12.3555 22.2891 12.3608C23.0116 12.3139 23.5864 11.7155 23.5928 10.9692C23.5919 10.4411 23.2957 9.98041 22.8594 9.74561H24.415Z" fill="currentColor"/>
<path d="M7.40723 9.74561C7.60779 10.1085 7.72262 10.5258 7.72266 10.9712C7.72266 12.3426 6.64351 13.4533 5.28809 13.5024C5.25712 13.5036 5.22603 13.5025 5.19531 13.4985C5.16458 13.5025 5.13353 13.5036 5.10254 13.5024C3.74641 13.4533 2.66992 12.3426 2.66016 10.9751V10.9712C2.66019 10.5271 2.7758 10.1093 2.97754 9.74561H4.53418C4.09748 9.98032 3.80158 10.4409 3.80078 10.9692C3.80715 11.7155 4.38102 12.3139 5.10352 12.3608C5.16419 12.3555 5.22643 12.3555 5.28711 12.3608C6.01089 12.3139 6.58301 11.7146 6.58301 10.9712C6.58294 10.4389 6.28832 9.97965 5.85254 9.74561H7.40723Z" fill="currentColor"/>
</svg>
