<svg width="24" height="24" viewBox="0 0 24 24" fill="none" xmlns="http://www.w3.org/2000/svg">
<path d="M6.10004 15.5999L11.7 5.9999C11.9 5.6999 12.3 5.6999 12.5 5.9999L14 7.9999C14.4 8.5999 14.5 9.3999 14.1 9.9999L10.8 15.2999C10.5 15.7999 9.90004 16.1999 9.30004 16.1999H6.40004C6.10004 16.2999 5.90004 15.8999 6.10004 15.5999Z" stroke="currentColor" stroke-width="1.5" stroke-miterlimit="10" stroke-linecap="round" stroke-linejoin="round"/>
<path d="M15.1992 12.3998L13.2992 15.5998C13.0992 15.8998 13.2992 16.2998 13.6992 16.2998H17.4992C17.8992 16.2998 18.0992 15.8998 17.8992 15.5998L15.9992 12.3998C15.7992 12.0998 15.3992 12.0998 15.1992 12.3998Z" stroke="currentColor" stroke-width="1.5" stroke-miterlimit="10" stroke-linecap="round" stroke-linejoin="round"/>
<path d="M12 22C17.5228 22 22 17.5228 22 12C22 6.47715 17.5228 2 12 2C6.47715 2 2 6.47715 2 12C2 17.5228 6.47715 22 12 22Z" stroke="currentColor" stroke-width="1.5" stroke-miterlimit="10"/>
</svg>
