<svg width="24" height="24" viewBox="0 0 24 24" fill="none" xmlns="http://www.w3.org/2000/svg">
<path d="M11.4004 2.4L6.30039 7.5C6.10039 7.7 6.10039 8 6.30039 8.2L8.00039 9.9C8.20039 10.1 8.50039 10.1 8.70039 9.9L13.8004 4.8C14.0004 4.6 14.0004 4.3 13.8004 4.1L12.1004 2.4C11.9004 2.2 11.6004 2.2 11.4004 2.4Z" stroke="currentColor" stroke-width="1.5" stroke-miterlimit="10" stroke-linecap="round" stroke-linejoin="round"/>
<path d="M15.3004 6.2999L6.30039 15.2999C6.10039 15.4999 6.10039 15.7999 6.30039 15.9999L8.00039 17.6999C8.20039 17.8999 8.50039 17.8999 8.70039 17.6999L17.7004 8.6999C17.9004 8.4999 17.9004 8.1999 17.7004 7.9999L16.0004 6.2999C15.8004 6.0999 15.5004 6.0999 15.3004 6.2999Z" stroke="currentColor" stroke-width="1.5" stroke-miterlimit="10" stroke-linecap="round" stroke-linejoin="round"/>
<path d="M19.2008 10.1998L10.2008 19.1998C10.0008 19.3998 10.0008 19.6998 10.2008 19.8998L11.9008 21.5998C12.1008 21.7998 12.4008 21.7998 12.6008 21.5998L21.6008 12.5998C21.8008 12.3998 21.8008 12.0998 21.6008 11.8998L19.9008 10.1998C19.7008 9.9998 19.4008 9.9998 19.2008 10.1998Z" stroke="currentColor" stroke-width="1.5" stroke-miterlimit="10" stroke-linecap="round" stroke-linejoin="round"/>
<path d="M4.1 13.7998L2.4 12.0998C2.2 11.8998 2.2 11.5998 2.4 11.3998L4.1 9.6998C4.3 9.4998 4.6 9.4998 4.8 9.6998L6.5 11.3998C6.7 11.5998 6.7 11.8998 6.5 12.0998L4.8 13.7998C4.6 13.9998 4.3 13.9998 4.1 13.7998Z" stroke="currentColor" stroke-width="1.5" stroke-miterlimit="10" stroke-linecap="round" stroke-linejoin="round"/>
</svg>
