<svg width="100%" height="100%" viewBox="0 0 25 25" fill="none" xmlns="http://www.w3.org/2000/svg">
<path d="M1.75 15.1694C1.75 14.7552 2.08579 14.4194 2.5 14.4194C2.91421 14.4194 3.25 14.7552 3.25 15.1694C3.25 17.5955 3.73974 19.0986 4.65527 20.0142C5.5708 20.9297 7.07397 21.4194 9.5 21.4194C9.91421 21.4194 10.25 21.7552 10.25 22.1694C10.25 22.5836 9.91421 22.9194 9.5 22.9194C6.92603 22.9194 4.9292 22.4092 3.59473 21.0747C2.26026 19.7402 1.75 17.7434 1.75 15.1694ZM21.75 15.1694C21.75 14.7552 22.0858 14.4194 22.5 14.4194C22.9142 14.4194 23.25 14.7552 23.25 15.1694C23.25 17.7434 22.7397 19.7402 21.4053 21.0747C20.0708 22.4092 18.074 22.9194 15.5 22.9194C15.0858 22.9194 14.75 22.5836 14.75 22.1694C14.75 21.7552 15.0858 21.4194 15.5 21.4194C17.926 21.4194 19.4292 20.9297 20.3447 20.0142C21.2603 19.0986 21.75 17.5955 21.75 15.1694ZM1.75 9.16943C1.75 6.59546 2.26026 4.59863 3.59473 3.26416C4.9292 1.92969 6.92603 1.41943 9.5 1.41943C9.91421 1.41943 10.25 1.75522 10.25 2.16943C10.25 2.58365 9.91421 2.91943 9.5 2.91943C7.07397 2.91943 5.5708 3.40918 4.65527 4.32471C3.73974 5.24024 3.25 6.74341 3.25 9.16943C3.25 9.58365 2.91421 9.91943 2.5 9.91943C2.08579 9.91943 1.75 9.58365 1.75 9.16943ZM21.75 9.16943C21.75 6.74341 21.2603 5.24024 20.3447 4.32471C19.4292 3.40918 17.926 2.91943 15.5 2.91943C15.0858 2.91943 14.75 2.58365 14.75 2.16943C14.75 1.75522 15.0858 1.41943 15.5 1.41943C18.074 1.41943 20.0708 1.92969 21.4053 3.26416C22.7397 4.59863 23.25 6.59546 23.25 9.16943C23.25 9.58365 22.9142 9.91943 22.5 9.91943C22.0858 9.91943 21.75 9.58365 21.75 9.16943Z" fill="currentColor"/>
<path d="M13.3369 6.00586C15.07 6.04332 16.5741 6.71227 16.6445 6.74512H16.6436L17.0615 6.93457L17.1924 6.99414L17.0918 7.0957L16.3926 7.80176C16.8149 8.24444 17.2373 8.99897 17.2373 9.86816V12.1436L17.2402 12.1406V14.9209C17.2402 15.2098 17.1196 15.4871 16.9092 15.6846L14.3916 18.04V18.041C14.2756 18.1485 14.1259 18.207 13.9697 18.207H11.3574C11.2008 18.207 11.0506 18.1522 10.9355 18.043L8.41699 15.6865C8.2063 15.4913 8.08691 15.2119 8.08691 14.9238V12.5537L8.07129 12.4639V12.4629C8.0578 12.3783 7.74752 10.3575 8.0752 8.79785C8.19488 7.97536 8.51082 7.38689 9.02832 7.11035H9.0293C9.44398 6.89112 9.86288 6.93965 10.125 7.00781C10.5221 6.68905 11.4982 6.04848 12.9883 6.00781L13.3369 6.00586ZM10.7109 10.124C10.5058 10.437 10.1893 10.9321 9.9541 11.3418C9.68568 11.8086 9.17252 12.3209 8.91504 12.5635V14.9238C8.91504 14.9818 8.93889 15.0378 8.98047 15.0762L11.4365 17.375H13.8877L16.3438 15.0762L16.3711 15.0439C16.3955 15.0094 16.4092 14.9673 16.4092 14.9238V12.4785C16.2975 12.1729 16.068 11.6597 15.7607 11.2031C15.6044 10.9709 15.4299 10.7559 15.2432 10.5908C15.0559 10.4254 14.8614 10.3145 14.665 10.2803C14.3364 10.2228 14.1334 10.3145 13.8428 10.4463C13.5706 10.5694 13.2514 10.7168 12.8086 10.7148L12.6113 10.7041C11.8855 10.6328 11.1314 10.322 10.7109 10.124ZM13.0098 6.84473C12.2089 6.86627 11.5833 7.10071 11.1582 7.3291C10.9459 7.44321 10.7834 7.55603 10.6748 7.63965C10.6206 7.68138 10.5797 7.71648 10.5527 7.74023C10.5393 7.75211 10.5289 7.76152 10.5225 7.76758C10.5193 7.77054 10.5171 7.77302 10.5156 7.77441H10.5137L10.3564 7.93457L10.3066 7.98535L10.2422 7.9541L10.0381 7.85547V7.85449C10.0373 7.85413 10.0355 7.85408 10.0342 7.85352C10.0301 7.85177 10.0238 7.84887 10.0156 7.8457C9.99867 7.83916 9.97359 7.83027 9.94238 7.82129C9.87903 7.80308 9.79226 7.78516 9.69824 7.78516C9.60384 7.78517 9.5048 7.80262 9.41504 7.85254L9.41406 7.85352C9.17428 7.98295 8.98192 8.34065 8.89258 8.93945V8.94434L8.89062 8.9541C8.71546 9.78382 8.74689 10.7907 8.80176 11.4922C8.96785 11.3072 9.1306 11.1066 9.2334 10.9268C9.61883 10.2524 10.1978 9.39184 10.2227 9.35547L10.3818 9.11719L10.4326 9.04102L10.5137 9.08496L10.7598 9.2207C10.7761 9.22895 11.8003 9.78749 12.6914 9.87598C13.015 9.90864 13.2264 9.81055 13.499 9.68652C13.827 9.5373 14.2214 9.3542 14.8057 9.45605C15.4786 9.57364 16.0139 10.1152 16.4043 10.6787V9.86816C16.4043 9.45166 16.2658 9.07179 16.0898 8.77441C15.9122 8.47435 15.7026 8.269 15.5732 8.19531L15.2119 7.98926L15.0986 7.9248L15.1904 7.83203L15.7236 7.29395C15.1035 7.0889 14.0742 6.81732 13.0098 6.84473Z" fill="currentColor" stroke="currentColor" stroke-width="0.2"/>
<path d="M11.2344 12.002C11.2344 12.1503 11.1141 12.2705 10.9658 12.2705C10.8175 12.2705 10.6973 12.1503 10.6973 12.002C10.6973 11.8536 10.8175 11.7334 10.9658 11.7334C11.1141 11.7334 11.2344 11.8536 11.2344 12.002Z" fill="currentColor"/>
<path d="M14.6699 12.002C14.6699 12.1503 14.5497 12.2705 14.4014 12.2705C14.253 12.2705 14.1328 12.1503 14.1328 12.002C14.1328 11.8536 14.253 11.7334 14.4014 11.7334C14.5497 11.7334 14.6699 11.8536 14.6699 12.002Z" fill="currentColor"/>
<path d="M12.3223 13.0635C12.3223 13.2118 12.202 13.332 12.0537 13.332C11.9054 13.332 11.7852 13.2118 11.7852 13.0635C11.7852 12.9152 11.9054 12.7949 12.0537 12.7949C12.202 12.7949 12.3223 12.9152 12.3223 13.0635Z" fill="currentColor"/>
<path d="M13.6035 13.0635C13.6035 13.2118 13.4833 13.332 13.335 13.332C13.1866 13.332 13.0664 13.2118 13.0664 13.0635C13.0664 12.9152 13.1866 12.7949 13.335 12.7949C13.4833 12.7949 13.6035 12.9152 13.6035 13.0635Z" fill="currentColor"/>
<path d="M10.625 13.3247C10.625 13.473 10.5048 13.5933 10.3564 13.5933C10.2081 13.5933 10.0879 13.473 10.0879 13.3247C10.0879 13.1764 10.2081 13.0562 10.3564 13.0562C10.5048 13.0562 10.625 13.1764 10.625 13.3247Z" fill="currentColor"/>
<path d="M15.2969 13.3247C15.2969 13.473 15.1766 13.5933 15.0283 13.5933C14.88 13.5933 14.7598 13.473 14.7598 13.3247C14.7598 13.1764 14.88 13.0562 15.0283 13.0562C15.1766 13.0562 15.2969 13.1764 15.2969 13.3247Z" fill="currentColor"/>
<path d="M11.0449 14.6001C11.0449 14.7484 10.9247 14.8687 10.7764 14.8687C10.628 14.8687 10.5078 14.7484 10.5078 14.6001C10.5078 14.4518 10.628 14.3315 10.7764 14.3315C10.9247 14.3315 11.0449 14.4518 11.0449 14.6001Z" fill="currentColor"/>
<path d="M14.7852 14.6001C14.7852 14.7484 14.6649 14.8687 14.5166 14.8687C14.3683 14.8687 14.248 14.7484 14.248 14.6001C14.248 14.4518 14.3683 14.3315 14.5166 14.3315C14.6649 14.3315 14.7852 14.4518 14.7852 14.6001Z" fill="currentColor"/>
<path d="M11.8066 15.5171C11.8066 15.6654 11.6864 15.7856 11.5381 15.7856C11.3898 15.7856 11.2695 15.6654 11.2695 15.5171C11.2695 15.3688 11.3898 15.2485 11.5381 15.2485C11.6864 15.2485 11.8066 15.3688 11.8066 15.5171Z" fill="currentColor"/>
<path d="M14.1738 15.5171C14.1738 15.6654 14.0536 15.7856 13.9053 15.7856C13.757 15.7856 13.6367 15.6654 13.6367 15.5171C13.6367 15.3688 13.757 15.2485 13.9053 15.2485C14.0536 15.2485 14.1738 15.3688 14.1738 15.5171Z" fill="currentColor"/>
<path d="M12.9221 16.1988C12.9221 16.3332 12.8132 16.4421 12.6788 16.4421C12.5445 16.4421 12.4355 16.3332 12.4355 16.1988C12.4355 16.0645 12.5445 15.9556 12.6788 15.9556C12.8132 15.9556 12.9221 16.0645 12.9221 16.1988Z" fill="currentColor"/>
<path d="M12.9221 11.6202C12.9221 11.7546 12.8132 11.8635 12.6788 11.8635C12.5445 11.8635 12.4355 11.7546 12.4355 11.6202C12.4355 11.4859 12.5445 11.377 12.6788 11.377C12.8132 11.377 12.9221 11.4859 12.9221 11.6202Z" fill="currentColor"/>
<path d="M12.9221 14.3766C12.9221 14.5109 12.8132 14.6198 12.6788 14.6198C12.5445 14.6198 12.4355 14.5109 12.4355 14.3766C12.4355 14.2422 12.5445 14.1333 12.6788 14.1333C12.8132 14.1333 12.9221 14.2422 12.9221 14.3766Z" fill="currentColor"/>
</svg>
