<svg xmlns="http://www.w3.org/2000/svg" width="18" height="18" viewBox="0 0 18 18" fill="none">
  <path d="M12.3216 17.1299C12.1456 17.1299 12.0108 17.0831 11.9173 16.9896C11.8238 16.8961 11.7771 16.7669 11.7771 16.6019C11.7771 16.4314 11.8238 16.3021 11.9173 16.2141C12.0108 16.1261 12.1456 16.0821 12.3216 16.0821H13.1548V12.3614H13.7571L12.5526 13.0956C12.4261 13.1726 12.3078 13.2029 12.1978 13.1864C12.0933 13.1699 12.0026 13.1231 11.9256 13.0461C11.8486 12.9691 11.7963 12.8784 11.7688 12.7739C11.7468 12.6639 11.7578 12.5566 11.8018 12.4521C11.8458 12.3421 11.9283 12.2486 12.0493 12.1716L13.1961 11.4786C13.3116 11.4071 13.4271 11.3494 13.5426 11.3054C13.6636 11.2614 13.7818 11.2394 13.8973 11.2394C14.0623 11.2394 14.1916 11.2834 14.2851 11.3714C14.3841 11.4539 14.4336 11.5831 14.4336 11.7591V16.0821H15.1843C15.3548 16.0821 15.4868 16.1261 15.5803 16.2141C15.6738 16.3021 15.7206 16.4314 15.7206 16.6019C15.7206 16.7724 15.6738 16.9044 15.5803 16.9979C15.4868 17.0859 15.3548 17.1299 15.1843 17.1299H12.3216Z" fill="currentColor"/>
  <path d="M6 4.3125C5.6925 4.3125 5.4375 4.0575 5.4375 3.75V1.5C5.4375 1.1925 5.6925 0.9375 6 0.9375C6.3075 0.9375 6.5625 1.1925 6.5625 1.5V3.75C6.5625 4.0575 6.3075 4.3125 6 4.3125Z" fill="currentColor"/>
  <path d="M12 4.3125C11.6925 4.3125 11.4375 4.0575 11.4375 3.75V1.5C11.4375 1.1925 11.6925 0.9375 12 0.9375C12.3075 0.9375 12.5625 1.1925 12.5625 1.5V3.75C12.5625 4.0575 12.3075 4.3125 12 4.3125Z" fill="currentColor"/>
  <path d="M5.625 10.8749C5.5275 10.8749 5.43 10.8524 5.34 10.8149C5.2425 10.7774 5.16751 10.7249 5.09251 10.6574C4.95751 10.5149 4.875 10.3199 4.875 10.1249C4.875 9.92992 4.95751 9.73493 5.09251 9.59243C5.16751 9.52493 5.25 9.47241 5.34 9.43491C5.52 9.35991 5.73 9.35991 5.91 9.43491C6 9.47241 6.08249 9.52493 6.15749 9.59243C6.18749 9.62993 6.22499 9.66742 6.24749 9.70492C6.27749 9.74992 6.30001 9.79492 6.31501 9.83992C6.33751 9.88492 6.35251 9.92991 6.36001 9.97491C6.36751 10.0274 6.375 10.0799 6.375 10.1249C6.375 10.3199 6.29249 10.5149 6.15749 10.6574C6.08249 10.7249 6 10.7774 5.91 10.8149C5.82 10.8524 5.7225 10.8749 5.625 10.8749Z" fill="currentColor"/>
  <path d="M8.25 10.8751C8.1525 10.8751 8.055 10.8527 7.965 10.8152C7.8675 10.7777 7.79251 10.7251 7.71751 10.6576C7.58251 10.5151 7.5 10.3201 7.5 10.1251C7.5 10.0801 7.50749 10.0276 7.51499 9.97513C7.52249 9.93013 7.53749 9.88514 7.55999 9.84014C7.57499 9.79514 7.59751 9.75014 7.62751 9.70514C7.65751 9.66764 7.68751 9.63015 7.71751 9.59265C7.99501 9.31515 8.49749 9.31515 8.78249 9.59265C8.81249 9.63015 8.84249 9.66764 8.87249 9.70514C8.90249 9.75014 8.92501 9.79514 8.94001 9.84014C8.96251 9.88514 8.97751 9.93013 8.98501 9.97513C8.99251 10.0276 9 10.0801 9 10.1251C9 10.3201 8.91749 10.5151 8.78249 10.6576C8.63999 10.7926 8.4525 10.8751 8.25 10.8751Z" fill="currentColor"/>
  <path d="M5.625 13.4999C5.5275 13.4999 5.43 13.4774 5.34 13.4399C5.25 13.4024 5.16751 13.3499 5.09251 13.2824C4.95751 13.1399 4.875 12.9449 4.875 12.7499C4.875 12.7049 4.88249 12.6524 4.88999 12.6074C4.89749 12.5549 4.91249 12.5099 4.93499 12.4649C4.94999 12.4199 4.97251 12.3749 5.00251 12.3299C5.02501 12.2924 5.06251 12.2549 5.09251 12.2174C5.16751 12.1499 5.25 12.0974 5.34 12.0599C5.52 11.9849 5.73 11.9849 5.91 12.0599C6 12.0974 6.08249 12.1499 6.15749 12.2174C6.18749 12.2549 6.22499 12.2924 6.24749 12.3299C6.27749 12.3749 6.30001 12.4199 6.31501 12.4649C6.33751 12.5099 6.35251 12.5549 6.36001 12.6074C6.36751 12.6524 6.375 12.7049 6.375 12.7499C6.375 12.9449 6.29249 13.1399 6.15749 13.2824C6.08249 13.3499 6 13.4024 5.91 13.4399C5.82 13.4774 5.7225 13.4999 5.625 13.4999Z" fill="currentColor"/>
  <path d="M15.375 7.38H2.625C2.3175 7.38 2.0625 7.125 2.0625 6.8175C2.0625 6.51 2.3175 6.255 2.625 6.255H15.375C15.6825 6.255 15.9375 6.51 15.9375 6.8175C15.9375 7.125 15.6825 7.38 15.375 7.38Z" fill="currentColor"/>
  <path d="M9 17.0625H6C3.2625 17.0625 1.6875 15.4875 1.6875 12.75V6.375C1.6875 3.6375 3.2625 2.0625 6 2.0625H12C14.7375 2.0625 16.3125 3.6375 16.3125 6.375V9C16.3125 9.3075 16.0575 9.5625 15.75 9.5625C15.4425 9.5625 15.1875 9.3075 15.1875 9V6.375C15.1875 4.23 14.145 3.1875 12 3.1875H6C3.855 3.1875 2.8125 4.23 2.8125 6.375V12.75C2.8125 14.895 3.855 15.9375 6 15.9375H9C9.3075 15.9375 9.5625 16.1925 9.5625 16.5C9.5625 16.8075 9.3075 17.0625 9 17.0625Z" fill="currentColor"/>
</svg>
