<svg xmlns="http://www.w3.org/2000/svg" width="24" height="24" viewBox="0 0 18 18" fill="none">
  <path d="M12.8549 17.0625C12.6699 17.0625 12.5324 17.02 12.4424 16.935C12.3574 16.845 12.3149 16.715 12.3149 16.545C12.3149 16.435 12.3424 16.3325 12.3974 16.2375C12.4524 16.1425 12.5274 16.045 12.6224 15.945L14.0324 14.46C14.2424 14.235 14.3924 14.035 14.4824 13.86C14.5774 13.685 14.6249 13.51 14.6249 13.335C14.6249 13.115 14.5524 12.9475 14.4074 12.8325C14.2674 12.7175 14.0624 12.66 13.7924 12.66C13.6474 12.66 13.4974 12.6825 13.3424 12.7275C13.1924 12.7675 13.0349 12.835 12.8699 12.93C12.7599 12.99 12.6574 13.0125 12.5624 12.9975C12.4724 12.9775 12.3949 12.935 12.3299 12.87C12.2649 12.8 12.2224 12.7175 12.2024 12.6225C12.1824 12.5275 12.1924 12.4325 12.2324 12.3375C12.2724 12.2425 12.3474 12.1625 12.4574 12.0975C12.6774 11.9625 12.9174 11.8625 13.1774 11.7975C13.4374 11.7275 13.6949 11.6925 13.9499 11.6925C14.3449 11.6925 14.6774 11.7525 14.9474 11.8725C15.2174 11.9875 15.4224 12.1575 15.5624 12.3825C15.7024 12.6075 15.7724 12.8825 15.7724 13.2075C15.7724 13.4175 15.7399 13.6225 15.6749 13.8225C15.6099 14.0225 15.5074 14.225 15.3674 14.43C15.2324 14.63 15.0524 14.845 14.8274 15.075L13.5149 16.41V16.11H15.5474C15.7074 16.11 15.8274 16.15 15.9074 16.23C15.9924 16.31 16.0349 16.4275 16.0349 16.5825C16.0349 16.7375 15.9924 16.8575 15.9074 16.9425C15.8274 17.0225 15.7074 17.0625 15.5474 17.0625H12.8549Z" fill="currentColor"/>
  <path d="M8.86016 17.0625C8.70016 17.0625 8.57766 17.02 8.49266 16.935C8.40766 16.85 8.36516 16.7325 8.36516 16.5825C8.36516 16.4275 8.40766 16.31 8.49266 16.23C8.57766 16.15 8.70016 16.11 8.86016 16.11H9.61766V12.7275H10.1652L9.07016 13.395C8.95516 13.465 8.84766 13.4925 8.74766 13.4775C8.65266 13.4625 8.57016 13.42 8.50016 13.35C8.43016 13.28 8.38266 13.1975 8.35766 13.1025C8.33766 13.0025 8.34766 12.905 8.38766 12.81C8.42766 12.71 8.50266 12.625 8.61266 12.555L9.65516 11.925C9.76016 11.86 9.86516 11.8075 9.97016 11.7675C10.0802 11.7275 10.1877 11.7075 10.2927 11.7075C10.4427 11.7075 10.5602 11.7475 10.6452 11.8275C10.7352 11.9025 10.7802 12.02 10.7802 12.18V16.11H11.4627C11.6177 16.11 11.7377 16.15 11.8227 16.23C11.9077 16.31 11.9502 16.4275 11.9502 16.5825C11.9502 16.7375 11.9077 16.8575 11.8227 16.9425C11.7377 17.0225 11.6177 17.0625 11.4627 17.0625H8.86016Z" fill="currentColor"/>
  <path d="M6 4.3125C5.6925 4.3125 5.4375 4.0575 5.4375 3.75V1.5C5.4375 1.1925 5.6925 0.9375 6 0.9375C6.3075 0.9375 6.5625 1.1925 6.5625 1.5V3.75C6.5625 4.0575 6.3075 4.3125 6 4.3125Z" fill="currentColor"/>
  <path d="M12 4.3125C11.6925 4.3125 11.4375 4.0575 11.4375 3.75V1.5C11.4375 1.1925 11.6925 0.9375 12 0.9375C12.3075 0.9375 12.5625 1.1925 12.5625 1.5V3.75C12.5625 4.0575 12.3075 4.3125 12 4.3125Z" fill="currentColor"/>
  <path d="M5.625 10.8749C5.5275 10.8749 5.43 10.8524 5.34 10.8149C5.2425 10.7774 5.16751 10.7249 5.09251 10.6574C4.95751 10.5149 4.875 10.3199 4.875 10.1249C4.875 9.92992 4.95751 9.73493 5.09251 9.59243C5.16751 9.52493 5.25 9.47241 5.34 9.43491C5.52 9.35991 5.73 9.35991 5.91 9.43491C6 9.47241 6.08249 9.52493 6.15749 9.59243C6.18749 9.62993 6.22499 9.66742 6.24749 9.70492C6.27749 9.74992 6.30001 9.79492 6.31501 9.83992C6.33751 9.88492 6.35251 9.92991 6.36001 9.97491C6.36751 10.0274 6.375 10.0799 6.375 10.1249C6.375 10.3199 6.29249 10.5149 6.15749 10.6574C6.08249 10.7249 6 10.7774 5.91 10.8149C5.82 10.8524 5.7225 10.8749 5.625 10.8749Z" fill="currentColor"/>
  <path d="M8.25 10.8751C8.1525 10.8751 8.055 10.8527 7.965 10.8152C7.8675 10.7777 7.79251 10.7251 7.71751 10.6576C7.58251 10.5151 7.5 10.3201 7.5 10.1251C7.5 10.0801 7.50749 10.0276 7.51499 9.97513C7.52249 9.93013 7.53749 9.88514 7.55999 9.84014C7.57499 9.79514 7.59751 9.75014 7.62751 9.70514C7.65751 9.66764 7.68751 9.63015 7.71751 9.59265C7.99501 9.31515 8.49749 9.31515 8.78249 9.59265C8.81249 9.63015 8.84249 9.66764 8.87249 9.70514C8.90249 9.75014 8.92501 9.79514 8.94001 9.84014C8.96251 9.88514 8.97751 9.93013 8.98501 9.97513C8.99251 10.0276 9 10.0801 9 10.1251C9 10.3201 8.91749 10.5151 8.78249 10.6576C8.63999 10.7926 8.4525 10.8751 8.25 10.8751Z" fill="currentColor"/>
  <path d="M5.625 13.4999C5.5275 13.4999 5.43 13.4774 5.34 13.4399C5.25 13.4024 5.16751 13.3499 5.09251 13.2824C4.95751 13.1399 4.875 12.9449 4.875 12.7499C4.875 12.7049 4.88249 12.6524 4.88999 12.6074C4.89749 12.5549 4.91249 12.5099 4.93499 12.4649C4.94999 12.4199 4.97251 12.3749 5.00251 12.3299C5.02501 12.2924 5.06251 12.2549 5.09251 12.2174C5.16751 12.1499 5.25 12.0974 5.34 12.0599C5.52 11.9849 5.73 11.9849 5.91 12.0599C6 12.0974 6.08249 12.1499 6.15749 12.2174C6.18749 12.2549 6.22499 12.2924 6.24749 12.3299C6.27749 12.3749 6.30001 12.4199 6.31501 12.4649C6.33751 12.5099 6.35251 12.5549 6.36001 12.6074C6.36751 12.6524 6.375 12.7049 6.375 12.7499C6.375 12.9449 6.29249 13.1399 6.15749 13.2824C6.08249 13.3499 6 13.4024 5.91 13.4399C5.82 13.4774 5.7225 13.4999 5.625 13.4999Z" fill="currentColor"/>
  <path d="M15.375 7.38H2.625C2.3175 7.38 2.0625 7.125 2.0625 6.8175C2.0625 6.51 2.3175 6.255 2.625 6.255H15.375C15.6825 6.255 15.9375 6.51 15.9375 6.8175C15.9375 7.125 15.6825 7.38 15.375 7.38Z" fill="currentColor"/>
  <path d="M6.75 17.0625H6C3.2625 17.0625 1.6875 15.4875 1.6875 12.75V6.375C1.6875 3.6375 3.2625 2.0625 6 2.0625H12C14.7375 2.0625 16.3125 3.6375 16.3125 6.375V9C16.3125 9.3075 16.0575 9.5625 15.75 9.5625C15.4425 9.5625 15.1875 9.3075 15.1875 9V6.375C15.1875 4.23 14.145 3.1875 12 3.1875H6C3.855 3.1875 2.8125 4.23 2.8125 6.375V12.75C2.8125 14.895 3.855 15.9375 6 15.9375H6.75C7.0575 15.9375 7.3125 16.1925 7.3125 16.5C7.3125 16.8075 7.0575 17.0625 6.75 17.0625Z" fill="currentColor"/>
</svg>
