<svg xmlns="http://www.w3.org/2000/svg" width="24" height="24" viewBox="0 0 18 18" fill="none">
  <path d="M12.3216 17.1299C12.1456 17.1299 12.0108 17.0831 11.9173 16.9896C11.8238 16.8961 11.7771 16.7669 11.7771 16.6019C11.7771 16.4314 11.8238 16.3021 11.9173 16.2141C12.0108 16.1261 12.1456 16.0821 12.3216 16.0821H13.1548V12.3614H13.7571L12.5526 13.0956C12.4261 13.1726 12.3078 13.2029 12.1978 13.1864C12.0933 13.1699 12.0026 13.1231 11.9256 13.0461C11.8486 12.9691 11.7963 12.8784 11.7688 12.7739C11.7468 12.6639 11.7578 12.5566 11.8018 12.4521C11.8458 12.3421 11.9283 12.2486 12.0493 12.1716L13.1961 11.4786C13.3116 11.4071 13.4271 11.3494 13.5426 11.3054C13.6636 11.2614 13.7818 11.2394 13.8973 11.2394C14.0623 11.2394 14.1916 11.2834 14.2851 11.3714C14.3841 11.4539 14.4336 11.5831 14.4336 11.7591V16.0821H15.1843C15.3548 16.0821 15.4868 16.1261 15.5803 16.2141C15.6738 16.3021 15.7206 16.4314 15.7206 16.6019C15.7206 16.7724 15.6738 16.9044 15.5803 16.9979C15.4868 17.0859 15.3548 17.1299 15.1843 17.1299H12.3216Z" fill="currentColor"/>
  <path d="M6 1.4375C6.01306 1.4375 6.02868 1.44274 6.04297 1.45703C6.05726 1.47132 6.0625 1.48694 6.0625 1.5V3.75C6.0625 3.76306 6.05726 3.77868 6.04297 3.79297C6.02868 3.80726 6.01306 3.8125 6 3.8125C5.98694 3.8125 5.97132 3.80726 5.95703 3.79297C5.94274 3.77868 5.9375 3.76306 5.9375 3.75V1.5C5.9375 1.48694 5.94274 1.47132 5.95703 1.45703C5.97132 1.44274 5.98694 1.4375 6 1.4375Z" fill="currentColor" stroke="currentColor"/>
  <path d="M12 1.4375C12.0131 1.4375 12.0287 1.44274 12.043 1.45703C12.0573 1.47132 12.0625 1.48694 12.0625 1.5V3.75C12.0625 3.76306 12.0573 3.77868 12.043 3.79297C12.0287 3.80726 12.0131 3.8125 12 3.8125C11.9869 3.8125 11.9713 3.80726 11.957 3.79297C11.9427 3.77868 11.9375 3.76306 11.9375 3.75V1.5C11.9375 1.48694 11.9427 1.47132 11.957 1.45703C11.9713 1.44274 11.9869 1.4375 12 1.4375Z" fill="currentColor" stroke="currentColor"/>
  <path d="M5.8291 9.97827L5.83105 9.98218C5.83986 9.99539 5.84172 10.0005 5.84082 9.9978L5.85156 10.032L5.86719 10.0613C5.86993 10.0807 5.87161 10.0952 5.87305 10.1082C5.87406 10.1173 5.87486 10.1226 5.875 10.1248C5.875 10.1788 5.84985 10.2446 5.80469 10.2986C5.77573 10.322 5.74785 10.3407 5.71777 10.3533C5.67895 10.3694 5.64668 10.3748 5.625 10.3748C5.61412 10.3748 5.60065 10.3733 5.58496 10.3699L5.53223 10.3533L5.51953 10.3484L5.48047 10.3289C5.47007 10.3221 5.45924 10.3123 5.44531 10.3005C5.39951 10.2463 5.375 10.1792 5.375 10.1248C5.37505 10.0708 5.39835 10.0039 5.44336 9.94995C5.47252 9.92626 5.50192 9.90887 5.53223 9.89624C5.58915 9.87253 5.66085 9.87253 5.71777 9.89624C5.74787 9.90878 5.77669 9.9265 5.80566 9.94995C5.81493 9.96068 5.81824 9.96538 5.82422 9.97241C5.82648 9.97508 5.82811 9.97706 5.8291 9.97827ZM5.8291 9.97827L5.8252 9.97241L5.83008 9.98022C5.82988 9.97997 5.82982 9.97915 5.8291 9.97827Z" fill="currentColor" stroke="currentColor"/>
  <path d="M8.08105 9.93726C8.16198 9.8693 8.32799 9.86477 8.4209 9.94116C8.42627 9.94787 8.43213 9.95496 8.4375 9.96167C8.44588 9.97215 8.45451 9.98244 8.46289 9.99292C8.46422 9.99531 8.46538 9.99684 8.46582 9.9978L8.47656 10.032L8.49219 10.0623C8.49487 10.0813 8.49663 10.0954 8.49805 10.1082C8.49905 10.1172 8.49985 10.1224 8.5 10.1248C8.5 10.1795 8.47502 10.2472 8.42871 10.3015C8.37286 10.3508 8.31037 10.3748 8.25 10.3748C8.22832 10.3748 8.19605 10.3694 8.15723 10.3533L8.14453 10.3484L8.10547 10.3289C8.09467 10.3218 8.08301 10.312 8.06836 10.2996C8.02348 10.2457 8 10.1786 8 10.1248C8.00015 10.1224 8.00095 10.1172 8.00195 10.1082C8.00337 10.0954 8.00416 10.0812 8.00684 10.0623L8.02344 10.032L8.03418 9.9978C8.0346 9.99689 8.03493 9.99509 8.03613 9.99292C8.04464 9.98228 8.05399 9.97231 8.0625 9.96167C8.06876 9.95385 8.0748 9.94508 8.08105 9.93726Z" fill="currentColor" stroke="currentColor"/>
  <path d="M5.4209 12.6033C5.42189 12.6021 5.42352 12.6001 5.42578 12.5974C5.43167 12.5905 5.4344 12.5853 5.44336 12.575C5.47252 12.5513 5.50192 12.5339 5.53223 12.5212C5.58915 12.4975 5.66085 12.4975 5.71777 12.5212C5.74787 12.5338 5.77669 12.5515 5.80566 12.575C5.81493 12.5857 5.81824 12.5904 5.82422 12.5974C5.82648 12.6001 5.82811 12.6021 5.8291 12.6033M5.4209 12.6033L5.41895 12.6072C5.41014 12.6204 5.40828 12.6255 5.40918 12.6228L5.39844 12.657L5.38379 12.6833V12.6892H5.38281C5.37971 12.7078 5.37742 12.7235 5.37598 12.7361C5.37515 12.7433 5.37513 12.7478 5.375 12.7498C5.375 12.8036 5.39944 12.8697 5.44434 12.9236C5.47348 12.9473 5.50194 12.9656 5.53223 12.9783C5.57105 12.9944 5.60332 12.9998 5.625 12.9998C5.64668 12.9998 5.67895 12.9944 5.71777 12.9783C5.74785 12.9657 5.77573 12.947 5.80469 12.9236C5.84985 12.8696 5.875 12.8038 5.875 12.7498C5.87487 12.7478 5.87485 12.7433 5.87402 12.7361C5.87258 12.7235 5.87029 12.7078 5.86719 12.6892L5.86621 12.6843L5.85156 12.657L5.84082 12.6228C5.84172 12.6255 5.83986 12.6204 5.83105 12.6072L5.8291 12.6033M5.4209 12.6033C5.42018 12.6041 5.42012 12.605 5.41992 12.6052L5.4248 12.5974L5.4209 12.6033ZM5.8291 12.6033L5.8252 12.5974L5.83008 12.6052C5.82988 12.605 5.82982 12.6041 5.8291 12.6033Z" fill="currentColor" stroke="currentColor"/>
  <path d="M15.375 7.38H2.625C2.3175 7.38 2.0625 7.125 2.0625 6.8175C2.0625 6.51 2.3175 6.255 2.625 6.255H15.375C15.6825 6.255 15.9375 6.51 15.9375 6.8175C15.9375 7.125 15.6825 7.38 15.375 7.38Z" fill="currentColor"/>
  <path d="M9 17.0625H6C3.2625 17.0625 1.6875 15.4875 1.6875 12.75V6.375C1.6875 3.6375 3.2625 2.0625 6 2.0625H12C14.7375 2.0625 16.3125 3.6375 16.3125 6.375V9C16.3125 9.3075 16.0575 9.5625 15.75 9.5625C15.4425 9.5625 15.1875 9.3075 15.1875 9V6.375C15.1875 4.23 14.145 3.1875 12 3.1875H6C3.855 3.1875 2.8125 4.23 2.8125 6.375V12.75C2.8125 14.895 3.855 15.9375 6 15.9375H9C9.3075 15.9375 9.5625 16.1925 9.5625 16.5C9.5625 16.8075 9.3075 17.0625 9 17.0625Z" fill="currentColor"/>
</svg>
