<svg width="22" height="22" viewBox="0 0 22 22" fill="none" xmlns="http://www.w3.org/2000/svg">
<path d="M20.1055 8.12891C20.1055 5.70288 19.6157 4.19971 18.7002 3.28418C17.7847 2.36865 16.2815 1.87891 13.8555 1.87891H7.85547C5.42944 1.87891 3.92627 2.36865 3.01074 3.28418C2.09521 4.19971 1.60547 5.70288 1.60547 8.12891V14.1289C1.60547 16.5549 2.09521 18.0581 3.01074 18.9736C3.92627 19.8892 5.42944 20.3789 7.85547 20.3789H13.8555C16.2815 20.3789 17.7847 19.8892 18.7002 18.9736C19.6157 18.0581 20.1055 16.5549 20.1055 14.1289V8.12891ZM21.6055 14.1289C21.6055 16.7029 21.0952 18.6997 19.7607 20.0342C18.4263 21.3686 16.4294 21.8789 13.8555 21.8789H7.85547C5.2815 21.8789 3.28466 21.3686 1.9502 20.0342C0.615727 18.6997 0.105469 16.7029 0.105469 14.1289V8.12891C0.105469 5.55493 0.615727 3.5581 1.9502 2.22363C3.28466 0.889164 5.2815 0.378906 7.85547 0.378906H13.8555C16.4294 0.378906 18.4263 0.889164 19.7607 2.22363C21.0952 3.5581 21.6055 5.55493 21.6055 8.12891V14.1289Z" fill="currentColor"/>
<path d="M14.8555 9.12891L10.8555 13.1289L6.85547 9.12891" stroke="currentColor" stroke-width="1.5" stroke-linecap="round" stroke-linejoin="round"/>
</svg>
