<svg xmlns="http://www.w3.org/2000/svg" width="31" height="40" viewBox="0 0 31 40" fill="none">
  <path d="M15.2116 40C6.82405 40 0 33.1686 0 24.7721V15.2279C0 6.83138 6.82405 0 15.2116 0C23.5991 0 30.4231 6.83138 30.4231 15.2279V24.7721C30.4595 28.7829 28.9067 32.5887 26.0497 35.4746C23.1608 38.3924 19.3121 40 15.2116 40ZM15.2116 3.60241C8.80758 3.60241 3.59855 8.81703 3.59855 15.2279V24.7721C3.59855 31.183 8.80758 36.3976 15.2116 36.3976C18.3446 36.3976 21.285 35.1695 23.4929 32.9394C25.6691 30.7412 26.8519 27.8477 26.8246 24.7888V15.2294C26.8246 8.81855 21.6156 3.60393 15.2116 3.60393V3.60241Z" fill="currentColor"/>
</svg>
