<svg width="100%" height="100%" viewBox="0 0 24 24" fill="none" xmlns="http://www.w3.org/2000/svg">
<path d="M22 10V15C22 20 20 22 15 22H9C4 22 2 20 2 15V9C2 4 4 2 9 2H14" stroke="currentColor" stroke-width="1.5" stroke-linecap="round" stroke-linejoin="round"/>
<path d="M22 10H18C15 10 14 9 14 6V2L22 10Z" stroke="currentColor" stroke-width="1.5" stroke-linecap="round" stroke-linejoin="round"/>
<path d="M5.91797 19.0391C5.50781 19.0391 5.27734 18.7891 5.27734 18.3438V14.5508C5.27734 13.9141 5.51172 13.668 6.12109 13.668H7.49219C8.66016 13.668 9.39844 14.3789 9.39844 15.4766C9.39844 16.6445 8.64844 17.2969 7.42578 17.2969H6.56641V18.3438C6.56641 18.7852 6.33203 19.0391 5.91797 19.0391ZM6.57031 16.3359H7.15625C7.82422 16.3359 8.12109 16.1172 8.12109 15.5C8.12109 14.9688 7.82812 14.6641 7.30078 14.6641H6.57031V16.3359ZM10.0742 18.2617V14.4062C10.0742 13.9258 10.3398 13.668 10.8281 13.668H12.168C13.7383 13.668 14.5781 14.5977 14.5781 16.332C14.5781 18.0703 13.7383 19 12.168 19H10.8281C10.3398 19 10.0742 18.7422 10.0742 18.2617ZM11.3672 17.9727H11.9688C12.8555 17.9727 13.2578 17.4648 13.2578 16.332C13.2578 15.2031 12.8555 14.6914 11.9688 14.6914H11.3672V17.9727ZM16.0156 19.0391C15.5977 19.0391 15.3555 18.7812 15.3555 18.3438V14.4062C15.3555 13.9297 15.6172 13.668 16.1016 13.668H18.4883C18.7852 13.668 19 13.8867 19 14.1914C19 14.4922 18.7852 14.7031 18.4883 14.7031H16.6484V15.9844H18.2891C18.5977 15.9844 18.8008 16.1875 18.8008 16.4883C18.8008 16.7891 18.5938 16.9922 18.2891 16.9922H16.6484V18.3438C16.6484 18.7891 16.4219 19.0391 16.0156 19.0391Z" fill="currentColor"/>
</svg>
