<svg width="100%" height="100%" viewBox="0 0 23 23" fill="none" xmlns="http://www.w3.org/2000/svg">
<path d="M13.5088 0.86377C13.5502 0.864656 13.5914 0.868378 13.6318 0.876465L13.6377 0.877441C13.6561 0.881209 13.6736 0.887897 13.6914 0.893066C13.7053 0.897153 13.7197 0.899836 13.7334 0.904785C13.7551 0.912563 13.7753 0.923323 13.7959 0.933105C13.81 0.939807 13.8242 0.945957 13.8379 0.953613C13.8541 0.962647 13.8694 0.972672 13.8848 0.98291C13.8998 0.993005 13.9144 1.00381 13.9287 1.01514C13.9469 1.02946 13.9647 1.04404 13.9814 1.06006C13.9846 1.06307 13.9881 1.06577 13.9912 1.06885L21.9766 9.0542C21.9816 9.05927 21.9853 9.0656 21.9902 9.0708C22.0044 9.0858 22.0175 9.10148 22.0303 9.11768C22.0403 9.1304 22.0495 9.14345 22.0586 9.15674C22.0699 9.17332 22.0809 9.18996 22.0908 9.20752C22.0993 9.22258 22.107 9.23785 22.1143 9.25342C22.1233 9.27266 22.1323 9.29186 22.1396 9.31201C22.1412 9.31618 22.1421 9.32051 22.1436 9.32471C22.1531 9.35266 22.1629 9.38123 22.1689 9.41064V9.41455C22.1765 9.45247 22.1795 9.49103 22.1807 9.52979L22.1836 9.55225V14.1987L22.1689 14.3403C22.1033 14.6606 21.8202 14.9019 21.4805 14.9019C21.1407 14.9019 20.8577 14.6606 20.792 14.3403L20.7773 14.1987V10.2544H17.4873C15.9511 10.2544 14.7025 10.0077 13.8701 9.17529C13.0379 8.34298 12.7911 7.09503 12.791 5.55908V2.26904H8.50488C6.07878 2.26905 4.56328 2.7585 3.63672 3.68506C2.71016 4.61162 2.22071 6.12712 2.2207 8.55322V14.5425C2.22071 16.9686 2.71016 18.4841 3.63672 19.4106C4.56328 20.3372 6.07878 20.8267 8.50488 20.8267H12.0342L12.1758 20.8413C12.4962 20.9069 12.7373 21.19 12.7373 21.5298C12.7373 21.8696 12.4962 22.1527 12.1758 22.2183L12.0342 22.2329H8.50488C5.94007 22.2329 3.96194 21.7241 2.64258 20.4048C1.32322 19.0854 0.81446 17.1073 0.814453 14.5425V8.55322C0.81446 5.98841 1.32322 4.01028 2.64258 2.69092C3.96194 1.37156 5.94007 0.862799 8.50488 0.862793H13.4961L13.5088 0.86377ZM16.2412 13.2319C18.3884 13.2319 20.1289 14.9725 20.1289 17.1196C20.1289 17.9432 19.8714 18.7058 19.4346 19.3345L19.5264 19.4087L20.5225 20.4048L20.6123 20.5151C20.7925 20.788 20.7625 21.1586 20.5225 21.3989C20.2822 21.6392 19.9116 21.669 19.6387 21.4888L19.5283 21.3989L18.5322 20.4028L18.458 20.312C17.829 20.7496 17.0655 21.0073 16.2412 21.0073C14.0941 21.0073 12.3535 19.2668 12.3535 17.1196C12.3536 14.9725 14.0941 13.232 16.2412 13.2319ZM16.2412 14.6382C14.8708 14.6382 13.7598 15.7492 13.7598 17.1196C13.7598 18.4901 14.8708 19.601 16.2412 19.6011C17.6117 19.6011 18.7227 18.4901 18.7227 17.1196C18.7226 15.7492 17.6117 14.6382 16.2412 14.6382ZM14.1973 5.55908C14.1973 7.01707 14.45 7.76587 14.8652 8.18115C15.2807 8.59621 16.0295 8.84814 17.4873 8.84814H19.7822L14.1973 3.26318V5.55908Z" fill="currentColor"/>
</svg>
