<svg width="100%" height="100%" viewBox="0 0 25 24" fill="none" xmlns="http://www.w3.org/2000/svg">
<path d="M12.2494 6.02663C13.9626 5.97575 15.5184 6.66021 15.6165 6.70534L15.9974 6.87819L16.2435 6.98952L16.054 7.18092L15.4837 7.75709C15.8589 8.18109 16.2141 8.85818 16.2142 9.63405V11.468L16.2171 11.4651V14.2307C16.2169 14.5201 16.0967 14.7976 15.8861 14.9954H15.8851L13.5951 17.138V17.1389C13.4721 17.2528 13.3127 17.3166 13.1458 17.3167H10.7689C10.6037 17.3167 10.4426 17.2583 10.3187 17.1409L8.02866 14.9983V14.9973C7.81711 14.8011 7.69774 14.5208 7.6976 14.2327V12.0872L7.68491 12.011V12.01C7.67274 11.9338 7.38679 10.0789 7.68881 8.64088C7.80045 7.8816 8.09758 7.31194 8.6058 7.0403C8.98777 6.83824 9.37106 6.8707 9.62436 6.92897C10.0169 6.62275 10.9098 6.06336 12.2494 6.02663ZM13.4671 17.0003C13.4239 17.0403 13.3742 17.0705 13.3216 17.0921C13.347 17.0817 13.3724 17.0707 13.3958 17.0559L13.4671 17.0012L15.7572 14.8577L13.4671 17.0003ZM10.4994 17.0452C10.5011 17.0464 10.5034 17.0469 10.5052 17.0481C10.4852 17.0345 10.4655 17.0202 10.4476 17.0032L10.4994 17.0452ZM10.2181 9.98952C10.0329 10.2738 9.7725 10.6822 9.57651 11.0237C9.33538 11.4428 8.8884 11.8944 8.64487 12.1262V14.2327C8.64494 14.2455 8.64784 14.2586 8.65268 14.2698L8.67319 14.3001L8.67416 14.301L10.8792 16.3655H13.0326L15.2376 14.301L15.2386 14.3001C15.256 14.284 15.2678 14.2587 15.2679 14.2327V12.0286C15.1666 11.7547 14.9633 11.3033 14.6937 10.9026C14.5544 10.6957 14.4011 10.5073 14.2396 10.3645C14.1177 10.2568 13.9964 10.1791 13.8783 10.136L13.7611 10.1048C13.5607 10.0697 13.4205 10.1009 13.2513 10.1692L13.0697 10.2483C12.7859 10.3767 12.426 10.5444 11.8997 10.4915C11.2665 10.4291 10.6153 10.1709 10.2181 9.98952ZM7.77475 11.0901C7.81197 11.592 7.86492 11.945 7.87045 11.9798L7.82455 11.6282C7.80791 11.483 7.79031 11.2995 7.77475 11.0901ZM10.1478 9.75123C9.96481 10.0288 9.64588 10.5239 9.41342 10.929C9.32598 11.081 9.20748 11.2386 9.08237 11.3889C9.16321 11.2919 9.24251 11.1929 9.31088 11.093L9.41342 10.9299C9.64573 10.5252 9.96472 10.0299 10.1478 9.75221V9.75123ZM7.75424 10.7717C7.75647 10.8161 7.75948 10.8598 7.76205 10.9026C7.75947 10.8598 7.75647 10.8161 7.75424 10.7717ZM12.2747 6.9817C11.5644 7.00082 11.0101 7.20841 10.6341 7.41041C10.4461 7.51147 10.3025 7.61154 10.2074 7.68483C10.1599 7.72138 10.1239 7.75148 10.1009 7.77174C10.0899 7.78151 10.0817 7.78938 10.0765 7.7942C10.074 7.79656 10.0716 7.79912 10.0706 7.80006L9.92807 7.94362L9.83334 8.03932L9.71225 7.98073L9.5267 7.89088V7.88991C9.52393 7.88874 9.51928 7.88802 9.51401 7.886C9.5009 7.88094 9.48063 7.87374 9.45541 7.86647C9.4036 7.85157 9.33396 7.83717 9.2601 7.83717C9.18558 7.83719 9.11334 7.85089 9.05014 7.886L9.04819 7.88698C8.87417 7.98096 8.70526 8.26213 8.62436 8.79713V8.80397L8.62045 8.8235C8.48256 9.47735 8.48788 10.2587 8.52475 10.8694C8.61454 10.7594 8.69564 10.6498 8.75326 10.5491C9.10401 9.93538 9.62851 9.15469 9.65658 9.11354L9.80209 8.89674L9.8978 8.75416L10.0482 8.83717L10.2767 8.96217C10.3632 9.00803 11.2346 9.46992 11.9915 9.54518H11.9925C12.2578 9.57191 12.4286 9.49419 12.6771 9.38112C12.977 9.24464 13.3594 9.06621 13.9222 9.16432L14.0628 9.19557C14.5489 9.32743 14.9485 9.68394 15.2621 10.0784V9.63405C15.2619 9.27682 15.1429 8.94787 14.9896 8.68873C14.8333 8.42488 14.654 8.25346 14.556 8.19752L14.2269 8.01002L14.014 7.88795L14.1869 7.71413L14.558 7.3401C13.992 7.1642 13.1458 6.95928 12.2747 6.9817ZM15.4505 10.677L15.3167 10.468C15.3136 10.4634 15.3101 10.459 15.307 10.4544L15.4505 10.677ZM11.683 10.2708C11.7618 10.2848 11.8406 10.2972 11.9193 10.3049C11.9708 10.3101 12.0206 10.311 12.0687 10.3118C12.0206 10.311 11.9709 10.3091 11.9193 10.304C11.8407 10.2963 11.7618 10.2846 11.683 10.2708ZM12.9925 10.0764C12.9268 10.1062 12.8587 10.1371 12.7874 10.1663L12.9925 10.0774C13.0586 10.0474 13.1212 10.0184 13.183 9.99342L12.9925 10.0764ZM7.80112 9.11256C7.77098 9.34825 7.75372 9.58918 7.74545 9.82643C7.75368 9.58918 7.77099 9.34827 7.80112 9.11256ZM7.82748 8.92409C7.82545 8.93675 7.82357 8.94946 7.82162 8.96217C7.82357 8.94946 7.82545 8.93675 7.82748 8.92409ZM14.9945 8.36452C14.9592 8.31912 14.9237 8.27743 14.889 8.23952C14.9236 8.27746 14.9592 8.3191 14.9945 8.36452ZM8.06381 7.94948C8.02789 8.03492 7.99793 8.12682 7.97006 8.22389C7.99798 8.12721 8.02801 8.03564 8.06381 7.95045V7.94948ZM14.847 8.19655C14.8233 8.17243 14.8003 8.15016 14.7777 8.13014C14.8004 8.15008 14.8233 8.17241 14.847 8.19655ZM14.3206 7.84694L14.6488 8.03444C14.6801 8.05231 14.7143 8.07727 14.7513 8.10768C14.7143 8.07689 14.6802 8.05139 14.6488 8.03346L14.3206 7.84596V7.84694ZM10.0921 7.53541C9.9902 7.61398 9.93783 7.66627 9.93783 7.66627L9.79428 7.81081L9.60873 7.72096V7.72194L9.79428 7.81178L9.93783 7.66627C9.94088 7.66327 9.99566 7.60958 10.099 7.53053L10.0921 7.53541ZM8.3851 7.44362C8.35139 7.47911 8.32016 7.51765 8.2894 7.55788C8.32016 7.51767 8.3514 7.47909 8.3851 7.44362ZM8.53744 7.30592C8.49049 7.34146 8.44615 7.38113 8.40366 7.42409C8.44614 7.38116 8.4905 7.34145 8.53744 7.30592ZM12.2699 6.79323C12.1311 6.79696 11.9978 6.80728 11.8705 6.8235C11.9978 6.80752 12.1311 6.79793 12.2699 6.7942L12.6107 6.79713C12.4979 6.79242 12.3841 6.79029 12.2699 6.79323Z" fill="currentColor"/>
<path d="M20.6465 11.6201C20.6465 6.78763 16.729 2.87012 11.8965 2.87012C7.06399 2.87012 3.14648 6.78763 3.14648 11.6201C3.14648 16.4526 7.06399 20.3701 11.8965 20.3701C16.729 20.3701 20.6465 16.4526 20.6465 11.6201ZM22.1465 11.6201C22.1465 17.281 17.5574 21.8701 11.8965 21.8701C6.23557 21.8701 1.64648 17.281 1.64648 11.6201C1.64648 5.9592 6.23557 1.37012 11.8965 1.37012C17.5574 1.37012 22.1465 5.9592 22.1465 11.6201Z" fill="currentColor"/>
<path d="M19.8663 19.59C20.1409 19.3154 20.5757 19.2979 20.8702 19.5382L20.9269 19.59L22.9269 21.59L22.9786 21.6466C23.2189 21.9412 23.2015 22.3759 22.9269 22.6505C22.6523 22.9251 22.2175 22.9426 21.923 22.7023L21.8663 22.6505L19.8663 20.6505L19.8146 20.5939C19.5743 20.2993 19.5917 19.8646 19.8663 19.59Z" fill="currentColor"/>
</svg>
