<svg width="100%" height="100%" viewBox="0 0 25 25" fill="none" xmlns="http://www.w3.org/2000/svg">
<path d="M1.75 15.2451C1.75 14.8309 2.08579 14.4951 2.5 14.4951C2.91421 14.4951 3.25 14.8309 3.25 15.2451C3.25 17.6711 3.73974 19.1743 4.65527 20.0898C5.5708 21.0054 7.07397 21.4951 9.5 21.4951C9.91421 21.4951 10.25 21.8309 10.25 22.2451C10.25 22.6593 9.91421 22.9951 9.5 22.9951C6.92603 22.9951 4.9292 22.4849 3.59473 21.1504C2.26026 19.8159 1.75 17.8191 1.75 15.2451ZM21.75 15.2451C21.75 14.8309 22.0858 14.4951 22.5 14.4951C22.9142 14.4951 23.25 14.8309 23.25 15.2451C23.25 17.8191 22.7397 19.8159 21.4053 21.1504C20.0708 22.4849 18.074 22.9951 15.5 22.9951C15.0858 22.9951 14.75 22.6593 14.75 22.2451C14.75 21.8309 15.0858 21.4951 15.5 21.4951C17.926 21.4951 19.4292 21.0054 20.3447 20.0898C21.2603 19.1743 21.75 17.6711 21.75 15.2451ZM1.75 9.24512C1.75 6.67114 2.26026 4.67431 3.59473 3.33984C4.9292 2.00538 6.92603 1.49512 9.5 1.49512C9.91421 1.49512 10.25 1.8309 10.25 2.24512C10.25 2.65933 9.91421 2.99512 9.5 2.99512C7.07397 2.99512 5.5708 3.48486 4.65527 4.40039C3.73974 5.31592 3.25 6.81909 3.25 9.24512C3.25 9.65933 2.91421 9.99512 2.5 9.99512C2.08579 9.99512 1.75 9.65933 1.75 9.24512ZM21.75 9.24512C21.75 6.81909 21.2603 5.31592 20.3447 4.40039C19.4292 3.48486 17.926 2.99512 15.5 2.99512C15.0858 2.99512 14.75 2.65933 14.75 2.24512C14.75 1.8309 15.0858 1.49512 15.5 1.49512C18.074 1.49512 20.0708 2.00538 21.4053 3.33984C22.7397 4.67431 23.25 6.67114 23.25 9.24512C23.25 9.65933 22.9142 9.99512 22.5 9.99512C22.0858 9.99512 21.75 9.65933 21.75 9.24512Z" fill="currentColor"/>
<path d="M16.4436 14.2925C16.8206 14.3308 17.1152 14.6486 17.1155 15.0357V15.0464L17.1135 15.0454L17.1028 15.1704L17.1018 15.1802L17.0032 15.1607L17.1008 15.1802C17.0733 15.3202 17.0065 15.4516 16.9055 15.5562C14.6006 17.938 10.8518 18.0898 8.36451 15.9546L8.36354 15.9536L8.13014 15.7437L8.12916 15.7417L7.95729 15.5786L7.94947 15.5718L7.95045 15.5708L7.86451 15.4712L7.85865 15.4644L7.94069 15.4068L7.85865 15.4634C7.6597 15.1782 7.68121 14.7832 7.92994 14.521C8.14766 14.2919 8.4759 14.2309 8.75221 14.3423L8.86744 14.4009L8.87623 14.4068L8.97975 14.4878L8.98756 14.4937L9.15846 14.6558H9.15944C10.9859 16.3906 13.836 16.3866 15.6565 14.6861L15.8294 14.5161C15.9652 14.3757 16.1563 14.2886 16.3674 14.2886L16.4436 14.2925ZM8.6399 8.44387C9.0016 8.44705 9.30075 8.70584 9.36744 9.04739H9.36842V9.05716L9.38111 9.18802V9.19778L9.37037 10.4517C9.36634 10.8643 9.02846 11.1965 8.61549 11.1929C8.25416 11.1894 7.95572 10.9295 7.88893 10.5884L7.98658 10.5699L7.88795 10.5884L7.88697 10.5786L7.87526 10.4478H7.87428V10.437L7.886 9.18509H7.88502L7.886 9.17532L7.90065 9.04446H7.89967L7.90162 9.03469L7.93971 8.91165C8.05136 8.63494 8.32346 8.44123 8.6399 8.44387ZM14.7815 9.54934C15.6312 8.96032 16.7823 9.00324 17.5891 9.6763C17.906 9.94091 17.9482 10.4128 17.6838 10.73C17.4192 11.0469 16.9473 11.0903 16.6301 10.8257C16.3438 10.5869 15.9355 10.571 15.634 10.7798V10.7808L15.5725 10.8277L15.5667 10.8316L15.4583 10.9048L15.4505 10.9097L15.4026 10.8218L15.4495 10.9097C15.1431 11.0745 14.7525 11.0076 14.5208 10.73C14.2897 10.4525 14.2934 10.0565 14.51 9.78469L14.5169 9.77591V9.77688L14.6087 9.68313L14.6145 9.67727L14.6194 9.67337L14.7786 9.55227L14.7815 9.54934Z" fill="currentColor"/>
</svg>
