<svg width="100%" height="100%" viewBox="0 0 25 25" fill="none" xmlns="http://www.w3.org/2000/svg">
<path d="M12.7715 8.5692V6.74534H13.7537V8.5692L13.758 8.73753C13.8017 9.57725 14.1709 10.3699 14.7914 10.9438L16.2743 12.3149C16.4131 12.4433 16.5956 12.5152 16.7846 12.5152H18.8471C19.0362 12.5152 19.2187 12.4433 19.3574 12.3149L20.8404 10.9438C21.5021 10.3317 21.878 9.4707 21.878 8.5692V6.63135H22.8603V8.5692C22.8603 9.74443 22.369 10.866 21.5062 11.664L20.0233 13.0362C19.7031 13.3322 19.2832 13.4964 18.8471 13.4964H16.7846C16.3484 13.4964 15.9276 13.3324 15.6074 13.0362L14.1245 11.664C13.3159 10.9158 12.8349 9.88308 12.7779 8.78866L12.7715 8.5692Z" fill="currentColor"/>
<path d="M21.8755 4.65862C21.8755 4.22187 21.7279 3.81589 21.5292 3.48887C21.3239 3.15101 21.0941 2.94618 20.987 2.88589C20.8533 2.81065 20.7629 2.67668 20.7419 2.52474C20.721 2.37258 20.7729 2.21892 20.8815 2.11032L21.0967 1.89406C20.9754 1.85486 20.8408 1.81334 20.6951 1.77261C20.0193 1.58378 19.1232 1.40589 18.2064 1.43063C17.313 1.45482 16.6282 1.71216 16.1706 1.96011C15.9414 2.08426 15.7692 2.20676 15.6571 2.29463C15.6015 2.33817 15.5608 2.37312 15.5356 2.39583C15.523 2.40721 15.5137 2.41577 15.509 2.42034L15.5068 2.42247V2.42353H15.5058V2.4246H15.5047L15.4483 2.4736C15.3033 2.5804 15.109 2.59976 14.9433 2.51941C14.9384 2.51732 14.9291 2.51452 14.9166 2.50983C14.8896 2.49966 14.8478 2.48572 14.7963 2.4736C14.689 2.44844 14.5617 2.43644 14.4404 2.46295C14.33 2.48718 14.205 2.54602 14.0857 2.69946C13.9754 2.84125 13.8558 3.08187 13.7767 3.48461L13.7458 3.66785C13.7443 3.67804 13.7427 3.68867 13.7405 3.69875C13.5817 4.44443 13.5789 5.34109 13.6212 6.07233C13.6261 6.15691 13.6335 6.23866 13.6393 6.31735C13.8024 6.13323 13.953 5.94499 14.0495 5.77829L14.401 5.19875C14.5227 5.00445 14.6441 4.81479 14.7515 4.65009C14.8593 4.48489 14.9534 4.34221 15.021 4.241C15.0547 4.19061 15.0822 4.15057 15.1009 4.12275C15.1103 4.10883 15.1183 4.09708 15.1233 4.08973C15.1255 4.0865 15.1274 4.08409 15.1286 4.08227C15.1293 4.0813 15.1294 4.07959 15.1297 4.07907H15.1308C15.2728 3.87019 15.5504 3.80248 15.7721 3.92353L15.7732 3.9246C15.7747 3.92544 15.778 3.92687 15.7817 3.92886C15.7891 3.93282 15.8005 3.93906 15.8158 3.94697C15.8472 3.96328 15.895 3.98785 15.9554 4.01728C16.0764 4.07624 16.2494 4.15573 16.4539 4.23887C16.8706 4.40822 17.3887 4.57779 17.8612 4.62453L17.9859 4.63198C18.2637 4.63386 18.4661 4.54201 18.7529 4.41252C19.0936 4.25873 19.5339 4.06476 20.173 4.17495L20.3499 4.21437C20.7544 4.32566 21.0979 4.56519 21.3779 4.83333C21.5626 5.0101 21.7276 5.2093 21.8755 5.41181C21.8754 5.15003 21.8755 4.89188 21.8755 4.65862ZM14.9443 2.52048C14.9462 2.5213 14.9475 2.52154 14.9475 2.52154H14.9454L14.9443 2.52048H14.9433V2.51941L14.9443 2.52048ZM22.8577 7.39015L22.8492 7.47858C22.8127 7.67843 22.655 7.83879 22.4486 7.87382C22.2422 7.90886 22.0397 7.80979 21.9394 7.63305L21.9032 7.55208C21.9029 7.5515 21.9026 7.55042 21.9021 7.54889C21.9008 7.54543 21.8985 7.53952 21.8957 7.53184C21.8899 7.51617 21.8811 7.49166 21.8691 7.46046C21.8447 7.39752 21.8069 7.30559 21.7583 7.19413C21.6605 6.97014 21.5178 6.67132 21.3353 6.36849C21.1515 6.06344 20.9363 5.76866 20.6993 5.54179C20.4905 5.3419 20.286 5.21457 20.0899 5.16039L20.0068 5.14228C19.6752 5.0851 19.4665 5.16753 19.1567 5.30741C18.8746 5.4348 18.5059 5.6126 17.9933 5.61316L17.7654 5.60251C17.1552 5.54221 16.5351 5.33191 16.0843 5.14867C15.9429 5.09123 15.8152 5.03478 15.7061 4.98461C15.6652 5.04641 15.6212 5.11466 15.574 5.18703C15.468 5.34954 15.3499 5.53312 15.2331 5.7197L14.8996 6.27048C14.6883 6.6355 14.3473 7.01327 14.0835 7.28255C13.9477 7.42125 13.8242 7.53977 13.7341 7.62346C13.689 7.66542 13.6514 7.69922 13.6255 7.72254C13.6128 7.73391 13.6028 7.74286 13.5956 7.74917C13.5922 7.75222 13.5891 7.75486 13.5871 7.75663C13.5861 7.75752 13.5845 7.75822 13.5839 7.75876V7.75983H13.5828C13.4483 7.8773 13.2607 7.91229 13.0928 7.85144C12.9459 7.79816 12.8345 7.679 12.7902 7.53184L12.7753 7.46686V7.46473C12.7751 7.46343 12.7746 7.46157 12.7742 7.4594C12.7735 7.45452 12.7724 7.44699 12.771 7.43809C12.7684 7.42029 12.7639 7.39429 12.7593 7.36139C12.7501 7.29557 12.7381 7.20049 12.7242 7.08227C12.6963 6.84562 12.6623 6.51329 12.64 6.12879C12.596 5.36804 12.5933 4.36738 12.7796 3.49313C12.8731 2.88526 13.0543 2.42678 13.3112 2.09647C13.579 1.75228 13.9079 1.57474 14.2295 1.50414C14.5402 1.43596 14.8242 1.47101 15.02 1.51693C15.029 1.51904 15.0379 1.52221 15.0466 1.52438C15.0482 1.52313 15.0503 1.52245 15.0519 1.52119C15.2015 1.40401 15.4193 1.25085 15.7029 1.09718C16.2712 0.789296 17.1059 0.478522 18.1798 0.449456C19.2297 0.421093 20.2299 0.622794 20.9593 0.826587C21.326 0.929078 21.6297 1.03388 21.8424 1.11316C21.9485 1.15271 22.0323 1.18615 22.0907 1.21011C22.1198 1.22208 22.1428 1.23203 22.1588 1.23887C22.1668 1.24228 22.1735 1.24435 22.178 1.24633C22.1801 1.24725 22.182 1.24787 22.1833 1.24846L22.1855 1.24953L22.1865 1.25059L22.2888 1.31132C22.3824 1.38426 22.4478 1.49028 22.4699 1.60961C22.4919 1.72859 22.469 1.85015 22.4081 1.95159L22.3335 2.0464L21.9522 2.42673C22.0998 2.58457 22.2432 2.77197 22.3687 2.97858C22.638 3.42182 22.8577 4.0027 22.8577 4.65862V7.39015Z" fill="currentColor"/>
<path d="M2.10547 19.2357V17.4118H3.08771V19.2357L3.09197 19.404C3.13568 20.2438 3.50486 21.0364 4.12536 21.6104L5.60831 22.9814C5.74708 23.1098 5.92958 23.1817 6.11861 23.1817H8.18111C8.37014 23.1817 8.55264 23.1098 8.69141 22.9814L10.1744 21.6104C10.8361 20.9982 11.212 20.1372 11.212 19.2357V17.2979H12.1942V19.2357C12.1942 20.4109 11.7029 21.5325 10.8402 22.3305L9.35724 23.7027C9.03708 23.9987 8.61714 24.1629 8.18111 24.1629H6.11861C5.6824 24.1629 5.26162 23.9989 4.94141 23.7027L3.45845 22.3305C2.64985 21.5823 2.16884 20.5496 2.11186 19.4552L2.10547 19.2357Z" fill="currentColor"/>
<path d="M11.2114 15.3251C11.2114 14.8884 11.0638 14.4824 10.8652 14.1554C10.6599 13.8175 10.4301 13.6127 10.3229 13.5524C10.1892 13.4772 10.0989 13.3432 10.0779 13.1912C10.057 13.0391 10.1088 12.8854 10.2174 12.7768L10.4326 12.5606C10.3113 12.5214 10.1767 12.4798 10.031 12.4391C9.35524 12.2503 8.45911 12.0724 7.54236 12.0971C6.64896 12.1213 5.96415 12.3787 5.50649 12.6266C5.27736 12.7508 5.10513 12.8733 4.99299 12.9611C4.93744 13.0047 4.89677 13.0396 4.87155 13.0623C4.85891 13.0737 4.84968 13.0823 4.84491 13.0868L4.84278 13.089V13.09H4.84172V13.0911H4.84065L4.78419 13.1401C4.63922 13.2469 4.44497 13.2663 4.27922 13.1859C4.27435 13.1838 4.26504 13.181 4.25258 13.1763C4.22556 13.1662 4.18373 13.1522 4.1322 13.1401C4.02497 13.1149 3.89765 13.1029 3.77638 13.1295C3.66595 13.1537 3.54094 13.2125 3.42162 13.366C3.31136 13.5078 3.19177 13.7484 3.11267 14.1511L3.08177 14.3344C3.08026 14.3445 3.07859 14.3552 3.07645 14.3652C2.91761 15.1109 2.91482 16.0076 2.95713 16.7388C2.96202 16.8234 2.9694 16.9052 2.97524 16.9839C3.13837 16.7997 3.2889 16.6115 3.38539 16.4448L3.73696 15.8652C3.8586 15.671 3.98004 15.4813 4.08745 15.3166C4.19521 15.1514 4.28931 15.0087 4.35699 14.9075C4.39068 14.8571 4.41811 14.8171 4.43689 14.7893C4.44628 14.7753 4.45427 14.7636 4.45926 14.7562C4.46144 14.753 4.46335 14.7506 4.46459 14.7488C4.46524 14.7478 4.4653 14.7461 4.46565 14.7456H4.46672C4.60878 14.5367 4.88634 14.469 5.10805 14.59L5.10912 14.5911C5.11068 14.5919 5.1139 14.5934 5.11764 14.5954C5.12508 14.5993 5.13648 14.6056 5.15173 14.6135C5.18316 14.6298 5.2309 14.6544 5.29129 14.6838C5.4123 14.7427 5.58531 14.8222 5.78987 14.9054C6.20651 15.0747 6.72468 15.2443 7.19719 15.291L7.32183 15.2985C7.59959 15.3004 7.80206 15.2085 8.08888 15.079C8.42954 14.9252 8.86982 14.7313 9.50897 14.8415L9.68582 14.8809C10.0904 14.9922 10.4338 15.2317 10.7139 15.4998C10.8985 15.6766 11.0635 15.8758 11.2114 16.0783C11.2114 15.8165 11.2114 15.5584 11.2114 15.3251ZM4.28028 13.187C4.28217 13.1878 4.28348 13.188 4.28348 13.188H4.28135L4.28028 13.187H4.27922V13.1859L4.28028 13.187ZM12.1936 18.0567L12.1851 18.1451C12.1487 18.3449 11.9909 18.5053 11.7845 18.5403C11.5781 18.5754 11.3756 18.4763 11.2753 18.2996L11.2391 18.2186C11.2389 18.218 11.2386 18.2169 11.238 18.2154C11.2368 18.2119 11.2344 18.206 11.2316 18.1983C11.2259 18.1827 11.2171 18.1582 11.205 18.127C11.1806 18.064 11.1429 17.9721 11.0942 17.8606C10.9964 17.6366 10.8538 17.3378 10.6713 17.035C10.4874 16.7299 10.2722 16.4352 10.0353 16.2083C9.82642 16.0084 9.62196 15.8811 9.42588 15.8269L9.34278 15.8088C9.01118 15.7516 8.80247 15.834 8.49264 15.9739C8.21049 16.1013 7.8418 16.2791 7.32929 16.2797L7.1013 16.269C6.49118 16.2087 5.87102 15.9984 5.4202 15.8152C5.27888 15.7577 5.15118 15.7013 5.042 15.6511C5.00119 15.7129 4.9571 15.7812 4.9099 15.8535C4.80391 16.016 4.68581 16.1996 4.56899 16.3862L4.23554 16.937C4.02424 17.302 3.68324 17.6798 3.41949 17.9491C3.28363 18.0878 3.16013 18.2063 3.07005 18.29C3.02489 18.3319 2.98734 18.3657 2.96139 18.389C2.94873 18.4004 2.93869 18.4094 2.93156 18.4157C2.92812 18.4187 2.92505 18.4214 2.92304 18.4231C2.92202 18.424 2.92045 18.4247 2.91984 18.4253V18.4263H2.91878C2.78425 18.5438 2.59663 18.5788 2.42872 18.5179C2.28185 18.4647 2.17048 18.3455 2.12616 18.1983L2.11125 18.1334V18.1312C2.11104 18.1299 2.11052 18.1281 2.11018 18.1259C2.10943 18.121 2.10832 18.1135 2.10699 18.1046C2.10432 18.0868 2.09987 18.0608 2.09527 18.0279C2.08605 17.9621 2.07403 17.867 2.06011 17.7488C2.03226 17.5121 1.9982 17.1798 1.97595 16.7953C1.93194 16.0345 1.9292 15.0339 2.11551 14.1596C2.20903 13.5518 2.39028 13.0933 2.64711 12.763C2.91493 12.4188 3.2438 12.2412 3.56544 12.1706C3.87614 12.1025 4.16012 12.1375 4.35592 12.1834C4.36493 12.1855 4.37382 12.1887 4.38255 12.1909C4.38415 12.1896 4.38627 12.189 4.38788 12.1877C4.53744 12.0705 4.7552 11.9174 5.0388 11.7637C5.60709 11.4558 6.44185 11.145 7.51572 11.116C8.56565 11.0876 9.56588 11.2893 10.2952 11.4931C10.6619 11.5956 10.9657 11.7004 11.1784 11.7797C11.2844 11.8192 11.3683 11.8527 11.4266 11.8766C11.4557 11.8886 11.4788 11.8985 11.4948 11.9054C11.5027 11.9088 11.5094 11.9109 11.5139 11.9128C11.516 11.9138 11.5179 11.9144 11.5193 11.915L11.5214 11.916L11.5225 11.9171L11.6247 11.9778C11.7184 12.0508 11.7837 12.1568 11.8059 12.2761C11.8278 12.3951 11.8049 12.5167 11.7441 12.6181L11.6695 12.7129L11.2881 13.0932C11.4357 13.2511 11.5791 13.4385 11.7046 13.6451C11.9739 14.0883 12.1936 14.6692 12.1936 15.3251V18.0567Z" fill="currentColor"/>
<path d="M9.21911 3.78462L6.75071 3.78462L6.75071 8.193C6.75071 8.53171 6.47578 8.80664 6.13707 8.80664C5.79836 8.80664 5.52344 8.53171 5.52344 8.193L5.52344 3.17099L5.53622 3.04741C5.59338 2.7679 5.84067 2.55735 6.13707 2.55735L9.2191 2.55735C9.55769 2.55749 9.83168 2.83236 9.83168 3.17099C9.83164 3.50958 9.55767 3.78448 9.21911 3.78462Z" fill="currentColor"/>
<path d="M7.43906 6.02334L7.53549 5.94499C7.77354 5.78781 8.0973 5.81377 8.30688 6.02334C8.51645 6.23291 8.54241 6.55668 8.38522 6.79473L8.30688 6.89115L6.57125 8.62678C6.33175 8.86628 5.94294 8.86628 5.70344 8.62678C5.46393 8.38727 5.46393 7.99847 5.70344 7.75896L7.43906 6.02334Z" fill="currentColor"/>
<path d="M3.96523 6.89102L3.88689 6.79459C3.7297 6.55654 3.75566 6.23277 3.96523 6.0232C4.1748 5.81363 4.49857 5.78767 4.73662 5.94486L4.83305 6.0232L6.56867 7.75883C6.80818 7.99833 6.80818 8.38714 6.56867 8.62664C6.32917 8.86614 5.94036 8.86614 5.70086 8.62664L3.96523 6.89102Z" fill="currentColor"/>
<path d="M16.4 21.0787L18.8684 21.0787L18.8684 16.6703C18.8684 16.3316 19.1434 16.0566 19.4821 16.0566C19.8208 16.0566 20.0957 16.3316 20.0957 16.6703L20.0957 21.6923L20.0829 21.8159C20.0258 22.0954 19.7785 22.3059 19.4821 22.3059L16.4 22.3059C16.0614 22.3058 15.7875 22.0309 15.7875 21.6923C15.7875 21.3537 16.0615 21.0788 16.4 21.0787Z" fill="currentColor"/>
<path d="M18.1801 18.8399L18.0837 18.9183C17.8456 19.0755 17.5218 19.0495 17.3123 18.8399C17.1027 18.6304 17.0767 18.3066 17.2339 18.0686L17.3123 17.9721L19.0479 16.2365C19.2874 15.997 19.6762 15.997 19.9157 16.2365C20.1552 16.476 20.1552 16.8648 19.9157 17.1043L18.1801 18.8399Z" fill="currentColor"/>
<path d="M21.65 17.9723L21.7283 18.0687C21.8855 18.3067 21.8596 18.6305 21.65 18.8401C21.4404 19.0497 21.1167 19.0756 20.8786 18.9184L20.7822 18.8401L19.0466 17.1045C18.8071 16.865 18.8071 16.4761 19.0466 16.2366C19.2861 15.9971 19.6749 15.9971 19.9144 16.2366L21.65 17.9723Z" fill="currentColor"/>
</svg>
