<svg width="24" height="24" viewBox="0 0 24 24" fill="none" xmlns="http://www.w3.org/2000/svg">
<path d="M12.0008 2H8.70078C6.80078 2 5.30078 3.5 5.30078 5.3C5.30078 7.1 6.80078 8.6 8.60078 8.6H12.0008V2Z" stroke="currentColor" stroke-width="1.5" stroke-miterlimit="10"/>
<path d="M12.0004 8.7002H8.70039C6.90039 8.7002 5.40039 10.2002 5.40039 12.0002C5.40039 13.8002 6.90039 15.3002 8.70039 15.3002H12.0004V8.7002Z" stroke="currentColor" stroke-width="1.5" stroke-miterlimit="10"/>
<path d="M12.0004 15.2998H8.70039C6.90039 15.2998 5.40039 16.7998 5.40039 18.5998C5.40039 20.3998 6.90039 21.8998 8.70039 21.8998C10.5004 21.8998 12.0004 20.3998 12.0004 18.5998V15.2998Z" stroke="currentColor" stroke-width="1.5" stroke-miterlimit="10"/>
<path d="M12 2H15.3C17.1 2 18.6 3.5 18.6 5.3C18.6 7.1 17.1 8.6 15.3 8.6H12V2Z" stroke="currentColor" stroke-width="1.5" stroke-miterlimit="10"/>
<path d="M15.3 8.7002C17.1 8.7002 18.6 10.2002 18.6 12.0002C18.6 13.8002 17.1 15.3002 15.3 15.3002C13.5 15.3002 12 13.8002 12 12.0002C12 10.2002 13.5 8.7002 15.3 8.7002Z" stroke="currentColor" stroke-width="1.5" stroke-miterlimit="10"/>
</svg>
