<svg width="100%" height="100%" viewBox="0 0 24 24" fill="none" xmlns="http://www.w3.org/2000/svg">
<g clip-path="url(#clip0_1078_66127)">
<path d="M9.68652 9.44775C9.68652 8.73157 9.09919 8.14129 8.36328 8.14111C7.62721 8.14111 7.03906 8.73148 7.03906 9.44775C7.0391 10.164 7.62721 10.7534 8.36328 10.7534C9.09918 10.7532 9.68648 10.1639 9.68652 9.44775ZM10.8867 9.44775C10.8867 10.8369 9.75167 11.9534 8.36328 11.9536C6.97477 11.9536 5.83988 10.837 5.83984 9.44775C5.83984 8.05853 6.97472 6.94189 8.36328 6.94189C9.75171 6.94207 10.8867 8.05866 10.8867 9.44775Z" fill="currentColor"/>
<path d="M7.497 13.2002C8.07477 13.1441 8.6538 13.1443 9.22259 13.2002L9.22357 13.1992C10.9908 13.3562 12.4111 14.6975 12.6591 16.4346L12.6796 16.6035V16.7256C12.6503 17.003 12.429 17.2307 12.1406 17.2588C11.8519 17.2869 11.5908 17.1058 11.5087 16.8389L11.4853 16.7197L11.4531 16.4912C11.2547 15.4407 10.4194 14.6164 9.35052 14.4258L9.11712 14.3945H9.11126C8.74271 14.358 8.36794 14.3489 7.99114 14.3672L7.61321 14.3945C6.34914 14.5156 5.36134 15.4877 5.24114 16.7197L5.21673 16.8389C5.13462 17.1057 4.87357 17.2869 4.58489 17.2588C4.25531 17.2265 4.01372 16.9332 4.04583 16.6035L4.06634 16.4346C4.31461 14.6957 5.73663 13.3692 7.497 13.2002Z" fill="currentColor"/>
</g>
<path d="M7.12989 20.5874C5.80983 20.5874 4.75912 20.5885 3.9375 20.478C3.20369 20.3794 2.58397 20.1844 2.0752 19.772L1.86328 19.5815C1.31791 19.0362 1.0796 18.3461 0.9668 17.5073C0.85633 16.6857 0.857436 15.635 0.857425 14.3149L0.857426 9.88916C0.857415 8.56912 0.855374 7.5184 0.965824 6.69677C1.0786 5.85788 1.31786 5.16798 1.86328 4.62256L2.0752 4.43213C2.58401 4.0196 3.20361 3.82376 3.9375 3.72509C4.75913 3.61464 5.80985 3.6167 7.12989 3.6167L15.1767 3.6167L15.1767 4.81592L7.12989 4.81592C5.77607 4.81592 4.82071 4.81737 4.09766 4.91455C3.47983 4.99761 3.10048 5.14331 2.82422 5.36963L2.71192 5.47119C2.42662 5.75649 2.25017 6.15111 2.15528 6.85693C2.05811 7.57998 2.05663 8.53535 2.05664 9.88916L2.05664 14.3149C2.05665 15.6688 2.05807 16.6241 2.15528 17.3472C2.25018 18.053 2.42662 18.4476 2.71192 18.7329L2.82422 18.8345C3.10048 19.0608 3.47988 19.2055 4.09766 19.2886C4.82072 19.3858 5.77599 19.3872 7.12989 19.3872L15.1767 19.3872L15.1767 20.5874L7.12989 20.5874ZM23.3115 14.3149C23.3115 15.635 23.3126 16.6857 23.2021 17.5073C23.1034 18.2412 22.9077 18.8608 22.4951 19.3696L22.3047 19.5815C21.7593 20.1268 21.0692 20.3653 20.2304 20.478C19.6802 20.552 19.0274 20.5738 18.2597 20.5815L18.2597 19.3813C19.0001 19.3738 19.587 19.3535 20.0703 19.2886C20.7759 19.1937 21.1707 19.0181 21.456 18.7329L21.5576 18.6196C21.7837 18.3434 21.9296 17.9647 22.0127 17.3472C22.1099 16.6241 22.1113 15.6689 22.1113 14.3149L22.1113 9.88916C22.1113 8.53536 22.1098 7.57998 22.0127 6.85693C21.9296 6.23905 21.7839 5.85976 21.5576 5.58349L21.456 5.47119C21.1707 5.18594 20.776 5.00943 20.0703 4.91455C19.587 4.84961 19.0001 4.82935 18.2597 4.82178L18.2597 3.62158C19.0274 3.62905 19.6802 3.65114 20.2304 3.7251C21.0693 3.83788 21.7593 4.0772 22.3047 4.62256L22.4951 4.83447C22.9077 5.3433 23.1034 5.96285 23.2021 6.69678C23.3126 7.51839 23.3115 8.56913 23.3115 9.88916L23.3115 14.3149Z" fill="currentColor"/>
<path d="M14.207 8.48975C13.8758 8.48975 13.6077 8.22129 13.6074 7.89014C13.6074 7.55877 13.8756 7.29053 14.207 7.29053L15.1748 7.29053L15.1748 8.48975L14.207 8.48975ZM20.1201 7.88917C20.1201 8.17908 19.9149 8.42205 19.6416 8.47803L19.5205 8.48975L18.2578 8.48975L18.2578 7.29053L19.5205 7.29053L19.6416 7.30225C19.9147 7.35824 20.1199 7.5995 20.1201 7.88917Z" fill="currentColor"/>
<path d="M15.171 12.691C14.8859 12.6448 14.6683 12.3993 14.668 12.1012C14.668 11.8028 14.8858 11.5577 15.171 11.5113L15.171 12.691ZM20.1182 12.1012C20.118 12.3908 19.9128 12.633 19.6397 12.689L19.5186 12.7008L18.254 12.7008L18.254 11.5015L19.5186 11.5015L19.6397 11.5133C19.9129 11.5694 20.1182 11.8113 20.1182 12.1012Z" fill="currentColor"/>
<path d="M20.1181 16.314C20.1181 16.604 19.9122 16.846 19.6386 16.9019L19.5176 16.9136L18.2539 16.9136L18.2539 15.7144L19.5176 15.7144L19.6386 15.7261C19.912 15.7819 20.1179 16.0241 20.1181 16.314Z" fill="currentColor"/>
<path fill-rule="evenodd" clip-rule="evenodd" d="M16.7168 1.07568C17.0523 1.07568 17.3242 1.38762 17.3242 1.77242L17.3242 22.6234C17.3242 23.0082 17.0523 23.3202 16.7168 23.3202C16.3814 23.3202 16.1094 23.0082 16.1094 22.6234L16.1094 1.77242C16.1094 1.38762 16.3814 1.07568 16.7168 1.07568Z" fill="currentColor"/>
<defs>
<clipPath id="clip0_1078_66127">
<rect width="10" height="12" fill="white" transform="translate(3.2832 6.11279)"/>
</clipPath>
</defs>
</svg>
