<svg width="100%" height="100%" viewBox="0 0 25 25" fill="none" xmlns="http://www.w3.org/2000/svg">
<path d="M12 1.64648C17.9342 1.64648 22.75 6.46227 22.75 12.3965C22.75 12.8107 22.4142 13.1465 22 13.1465C21.5858 13.1465 21.25 12.8107 21.25 12.3965C21.25 11.6201 21.1531 10.8662 20.9727 10.1455C20.9272 10.1438 20.8815 10.1382 20.8359 10.1279L20.7627 10.1074L20.2285 9.93555C19.1745 9.60723 18.1053 9.34467 17.0273 9.14551C17.1486 10.2256 17.21 11.311 17.21 12.3965C17.2098 12.8106 16.8741 13.1465 16.46 13.1465C16.046 13.1463 15.7101 12.8105 15.71 12.3965C15.71 11.2302 15.6349 10.0637 15.4873 8.9043C13.1707 8.61001 10.8254 8.60988 8.50879 8.9043C8.21413 11.2213 8.21454 13.5667 8.50879 15.8838C9.48411 16.0079 10.4643 16.0808 11.4453 16.1006L12 16.1064L12.0771 16.1104C12.4551 16.149 12.7499 16.4683 12.75 16.8564C12.75 17.2446 12.4551 17.5639 12.0771 17.6025L12 17.6064L11.415 17.6006C10.524 17.5826 9.6338 17.5227 8.74707 17.4229C8.97993 18.6838 9.30131 19.9324 9.71094 21.1592C9.73371 21.2275 9.74437 21.2979 9.74707 21.3682C10.4684 21.549 11.2229 21.6465 12 21.6465C12.4142 21.6465 12.75 21.9823 12.75 22.3965C12.75 22.8107 12.4142 23.1465 12 23.1465C6.06579 23.1465 1.25 18.3307 1.25 12.3965C1.25 6.46227 6.06579 1.64648 12 1.64648ZM3.73242 16.542C4.62627 18.3198 6.07581 19.769 7.85352 20.6631C7.89413 20.6551 7.93582 20.6486 7.97852 20.6475C7.64393 19.513 7.38014 18.363 7.18652 17.2041C6.02961 17.0103 4.88151 16.7477 3.74902 16.415C3.74797 16.4585 3.74056 16.5006 3.73242 16.542ZM6.96973 9.14453C5.71012 9.37729 4.46283 9.69823 3.2373 10.1074L3.16406 10.1279C3.11823 10.1383 3.072 10.1439 3.02637 10.1455C2.84595 10.8662 2.75 11.6202 2.75 12.3965C2.75 13.1729 2.84689 13.9267 3.02734 14.6475C3.09761 14.65 3.168 14.6619 3.23633 14.6846L3.77148 14.8564C4.82434 15.1829 5.89218 15.4447 6.96875 15.6436C6.72691 13.484 6.72761 11.304 6.96973 9.14453ZM7.85449 4.12891C6.02543 5.0485 4.54194 6.55519 3.65527 8.40332C4.81828 8.05608 5.99765 7.78283 7.18652 7.58398C7.38009 6.42641 7.64426 5.27777 7.97852 4.14453C7.93615 4.14336 7.89482 4.13679 7.85449 4.12891ZM15.9902 4.05078C16.3362 5.21409 16.6097 6.3936 16.8086 7.58301C17.9988 7.78189 19.1794 8.05572 20.3438 8.40332C19.432 6.50309 17.8909 4.96185 15.9902 4.05078ZM12 3.14648C11.223 3.14648 10.4683 3.24308 9.74707 3.42383C9.74445 3.49441 9.73382 3.56519 9.71094 3.63379C9.30184 4.85899 8.98084 6.10594 8.74805 7.36523C10.9074 7.12311 13.0877 7.12247 15.2471 7.36426C15.0482 6.288 14.7863 5.22053 14.46 4.16797L14.2881 3.63281L14.2676 3.55859C14.2575 3.51339 14.2516 3.46786 14.25 3.42285C13.5296 3.24258 12.776 3.14648 12 3.14648Z" fill="currentColor"/>
<path d="M18.2002 14.6465C20.3816 14.6466 22.1504 16.4152 22.1504 18.5967C22.1504 19.4178 21.8986 20.1797 21.4697 20.8115C21.471 20.8125 21.4724 20.8134 21.4736 20.8145L21.5303 20.8662L22.5303 21.8662L22.582 21.9229C22.8223 22.2174 22.8049 22.6522 22.5303 22.9268C22.2557 23.2014 21.8209 23.2188 21.5264 22.9785L21.4697 22.9268L20.4697 21.9268L20.418 21.8701C20.4169 21.8689 20.4161 21.8675 20.415 21.8662C19.7832 22.2951 19.0213 22.5468 18.2002 22.5469C16.0187 22.5469 14.2501 20.7781 14.25 18.5967C14.25 16.4152 16.0187 14.6465 18.2002 14.6465ZM18.2002 16.1465C16.8471 16.1465 15.75 17.2436 15.75 18.5967C15.7501 19.9497 16.8472 21.0469 18.2002 21.0469C19.5531 21.0468 20.6503 19.9496 20.6504 18.5967C20.6504 17.2436 19.5532 16.1466 18.2002 16.1465Z" fill="currentColor"/>
</svg>
