<svg width="24" height="24" viewBox="0 0 24 24" fill="none" xmlns="http://www.w3.org/2000/svg">
<path d="M9 8.9999V16.8999C9 18.3999 7.4 19.3999 6 18.5999L3.5 17.1999C3.2 17.0999 3 16.7999 3 16.3999V7.5999C3 7.1999 3.2 6.8999 3.5 6.6999L11.5 2.2999C11.8 2.0999 12.2 2.0999 12.5 2.2999L20.5 6.6999C20.8 6.8999 21 7.1999 21 7.5999V16.3999C21 16.7999 20.8 17.0999 20.5 17.2999L12.5 21.6999C12.2 21.8999 11.8 21.8999 11.5 21.6999L10 20.9999" stroke="currentColor" stroke-width="1.5" stroke-miterlimit="10" stroke-linecap="round" stroke-linejoin="round"/>
<path d="M17.0008 10.8C17.0008 9.8 16.2008 9 15.3008 9H13.5008C12.5008 9 11.8008 9.8 11.8008 10.7C11.8008 11.7 12.6008 12.4 13.5008 12.4H15.3008C16.3008 12.4 17.0008 13.2 17.0008 14.1C17.0008 15.1 16.2008 15.8 15.3008 15.8H13.5008C12.5008 15.8 11.8008 15 11.8008 14.1" stroke="currentColor" stroke-width="1.5" stroke-miterlimit="10" stroke-linecap="round" stroke-linejoin="round"/>
</svg>
