<svg width="24" height="24" viewBox="0 0 24 24" fill="none" xmlns="http://www.w3.org/2000/svg">
<path d="M9 22H15C20 22 22 20 22 15V9C22 4 20 2 15 2H9C4 2 2 4 2 9V15C2 20 4 22 9 22Z" stroke="currentColor" stroke-width="1.5" stroke-linecap="round" stroke-linejoin="round"/>
<path d="M16.2792 13.6101C15.1492 14.7401 13.5292 15.0901 12.0992 14.6401L9.50922 17.2201C9.32922 17.4101 8.95922 17.5301 8.68922 17.4901L7.48922 17.3301C7.08922 17.2801 6.72922 16.9001 6.66922 16.5101L6.50922 15.3101C6.46922 15.0501 6.59922 14.6801 6.77922 14.4901L9.35922 11.9101C8.91922 10.4801 9.25922 8.86014 10.3892 7.73014C12.0092 6.11014 14.6492 6.11014 16.2792 7.73014C17.8992 9.34014 17.8992 11.9801 16.2792 13.6101Z" stroke="currentColor" stroke-width="1.5" stroke-miterlimit="10" stroke-linecap="round" stroke-linejoin="round"/>
<path d="M10.4496 16.2799L9.59961 15.4199" stroke="currentColor" stroke-width="1.5" stroke-miterlimit="10" stroke-linecap="round" stroke-linejoin="round"/>
<path d="M13.3949 10.7002H13.4039" stroke="currentColor" stroke-width="2" stroke-linecap="round" stroke-linejoin="round"/>
</svg>
