<svg width="24" height="24" viewBox="0 0 24 24" fill="none" xmlns="http://www.w3.org/2000/svg">
<path d="M10.7509 2.44982C11.4409 1.85982 12.5708 1.85982 13.2708 2.44982L14.8509 3.80993C15.1509 4.06993 15.7108 4.2799 16.1108 4.2799H17.8109C18.8709 4.2799 19.7408 5.14983 19.7408 6.20983V7.90991C19.7408 8.29991 19.9508 8.86992 20.2108 9.16992L21.5709 10.7499C22.1609 11.4399 22.1609 12.5699 21.5709 13.2699L20.2108 14.8498C19.9508 15.1498 19.7408 15.7099 19.7408 16.1099V17.8099C19.7408 18.8699 18.8709 19.7399 17.8109 19.7399H16.1108C15.7208 19.7399 15.1509 19.9498 14.8509 20.2098L13.2708 21.5698C12.5808 22.1598 11.4509 22.1598 10.7509 21.5698L9.17087 20.2098C8.87087 19.9498 8.31086 19.7399 7.91086 19.7399H6.18085C5.12085 19.7399 4.25086 18.8699 4.25086 17.8099V16.0998C4.25086 15.7098 4.04087 15.1498 3.79087 14.8498L2.44086 13.2599C1.86086 12.5699 1.86086 11.4499 2.44086 10.7599L3.79087 9.16992C4.04087 8.86992 4.25086 8.30992 4.25086 7.91992V6.20983C4.25086 5.14983 5.12085 4.2799 6.18085 4.2799H7.91086C8.30086 4.2799 8.87087 4.06993 9.17087 3.80993L10.7509 2.44982Z" stroke="currentColor" stroke-width="1.5" stroke-linecap="round" stroke-linejoin="round"/>
<path d="M9.88916 14.82L11.3391 15.94C11.5291 16.13 11.9492 16.22 12.2292 16.22H13.9991C14.5591 16.22 15.1691 15.8 15.3091 15.24L16.4291 11.82C16.6591 11.17 16.2392 10.6 15.5392 10.6H13.6692C13.3892 10.6 13.1592 10.3701 13.1992 10.0401L13.4291 8.54008C13.5191 8.12008 13.2392 7.65005 12.8192 7.51005C12.4492 7.37005 11.9792 7.56 11.7892 7.84L9.86914 10.69" stroke="currentColor" stroke-width="1.5" stroke-miterlimit="10"/>
<path d="M7.5 14.8201V10.2401C7.5 9.58011 7.78 9.3501 8.44 9.3501H8.91C9.56 9.3501 9.85001 9.58011 9.85001 10.2401V14.8201C9.85001 15.4701 9.57 15.7101 8.91 15.7101H8.44C7.78 15.7101 7.5 15.4801 7.5 14.8201Z" stroke="currentColor" stroke-width="1.5" stroke-linecap="round" stroke-linejoin="round"/>
</svg>
