<svg width="100%" height="100%" viewBox="0 0 25 25" fill="none" xmlns="http://www.w3.org/2000/svg">
<path d="M13.3369 6.38428C15.07 6.42174 16.5741 7.09068 16.6445 7.12354H16.6436L17.0615 7.31299L17.1924 7.37256L17.0918 7.47412L16.3926 8.18018C16.8149 8.62286 17.2373 9.37739 17.2373 10.2466V12.522L17.2402 12.519V15.2993C17.2402 15.5882 17.1196 15.8655 16.9092 16.063L14.3916 18.4185V18.4194C14.2756 18.5269 14.1259 18.5854 13.9697 18.5854H11.3574C11.2008 18.5854 11.0506 18.5306 10.9355 18.4214L8.41699 16.0649C8.2063 15.8697 8.08691 15.5903 8.08691 15.3022V12.9321L8.07129 12.8423V12.8413C8.0578 12.7568 7.74752 10.7359 8.0752 9.17627C8.19488 8.35378 8.51082 7.76531 9.02832 7.48877H9.0293C9.44398 7.26954 9.86288 7.31807 10.125 7.38623C10.5221 7.06746 11.4982 6.4269 12.9883 6.38623L13.3369 6.38428ZM10.7109 10.5024C10.5058 10.8154 10.1893 11.3105 9.9541 11.7202C9.68568 12.187 9.17252 12.6993 8.91504 12.9419V15.3022C8.91504 15.3602 8.93889 15.4162 8.98047 15.4546L11.4365 17.7534H13.8877L16.3438 15.4546L16.3711 15.4224C16.3955 15.3878 16.4092 15.3457 16.4092 15.3022V12.8569C16.2975 12.5513 16.068 12.0381 15.7607 11.5815C15.6044 11.3493 15.4299 11.1343 15.2432 10.9692C15.0559 10.8038 14.8614 10.6929 14.665 10.6587C14.3364 10.6012 14.1334 10.6929 13.8428 10.8247C13.5706 10.9478 13.2514 11.0952 12.8086 11.0933L12.6113 11.0825C11.8855 11.0112 11.1314 10.7004 10.7109 10.5024ZM13.0098 7.22314C12.2089 7.24468 11.5833 7.47913 11.1582 7.70752C10.9459 7.82163 10.7834 7.93444 10.6748 8.01807C10.6206 8.0598 10.5797 8.0949 10.5527 8.11865C10.5393 8.13053 10.5289 8.13994 10.5225 8.146C10.5193 8.14896 10.5171 8.15144 10.5156 8.15283H10.5137L10.3564 8.31299L10.3066 8.36377L10.2422 8.33252L10.0381 8.23389V8.23291C10.0373 8.23255 10.0355 8.2325 10.0342 8.23193C10.0301 8.23019 10.0238 8.22728 10.0156 8.22412C9.99867 8.21758 9.97359 8.20869 9.94238 8.19971C9.87903 8.1815 9.79226 8.16357 9.69824 8.16357C9.60384 8.16359 9.5048 8.18104 9.41504 8.23096L9.41406 8.23193C9.17428 8.36137 8.98192 8.71906 8.89258 9.31787V9.32275L8.89062 9.33252C8.71546 10.1622 8.74689 11.1691 8.80176 11.8706C8.96785 11.6856 9.1306 11.485 9.2334 11.3052C9.61883 10.6308 10.1978 9.77025 10.2227 9.73389L10.3818 9.49561L10.4326 9.41943L10.5137 9.46338L10.7598 9.59912C10.7761 9.60736 11.8003 10.1659 12.6914 10.2544C13.015 10.2871 13.2264 10.189 13.499 10.0649C13.827 9.91572 14.2214 9.73262 14.8057 9.83447C15.4786 9.95206 16.0139 10.4936 16.4043 11.0571V10.2466C16.4043 9.83008 16.2658 9.45021 16.0898 9.15283C15.9122 8.85277 15.7026 8.64742 15.5732 8.57373L15.2119 8.36768L15.0986 8.30322L15.1904 8.21045L15.7236 7.67236C15.1035 7.46732 14.0742 7.19574 13.0098 7.22314Z" fill="currentColor" stroke="currentColor" stroke-width="0.2"/>
<rect x="2.5957" y="12.3564" width="0.385972" height="2.0933" rx="0.192986" transform="rotate(90 2.5957 12.3564)" fill="currentColor" stroke="currentColor" stroke-width="0.703642"/>
<rect x="12.3125" y="0.549805" width="0.385847" height="2.09397" rx="0.192923" fill="currentColor" stroke="currentColor" stroke-width="0.703642"/>
<rect x="24.5059" y="12.3564" width="0.385972" height="2.0933" rx="0.192986" transform="rotate(90 24.5059 12.3564)" fill="currentColor" stroke="currentColor" stroke-width="0.703642"/>
<rect x="12.3125" y="22.4585" width="0.385847" height="2.09397" rx="0.192923" fill="currentColor" stroke="currentColor" stroke-width="0.703642"/>
<rect width="0.385964" height="2.09334" rx="0.192982" transform="matrix(-0.258643 0.965973 -0.965879 -0.258995 2.99414 9.79688)" fill="currentColor" stroke="currentColor" stroke-width="0.703642"/>
<rect width="0.385855" height="2.09393" rx="0.192928" transform="matrix(0.965896 0.258932 -0.258706 0.965956 15.4258 0.908203)" fill="currentColor" stroke="currentColor" stroke-width="0.703642"/>
<rect width="0.385964" height="2.09334" rx="0.192982" transform="matrix(-0.258706 0.965956 -0.965896 -0.258932 24.1504 15.4692)" fill="currentColor" stroke="currentColor" stroke-width="0.703642"/>
<rect width="0.385855" height="2.09393" rx="0.192928" transform="matrix(0.965896 0.258932 -0.258706 0.965956 9.76172 22.0732)" fill="currentColor" stroke="currentColor" stroke-width="0.703642"/>
<rect width="0.385941" height="2.09347" rx="0.19297" transform="matrix(-0.499727 0.866183 -0.865868 -0.500273 4.02539 7.42627)" fill="currentColor" stroke="currentColor" stroke-width="0.703642"/>
<rect width="0.385878" height="2.0938" rx="0.192939" transform="matrix(0.865924 0.500175 -0.499825 0.866127 18.3379 2.06152)" fill="currentColor" stroke="currentColor" stroke-width="0.703642"/>
<rect width="0.385941" height="2.09347" rx="0.19297" transform="matrix(-0.499825 0.866127 -0.865924 -0.500176 22.9922 18.3838)" fill="currentColor" stroke="currentColor" stroke-width="0.703642"/>
<rect width="0.385878" height="2.0938" rx="0.192939" transform="matrix(0.865924 0.500175 -0.499825 0.866126 7.38477 21.0356)" fill="currentColor" stroke="currentColor" stroke-width="0.703642"/>
<rect width="0.385909" height="2.09364" rx="0.192955" transform="matrix(-0.706942 0.707272 -0.706942 -0.707272 5.63867 5.40625)" fill="currentColor" stroke="currentColor" stroke-width="0.703642"/>
<rect width="0.385909" height="2.09364" rx="0.192955" transform="matrix(0.706942 0.707272 -0.706942 0.707272 20.8555 3.92871)" fill="currentColor" stroke="currentColor" stroke-width="0.703642"/>
<rect width="0.385909" height="2.09364" rx="0.192955" transform="matrix(-0.706942 0.707272 -0.706942 -0.707272 21.1348 20.9038)" fill="currentColor" stroke="currentColor" stroke-width="0.703642"/>
<rect width="0.385909" height="2.09364" rx="0.192955" transform="matrix(0.706942 0.707272 -0.706942 0.707272 5.36523 19.4229)" fill="currentColor" stroke="currentColor" stroke-width="0.703642"/>
<rect width="0.385878" height="2.0938" rx="0.192939" transform="matrix(-0.865924 0.500175 -0.499825 -0.866126 7.72461 3.87256)" fill="currentColor" stroke="currentColor" stroke-width="0.703642"/>
<rect width="0.385941" height="2.09346" rx="0.19297" transform="matrix(0.499825 0.866126 -0.865924 0.500175 22.7988 6.38525)" fill="currentColor" stroke="currentColor" stroke-width="0.703642"/>
<rect width="0.385878" height="2.0938" rx="0.192939" transform="matrix(-0.865924 0.500175 -0.499825 -0.866126 18.6816 22.8516)" fill="currentColor" stroke="currentColor" stroke-width="0.703642"/>
<rect width="0.385941" height="2.09346" rx="0.19297" transform="matrix(0.499727 0.866183 -0.865868 0.500273 3.83789 17.3403)" fill="currentColor" stroke="currentColor" stroke-width="0.703642"/>
<rect width="0.385855" height="2.09393" rx="0.192928" transform="matrix(-0.965896 0.258932 -0.258706 -0.965956 10.1367 2.9292)" fill="currentColor" stroke="currentColor" stroke-width="0.703642"/>
<rect width="0.385964" height="2.09334" rx="0.192982" transform="matrix(0.258706 0.965956 -0.965896 0.258932 24.0449 9.26025)" fill="currentColor" stroke="currentColor" stroke-width="0.703642"/>
<rect width="0.385855" height="2.09393" rx="0.192928" transform="matrix(-0.965896 0.258932 -0.258706 -0.965956 15.8008 24.0981)" fill="currentColor" stroke="currentColor" stroke-width="0.703642"/>
<rect width="0.385964" height="2.09334" rx="0.192982" transform="matrix(0.258643 0.965973 -0.965879 0.258995 2.89648 14.9316)" fill="currentColor" stroke="currentColor" stroke-width="0.703642"/>
</svg>
