<svg width="24" height="24" viewBox="0 0 24 24" fill="none" xmlns="http://www.w3.org/2000/svg">
<path d="M15.0301 10.7702L20.6901 6.98022C21.2601 6.60022 21.4101 5.82022 21.0301 5.26022L19.2101 2.5502C18.8301 1.9802 18.0501 1.8302 17.4901 2.2102L11.8301 6.00021L15.0301 10.7702Z" stroke="currentColor" stroke-width="1.5" stroke-linecap="round" stroke-linejoin="round"/>
<path d="M12.1742 6.47932L7.39648 9.6792L9.95639 13.5013L14.7341 10.3015L12.1742 6.47932Z" stroke="currentColor" stroke-width="1.5" stroke-linecap="round" stroke-linejoin="round"/>
<path d="M5.83053 15.9004L9.78053 13.2604L7.54053 9.92041L3.59053 12.5604C3.13053 12.8704 3.01053 13.4904 3.32053 13.9504L4.45053 15.6304C4.75053 16.0804 5.37053 16.2004 5.83053 15.9004Z" stroke="currentColor" stroke-width="1.5" stroke-linecap="round" stroke-linejoin="round"/>
<path d="M12.0506 12.2002L7.56055 22.0002" stroke="currentColor" stroke-width="1.5" stroke-linecap="round" stroke-linejoin="round"/>
<path d="M12 12.2002L16.44 22.0002" stroke="currentColor" stroke-width="1.5" stroke-linecap="round" stroke-linejoin="round"/>
</svg>
