<svg width="24" height="24" viewBox="0 0 24 24" fill="none" xmlns="http://www.w3.org/2000/svg">
<path d="M22 10V9C22 4 20 2 15 2H9C4 2 2 4 2 9V15C2 20 4 22 9 22H11" stroke="currentColor" stroke-width="1.5" stroke-linecap="round" stroke-linejoin="round"/>
<path d="M15.2701 21.9996C16.0654 21.9996 16.7101 21.3549 16.7101 20.5596C16.7101 19.7643 16.0654 19.1196 15.2701 19.1196C14.4748 19.1196 13.8301 19.7643 13.8301 20.5596C13.8301 21.3549 14.4748 21.9996 15.2701 21.9996Z" stroke="currentColor" stroke-width="1.5" stroke-linecap="round" stroke-linejoin="round"/>
<path d="M21.9992 19.5998V13.9599C21.9992 12.7599 21.2492 12.5898 20.4792 12.7998L17.5892 13.5899C17.0692 13.7299 16.6992 14.1498 16.6992 14.7498V15.7598V16.4398V20.5698" stroke="currentColor" stroke-width="1.5" stroke-linecap="round" stroke-linejoin="round"/>
<path d="M20.5591 21.0397C21.3544 21.0397 21.9991 20.395 21.9991 19.5997C21.9991 18.8044 21.3544 18.1597 20.5591 18.1597C19.7638 18.1597 19.1191 18.8044 19.1191 19.5997C19.1191 20.395 19.7638 21.0397 20.5591 21.0397Z" stroke="currentColor" stroke-width="1.5" stroke-linecap="round" stroke-linejoin="round"/>
<path d="M16.7109 16.4297L22.0009 14.9897" stroke="currentColor" stroke-width="1.5" stroke-linecap="round" stroke-linejoin="round"/>
</svg>
