<svg width="24" height="24" viewBox="0 0 24 24" fill="none" xmlns="http://www.w3.org/2000/svg">
<path d="M11.9998 9.32C13.1898 9.32 14.1598 8.35 14.1598 7.16C14.1598 5.97 13.1898 5 11.9998 5C10.8098 5 9.83984 5.97 9.83984 7.16C9.83984 8.35 10.8098 9.32 11.9998 9.32Z" stroke="currentColor" stroke-width="1.5" stroke-linecap="round" stroke-linejoin="round"/>
<path d="M6.79086 19.0002C7.98086 19.0002 8.95086 18.0302 8.95086 16.8402C8.95086 15.6502 7.98086 14.6802 6.79086 14.6802C5.60086 14.6802 4.63086 15.6502 4.63086 16.8402C4.63086 18.0302 5.59086 19.0002 6.79086 19.0002Z" stroke="currentColor" stroke-width="1.5" stroke-linecap="round" stroke-linejoin="round"/>
<path d="M17.2108 19.0002C18.4008 19.0002 19.3708 18.0302 19.3708 16.8402C19.3708 15.6502 18.4008 14.6802 17.2108 14.6802C16.0208 14.6802 15.0508 15.6502 15.0508 16.8402C15.0508 18.0302 16.0208 19.0002 17.2108 19.0002Z" stroke="currentColor" stroke-width="1.5" stroke-linecap="round" stroke-linejoin="round"/>
</svg>
