<svg width="24" height="24" viewBox="0 0 24 24" fill="none" xmlns="http://www.w3.org/2000/svg">
<path d="M6.28016 21.9998C8.00328 21.9998 9.40016 20.6029 9.40016 18.8798C9.40016 17.1566 8.00328 15.7598 6.28016 15.7598C4.55703 15.7598 3.16016 17.1566 3.16016 18.8798C3.16016 20.6029 4.55703 21.9998 6.28016 21.9998Z" stroke="currentColor" stroke-width="1.5" stroke-linecap="round" stroke-linejoin="round"/>
<path d="M20.8404 16.7998V4.59985C20.8404 1.99985 19.2104 1.63985 17.5604 2.08985L11.3204 3.78985C10.1804 4.09985 9.40039 4.99985 9.40039 6.29985V8.46985V9.92985V18.8699" stroke="currentColor" stroke-width="1.5" stroke-linecap="round" stroke-linejoin="round"/>
<path d="M17.7196 19.9202C19.4427 19.9202 20.8396 18.5233 20.8396 16.8002C20.8396 15.077 19.4427 13.6802 17.7196 13.6802C15.9965 13.6802 14.5996 15.077 14.5996 16.8002C14.5996 18.5233 15.9965 19.9202 17.7196 19.9202Z" stroke="currentColor" stroke-width="1.5" stroke-linecap="round" stroke-linejoin="round"/>
<path d="M9.40039 9.5199L20.8404 6.3999" stroke="currentColor" stroke-width="1.5" stroke-linecap="round" stroke-linejoin="round"/>
</svg>
