<svg width="100%" height="100%" viewBox="0 0 23 22" fill="none" xmlns="http://www.w3.org/2000/svg">
<path d="M0.75 14.0938C0.75 13.6795 1.08579 13.3438 1.5 13.3438C1.91421 13.3438 2.25 13.6795 2.25 14.0938C2.25 16.5198 2.73974 18.0229 3.65527 18.9385C4.5708 19.854 6.07397 20.3438 8.5 20.3438C8.91421 20.3438 9.25 20.6795 9.25 21.0938C9.25 21.508 8.91421 21.8438 8.5 21.8438C5.92603 21.8438 3.9292 21.3335 2.59473 19.999C1.26026 18.6646 0.75 16.6677 0.75 14.0938ZM20.75 14.0938C20.75 13.6795 21.0858 13.3438 21.5 13.3438C21.9142 13.3438 22.25 13.6795 22.25 14.0938C22.25 16.6677 21.7397 18.6646 20.4053 19.999C19.0708 21.3335 17.074 21.8438 14.5 21.8438C14.0858 21.8438 13.75 21.508 13.75 21.0938C13.75 20.6795 14.0858 20.3438 14.5 20.3438C16.926 20.3438 18.4292 19.854 19.3447 18.9385C20.2603 18.0229 20.75 16.5198 20.75 14.0938ZM0.75 8.09375C0.75 5.51978 1.26026 3.52295 2.59473 2.18848C3.9292 0.854008 5.92603 0.34375 8.5 0.34375C8.91421 0.34375 9.25 0.679536 9.25 1.09375C9.25 1.50796 8.91421 1.84375 8.5 1.84375C6.07397 1.84375 4.5708 2.33349 3.65527 3.24902C2.73974 4.16455 2.25 5.66772 2.25 8.09375C2.25 8.50796 1.91421 8.84375 1.5 8.84375C1.08579 8.84375 0.75 8.50796 0.75 8.09375ZM20.75 8.09375C20.75 5.66772 20.2603 4.16455 19.3447 3.24902C18.4292 2.33349 16.926 1.84375 14.5 1.84375C14.0858 1.84375 13.75 1.50796 13.75 1.09375C13.75 0.679536 14.0858 0.34375 14.5 0.34375C17.074 0.34375 19.0708 0.854008 20.4053 2.18848C21.7397 3.52295 22.25 5.51978 22.25 8.09375C22.25 8.50796 21.9142 8.84375 21.5 8.84375C21.0858 8.84375 20.75 8.50796 20.75 8.09375Z" fill="currentColor"/>
<path d="M13.5216 4.64034C13.7365 4.52222 13.9961 4.52722 14.2042 4.64523L14.3028 4.71359L14.3067 4.71652L14.2716 4.75167L14.3067 4.71749L14.3995 4.81124L14.4044 4.81515H14.4034L14.6798 5.17257L14.6808 5.17355L14.9327 5.52706C17.4474 9.21209 17.2707 13.816 14.4034 17.3718L14.3995 17.3757L14.3067 17.4694L14.3038 17.4724L14.2716 17.4343L14.3028 17.4724C14.0831 17.6536 13.7723 17.6843 13.5216 17.5466L13.419 17.4773C13.1183 17.2345 13.0711 16.7937 13.3136 16.4929L13.5538 16.1823C15.8752 13.056 15.8755 9.12991 13.5538 6.00362V6.0046L13.3126 5.69308L13.3107 5.69015L13.2384 5.5798L13.2355 5.57491C13.0863 5.28578 13.1561 4.92201 13.419 4.70968L13.5216 4.64034ZM9.70421 6.1921C9.91944 6.0744 10.1789 6.08027 10.3868 6.19894L10.4855 6.2673L10.4894 6.27023L10.4542 6.30441L10.4552 6.30538L10.4894 6.2712L10.5821 6.36495L10.586 6.36886L10.7931 6.63741L10.794 6.63839L10.9825 6.90499C12.8099 9.59082 12.7448 12.9185 10.7872 15.5583L10.5851 15.82C10.373 16.0831 10.009 16.1525 9.71983 16.0036L9.60069 15.9265C9.29988 15.6844 9.25275 15.2443 9.49424 14.9431L9.65928 14.7282C11.3193 12.4931 11.3209 9.70354 9.66514 7.46749V7.46652L9.49327 7.24484L9.49034 7.24093V7.23995L9.42003 7.13058L9.4171 7.12667C9.2682 6.83742 9.33752 6.47353 9.60069 6.26144L9.70421 6.1921ZM6.66612 8.33859C6.88108 8.22039 7.14059 8.22532 7.34874 8.34347L7.44737 8.41183L7.45128 8.41476L7.41612 8.44894L7.4171 8.44991L7.45128 8.41573L7.54405 8.50948L7.54893 8.51437L7.76671 8.80734L7.76768 8.80929L7.94737 9.0964C8.72515 10.4575 8.66063 12.0782 7.75499 13.3962L7.54796 13.6745C7.33547 13.9374 6.97083 14.0066 6.68174 13.8571L6.56358 13.779C6.26282 13.5364 6.21578 13.0955 6.45811 12.7946L6.59678 12.6101C7.2467 11.6695 7.24813 10.5312 6.6046 9.58956V9.58859L6.45713 9.39034L6.45518 9.38839L6.38292 9.27804L6.37999 9.27316C6.23078 8.98409 6.30075 8.62032 6.56358 8.40792L6.66612 8.33859Z" fill="currentColor"/>
</svg>
