<svg xmlns="http://www.w3.org/2000/svg" width="24" height="24" viewBox="0 0 24 24" fill="none">
  <path d="M12 22.75C6.07 22.75 1.25 17.93 1.25 12C1.25 6.07 6.07 1.25 12 1.25C17.93 1.25 22.75 6.07 22.75 12C22.75 17.93 17.93 22.75 12 22.75ZM12 2.75C6.9 2.75 2.75 6.9 2.75 12C2.75 17.1 6.9 21.25 12 21.25C17.1 21.25 21.25 17.1 21.25 12C21.25 6.9 17.1 2.75 12 2.75Z" fill="#6E6E73"/>
  <path d="M10.1101 15.9263C9.8754 15.9263 9.69573 15.8639 9.57107 15.7393C9.4464 15.6146 9.38407 15.4423 9.38407 15.2223C9.38407 14.9949 9.4464 14.8226 9.57107 14.7053C9.69573 14.5879 9.8754 14.5293 10.1101 14.5293H11.2211V9.56827H12.0241L10.4181 10.5473C10.2494 10.6499 10.0917 10.6903 9.94507 10.6683C9.80573 10.6463 9.68473 10.5839 9.58207 10.4813C9.4794 10.3786 9.40973 10.2576 9.37307 10.1183C9.34373 9.9716 9.3584 9.8286 9.41707 9.68927C9.47573 9.5426 9.58573 9.41793 9.74707 9.31527L11.2761 8.39127C11.4301 8.29593 11.5841 8.21893 11.7381 8.16027C11.8994 8.1016 12.0571 8.07227 12.2111 8.07227C12.4311 8.07227 12.6034 8.13093 12.7281 8.24827C12.8601 8.35827 12.9261 8.5306 12.9261 8.76527V14.5293H13.9271C14.1544 14.5293 14.3304 14.5879 14.4551 14.7053C14.5797 14.8226 14.6421 14.9949 14.6421 15.2223C14.6421 15.4496 14.5797 15.6256 14.4551 15.7503C14.3304 15.8676 14.1544 15.9263 13.9271 15.9263H10.1101Z" fill="#6E6E73"/>
</svg>