<svg width="100%" height="100%" viewBox="0 0 25 25" fill="none" xmlns="http://www.w3.org/2000/svg">
<path d="M12.0166 5.51514L12.1377 5.52686C12.411 5.58286 12.6162 5.82484 12.6162 6.11475C12.6162 6.40465 12.411 6.64664 12.1377 6.70264L12.0166 6.71436H8.45703C8.12566 6.71436 7.85742 6.44612 7.85742 6.11475C7.85742 5.78338 8.12566 5.51514 8.45703 5.51514H12.0166Z" fill="currentColor"/>
<path d="M11.0195 16.4092C11.0195 16.0321 10.694 15.6846 10.2402 15.6846C9.78672 15.6848 9.46094 16.0322 9.46094 16.4092C9.46097 16.7861 9.78675 17.1326 10.2402 17.1328C10.6939 17.1328 11.0195 16.7863 11.0195 16.4092ZM12.2197 16.4092C12.2197 17.4947 11.3101 18.333 10.2402 18.333C9.1706 18.3328 8.26175 17.4945 8.26172 16.4092C8.26172 15.3238 9.17058 14.4856 10.2402 14.4854C11.3101 14.4854 12.2197 15.3236 12.2197 16.4092Z" fill="currentColor"/>
<path d="M12.9131 2.5249C14.6884 2.52491 16.0482 2.72391 16.9141 3.55518C17.7797 4.38647 17.9863 5.69188 17.9863 7.396V14.1099C17.8801 14.1051 17.773 14.1036 17.665 14.106C17.3472 14.1124 17.0372 14.1508 16.7383 14.2173V7.396C16.7383 5.68311 16.5002 4.85202 16.0312 4.40186C15.5623 3.95176 14.6971 3.72315 12.9131 3.72314H7.57324C5.78922 3.72317 4.92397 3.95172 4.45508 4.40186C3.98616 4.85203 3.74805 5.68313 3.74805 7.396V15.939C3.74808 17.6514 3.98628 18.482 4.45508 18.9321C4.92397 19.3823 5.78922 19.6108 7.57324 19.6108H12.9131C13.0634 19.6108 13.2071 19.6063 13.3447 19.603C13.4606 20.0249 13.6406 20.4222 13.874 20.7808C13.5688 20.7979 13.2485 20.8091 12.9131 20.8091H7.57324C5.79808 20.8091 4.43813 20.611 3.57227 19.7798C2.70646 18.9486 2.50003 17.6431 2.5 15.939V7.396C2.5 5.69196 2.7067 4.38648 3.57227 3.55518C4.43813 2.72395 5.79808 2.52493 7.57324 2.5249H12.9131Z" fill="currentColor"/>
<path fill-rule="evenodd" clip-rule="evenodd" d="M21.7139 18.4088C21.6646 16.3149 19.8588 14.6574 17.6782 14.7048L17.6773 14.7048C16.7534 14.7237 15.9043 15.0534 15.2282 15.5874C14.3409 16.2979 13.7903 17.3758 13.8198 18.5675L13.8199 18.5738C13.8297 19.2793 14.0554 19.9492 14.4291 20.5062C14.4312 20.5094 14.4334 20.5127 14.4354 20.5159C15.133 21.6006 16.4015 22.3106 17.8426 22.2832C18.8429 22.254 19.738 21.8841 20.4165 21.28C20.4187 21.2779 20.421 21.2759 20.4234 21.2739C20.7187 21.0187 20.9826 20.708 21.1752 20.3751C21.1778 20.3706 21.1805 20.366 21.1833 20.3616C21.5382 19.7843 21.7336 19.1158 21.714 18.4112L21.7139 18.4088ZM22.9619 18.3805C22.8964 15.626 20.5201 13.4446 17.6503 13.5067C16.4267 13.5318 15.3109 13.9695 14.4332 14.6634L14.4304 14.6657C13.2622 15.6002 12.5338 17.0218 12.5717 18.5929C12.5854 19.5297 12.884 20.4146 13.3763 21.1504C14.3017 22.5854 15.9786 23.5186 17.8711 23.4813L17.8768 23.4811C19.1821 23.4439 20.3645 22.9594 21.262 22.1617C21.649 21.8267 21.9993 21.4169 22.2625 20.964C22.7276 20.2047 22.9877 19.3183 22.9619 18.3805Z" fill="currentColor"/>
<path d="M15.9844 18.5272L17.1386 19.5803L19.527 17.3643" stroke="currentColor" stroke-width="1.2" stroke-linecap="round" stroke-linejoin="round"/>
</svg>
