<svg width="100%" height="100%" viewBox="0 0 25 25" fill="none" xmlns="http://www.w3.org/2000/svg">
<path d="M1.75 15.3965C1.75 14.9823 2.08579 14.6465 2.5 14.6465C2.91421 14.6465 3.25 14.9823 3.25 15.3965C3.25 17.8225 3.73974 19.3257 4.65527 20.2412C5.5708 21.1567 7.07397 21.6465 9.5 21.6465C9.91421 21.6465 10.25 21.9823 10.25 22.3965C10.25 22.8107 9.91421 23.1465 9.5 23.1465C6.92603 23.1465 4.9292 22.6362 3.59473 21.3018C2.26026 19.9673 1.75 17.9705 1.75 15.3965ZM21.75 15.3965C21.75 14.9823 22.0858 14.6465 22.5 14.6465C22.9142 14.6465 23.25 14.9823 23.25 15.3965C23.25 17.9705 22.7397 19.9673 21.4053 21.3018C20.0708 22.6362 18.074 23.1465 15.5 23.1465C15.0858 23.1465 14.75 22.8107 14.75 22.3965C14.75 21.9823 15.0858 21.6465 15.5 21.6465C17.926 21.6465 19.4292 21.1567 20.3447 20.2412C21.2603 19.3257 21.75 17.8225 21.75 15.3965ZM1.75 9.39648C1.75 6.82251 2.26026 4.82568 3.59473 3.49121C4.9292 2.15674 6.92603 1.64648 9.5 1.64648C9.91421 1.64648 10.25 1.98227 10.25 2.39648C10.25 2.8107 9.91421 3.14648 9.5 3.14648C7.07397 3.14648 5.5708 3.63623 4.65527 4.55176C3.73974 5.46729 3.25 6.97046 3.25 9.39648C3.25 9.8107 2.91421 10.1465 2.5 10.1465C2.08579 10.1465 1.75 9.8107 1.75 9.39648ZM21.75 9.39648C21.75 6.97046 21.2603 5.46729 20.3447 4.55176C19.4292 3.63623 17.926 3.14648 15.5 3.14648C15.0858 3.14648 14.75 2.8107 14.75 2.39648C14.75 1.98227 15.0858 1.64648 15.5 1.64648C18.074 1.64648 20.0708 2.15674 21.4053 3.49121C22.7397 4.82568 23.25 6.82251 23.25 9.39648C23.25 9.8107 22.9142 10.1465 22.5 10.1465C22.0858 10.1465 21.75 9.8107 21.75 9.39648Z" fill="currentColor"/>
<path d="M11.9023 15.4546V13.9263C11.9023 13.5949 12.1706 13.3267 12.502 13.3267C12.8333 13.3267 13.1016 13.5949 13.1016 13.9263V15.4546C13.1016 15.786 12.8333 16.0552 12.502 16.0552C12.1706 16.0552 11.9023 15.786 11.9023 15.4546Z" fill="currentColor"/>
<path d="M11.1423 7.25279C11.9025 6.6432 13.0955 6.644 13.8591 7.2567L17.3903 10.0799L17.3913 10.0809L17.4997 10.1756C17.7431 10.4075 17.922 10.7086 18.0358 11.0067C18.1659 11.3477 18.2345 11.7486 18.1726 12.1278V12.1297L17.4948 16.1854V16.1874C17.3236 17.1932 16.3763 17.9959 15.3542 17.996H9.64717C8.68475 17.9958 7.79575 17.2954 7.54756 16.3739L7.50655 16.1864V16.1854L6.82881 12.1297L6.82979 12.1288C6.76501 11.7489 6.8315 11.3478 6.96163 11.0067C7.09206 10.665 7.30931 10.3205 7.61104 10.0799L11.1423 7.25181V7.25279ZM13.1081 8.19322C12.7814 7.93078 12.2129 7.93244 11.8933 8.18834L11.8923 8.18931L8.36202 11.0165L8.36006 11.0184C8.26551 11.0936 8.15709 11.2396 8.08272 11.4344C8.02692 11.5807 8.00319 11.7192 8.00362 11.829L8.01241 11.9286V11.9325L8.69014 15.9872L8.7087 16.0672C8.81942 16.4668 9.234 16.7965 9.64717 16.7967H15.3542C15.7893 16.7967 16.2378 16.4172 16.3112 15.9862L16.989 11.9325C17.0081 11.8123 16.9893 11.63 16.9148 11.4344C16.84 11.2388 16.7332 11.0918 16.6403 11.0165V11.0174L13.1101 8.1942L13.1081 8.19322Z" fill="currentColor"/>
</svg>
