<svg width="100%" height="100%" viewBox="0 0 23 23" fill="none" xmlns="http://www.w3.org/2000/svg">
<path d="M14.5 0.722168C17.074 0.722168 19.0708 1.23243 20.4053 2.56689C21.7397 3.90136 22.25 5.8982 22.25 8.47217V14.4722C22.25 17.0461 21.7397 19.043 20.4053 20.3774C19.0708 21.7119 17.074 22.2222 14.5 22.2222H8.5C5.92603 22.2222 3.9292 21.7119 2.59473 20.3774C1.26026 19.043 0.75 17.0461 0.75 14.4722V8.47217C0.75 5.8982 1.26026 3.90136 2.59473 2.56689C3.9292 1.23243 5.92603 0.722168 8.5 0.722168H14.5ZM8.5 2.22217C6.07397 2.22217 4.5708 2.71191 3.65527 3.62744C2.73974 4.54297 2.25 6.04614 2.25 8.47217V14.4722C2.25 16.8982 2.73974 18.4014 3.65527 19.3169C4.5708 20.2324 6.07397 20.7222 8.5 20.7222H14.5C16.926 20.7222 18.4292 20.2324 19.3447 19.3169C20.2603 18.4014 20.75 16.8982 20.75 14.4722V8.47217C20.75 6.04614 20.2603 4.54297 19.3447 3.62744C18.4292 2.71191 16.926 2.22217 14.5 2.22217H8.5ZM11.7285 4.646C12.0217 4.39127 12.4563 4.40518 12.7334 4.66553L12.7871 4.72021L14.4473 6.63037L14.4941 6.69092C14.4984 6.69698 14.5008 6.7043 14.5049 6.71045C14.525 6.74098 14.5434 6.77193 14.5586 6.8042C14.6222 6.93942 14.6422 7.08803 14.6211 7.23193C14.6201 7.23888 14.6174 7.24553 14.6162 7.25244C14.6091 7.29291 14.5996 7.33259 14.5859 7.37158C14.5841 7.37695 14.5811 7.38188 14.5791 7.38721C14.5648 7.42521 14.548 7.46194 14.5273 7.49756C14.5216 7.50758 14.5151 7.51708 14.5088 7.52686C14.4897 7.55646 14.4689 7.58467 14.4453 7.61182C14.4288 7.63088 14.4122 7.64992 14.3936 7.66748C14.3864 7.67422 14.3805 7.68245 14.373 7.68896C14.3656 7.69543 14.3563 7.69945 14.3486 7.70557C14.3397 7.71271 14.3316 7.72123 14.3223 7.72803L12.3828 9.14795C12.0486 9.39239 11.5786 9.31995 11.334 8.98584C11.0895 8.65171 11.1622 8.18169 11.4961 7.93701L12.0703 7.51611C11.8875 7.49463 11.6978 7.48291 11.5 7.48291C9.15421 7.48291 7.25 9.38712 7.25 11.7329C7.25026 14.0785 9.15438 15.9829 11.5 15.9829C13.8456 15.9829 15.7497 14.0785 15.75 11.7329C15.75 10.9667 15.5485 10.2531 15.1953 9.62939L15.0352 9.3667L14.9961 9.30127C14.819 8.9648 14.9224 8.54223 15.2461 8.32764C15.5698 8.11338 15.9984 8.18315 16.2393 8.47705L16.2852 8.53857L16.501 8.89111C16.9762 9.73076 17.25 10.6971 17.25 11.7329C17.2497 14.9069 14.6741 17.4829 11.5 17.4829C8.32595 17.4829 5.75026 14.9069 5.75 11.7329C5.75 8.5587 8.32579 5.98291 11.5 5.98291C11.6385 5.98291 11.7739 5.98625 11.9062 5.99463L11.6543 5.70459L11.6074 5.64404C11.3882 5.3334 11.4354 4.90076 11.7285 4.646Z" fill="currentColor"/>
</svg>
