<svg width="24" height="25" viewBox="0 0 24 25" fill="none" xmlns="http://www.w3.org/2000/svg">
<path d="M9 22.0601H15C20 22.0601 22 20.0601 22 15.0601V9.06006C22 4.06006 20 2.06006 15 2.06006H9C4 2.06006 2 4.06006 2 9.06006V15.0601C2 20.0601 4 22.0601 9 22.0601Z" stroke="currentColor" stroke-width="1.5" stroke-linecap="round" stroke-linejoin="round"/>
<path d="M7.99938 9.41602L5.82292 11.5925C5.56944 11.846 5.56944 12.2743 5.82292 12.5277L7.99938 14.7042" stroke="currentColor" stroke-width="1.5" stroke-miterlimit="10" stroke-linecap="round" stroke-linejoin="round"/>
<path d="M13.5011 8.56396L10.5 15.5566" stroke="currentColor" stroke-width="1.5" stroke-miterlimit="10" stroke-linecap="round" stroke-linejoin="round"/>
<path d="M16 9.41602L18.1765 11.5925C18.4299 11.846 18.4299 12.2743 18.1765 12.5277L16 14.7042" stroke="currentColor" stroke-width="1.5" stroke-miterlimit="10" stroke-linecap="round" stroke-linejoin="round"/>
</svg>
