<svg xmlns="http://www.w3.org/2000/svg" width="24" height="24" viewBox="0 0 24 24" fill="none">
  <path d="M15.3408 3.34076C16.4779 3.77948 17.5175 4.43788 18.4002 5.27837C19.2829 6.11886 19.9914 7.12497 20.4853 8.23928C20.9791 9.35358 21.2487 10.5542 21.2785 11.7727C21.3084 12.9912 21.0979 14.2036 20.6592 15.3408C20.2205 16.4779 19.5621 17.5175 18.7216 18.4002C17.8811 19.2829 16.875 19.9914 15.7607 20.4853C14.6464 20.9791 13.4457 21.2487 12.2273 21.2785C11.0088 21.3084 9.79636 21.0979 8.65922 20.6592C7.52207 20.2205 6.48248 19.5621 5.59978 18.7216C4.71709 17.8811 4.00858 16.875 3.51472 15.7607C3.02086 14.6464 2.75131 13.4457 2.72146 12.2272C2.69162 11.0088 2.90206 9.79634 3.34078 8.6592C3.7795 7.52205 4.4379 6.48246 5.27839 5.59976C6.11888 4.71707 7.12499 4.00856 8.2393 3.5147C9.3536 3.02084 10.5543 2.75129 11.7727 2.72144C12.9912 2.6916 14.2036 2.90204 15.3408 3.34076L15.3408 3.34076Z" stroke="#787880" stroke-opacity="0.2" stroke-width="3.09377"/>
  <path d="M15.3408 3.34076C17.1694 4.04626 18.7278 5.31257 19.7925 6.95819C20.8572 8.6038 21.3737 10.5442 21.2678 12.5014C21.1619 14.4586 20.4391 16.332 19.203 17.8531C17.967 19.3742 16.2811 20.465 14.387 20.9691" stroke="currentColor" stroke-width="3.09377" stroke-linecap="round"/>
</svg>
