<svg width="100%" height="100%" viewBox="0 0 25 25" fill="none" xmlns="http://www.w3.org/2000/svg">
<path d="M1.75 15.3208C1.75 14.9066 2.08579 14.5708 2.5 14.5708C2.91421 14.5708 3.25 14.9066 3.25 15.3208C3.25 17.7468 3.73974 19.25 4.65527 20.1655C5.5708 21.0811 7.07397 21.5708 9.5 21.5708C9.91421 21.5708 10.25 21.9066 10.25 22.3208C10.25 22.735 9.91421 23.0708 9.5 23.0708C6.92603 23.0708 4.9292 22.5605 3.59473 21.2261C2.26026 19.8916 1.75 17.8948 1.75 15.3208ZM21.75 15.3208C21.75 14.9066 22.0858 14.5708 22.5 14.5708C22.9142 14.5708 23.25 14.9066 23.25 15.3208C23.25 17.8948 22.7397 19.8916 21.4053 21.2261C20.0708 22.5605 18.074 23.0708 15.5 23.0708C15.0858 23.0708 14.75 22.735 14.75 22.3208C14.75 21.9066 15.0858 21.5708 15.5 21.5708C17.926 21.5708 19.4292 21.0811 20.3447 20.1655C21.2603 19.25 21.75 17.7468 21.75 15.3208ZM1.75 9.3208C1.75 6.74683 2.26026 4.75 3.59473 3.41553C4.9292 2.08106 6.92603 1.5708 9.5 1.5708C9.91421 1.5708 10.25 1.90659 10.25 2.3208C10.25 2.73501 9.91421 3.0708 9.5 3.0708C7.07397 3.0708 5.5708 3.56054 4.65527 4.47607C3.73974 5.39161 3.25 6.89477 3.25 9.3208C3.25 9.73501 2.91421 10.0708 2.5 10.0708C2.08579 10.0708 1.75 9.73501 1.75 9.3208ZM21.75 9.3208C21.75 6.89477 21.2603 5.39161 20.3447 4.47607C19.4292 3.56054 17.926 3.0708 15.5 3.0708C15.0858 3.0708 14.75 2.73501 14.75 2.3208C14.75 1.90659 15.0858 1.5708 15.5 1.5708C18.074 1.5708 20.0708 2.08106 21.4053 3.41553C22.7397 4.75 23.25 6.74683 23.25 9.3208C23.25 9.73501 22.9142 10.0708 22.5 10.0708C22.0858 10.0708 21.75 9.73501 21.75 9.3208Z" fill="currentColor"/>
<path d="M13.0454 10.5743C13.6392 10.6447 14.1445 10.9042 14.5454 11.2559C15.332 11.9463 15.7529 13.024 15.6762 13.8467L15.3442 13.8155L15.0121 13.7852C15.0671 13.1959 14.7482 12.3207 14.1059 11.7569C13.7921 11.4815 13.4094 11.2888 12.9672 11.2364C12.5811 11.1906 12.1306 11.2493 11.6186 11.4786L11.395 11.5879C10.338 12.1454 9.90272 13.1238 9.98285 14.2667C10.0592 15.3535 10.6067 16.5818 11.5463 17.6661L11.7397 17.8809L11.7807 17.9346C11.8616 18.0669 11.8409 18.2427 11.7231 18.3526C11.6051 18.4625 11.4285 18.4701 11.3022 18.3799L11.2514 18.336L11.0444 18.1045C10.0305 16.9351 9.40627 15.5742 9.31781 14.3126C9.22244 12.9506 9.75665 11.6981 11.0844 10.9981L11.3471 10.8702C11.9547 10.5983 12.525 10.5127 13.0454 10.5743ZM12.7182 9.1895C14.6049 9.18953 16.0149 10.5243 16.6694 11.8907C16.9976 12.5759 17.155 13.3072 17.0698 13.9297C16.9878 14.5278 16.672 15.0465 16.0659 15.2647L15.9409 15.3047C15.5861 15.4022 15.2731 15.4257 14.9955 15.3741C14.7132 15.3215 14.4868 15.1943 14.3051 15.0215C13.962 14.6951 13.7843 14.2037 13.6391 13.8135C13.4783 13.3814 13.3499 13.052 13.144 12.8506C13.0514 12.7602 12.9439 12.6983 12.8032 12.6709C12.6938 12.6497 12.5534 12.6468 12.3715 12.6797L12.1762 12.7247C11.8116 12.8255 11.5921 13.0656 11.4907 13.4073C11.3847 13.7646 11.4079 14.2442 11.5844 14.7754C11.9369 15.8362 12.8649 16.9927 14.2485 17.5655C14.4183 17.636 14.4985 17.8311 14.4282 18.001C14.3576 18.1709 14.1626 18.2521 13.9926 18.1817C12.4205 17.5307 11.3617 16.2201 10.9516 14.9864C10.7469 14.3705 10.6947 13.745 10.851 13.2178C11.0121 12.6749 11.3935 12.2495 11.9985 12.0821L12.2524 12.0235C12.4994 11.9787 12.7245 11.9767 12.9301 12.0167C13.2092 12.0709 13.432 12.2002 13.6098 12.3741C13.9444 12.7012 14.1188 13.1921 14.2631 13.5801C14.423 14.0099 14.5543 14.3383 14.7641 14.5381C14.859 14.6284 14.9707 14.6914 15.1176 14.7188C15.2693 14.747 15.4768 14.741 15.7641 14.6622L15.8959 14.6153C16.1866 14.4874 16.3568 14.2245 16.4096 13.8389C16.472 13.3831 16.3585 12.7856 16.0678 12.1788C15.4843 10.9606 14.2673 9.85652 12.7182 9.8565C11.6831 9.8565 10.9145 10.097 10.3442 10.4678C9.77369 10.8388 9.37967 11.3542 9.11762 11.9395C8.65433 12.9745 8.61207 14.2099 8.73676 15.1543L8.79926 15.5401L8.80512 15.6075C8.80393 15.7625 8.69461 15.9006 8.53656 15.9317C8.37846 15.9628 8.22425 15.8766 8.16449 15.7334L8.14496 15.669L8.0766 15.2501C7.93954 14.2198 7.97999 12.8493 8.50922 11.667C8.81432 10.9856 9.28513 10.3616 9.9809 9.90923C10.6771 9.45659 11.5769 9.1895 12.7182 9.1895ZM12.4125 13.542C12.5724 13.5217 12.72 13.6178 12.77 13.7647L12.7856 13.8301L12.8237 14.0586C12.9353 14.5961 13.2055 15.1624 13.6713 15.5879C14.1949 16.0663 14.9947 16.3936 16.1782 16.2706C16.3613 16.2515 16.5253 16.3853 16.5444 16.5684C16.5632 16.7512 16.4302 16.9144 16.2475 16.9336C14.8965 17.0741 13.9016 16.7008 13.2221 16.0801C12.6352 15.544 12.3055 14.8438 12.1704 14.1905L12.1245 13.9141L12.1225 13.8467C12.1342 13.6922 12.2529 13.5624 12.4125 13.542ZM15.6762 13.8467C15.6591 14.0299 15.497 14.1644 15.3139 14.1475C15.1307 14.1304 14.9952 13.9684 15.0121 13.7852L15.6762 13.8467ZM7.70453 10.2071C10.0408 7.03129 14.8216 6.92379 17.2827 10.0938L17.5727 10.4668L17.6079 10.5245C17.6764 10.6635 17.6404 10.8358 17.5131 10.9346C17.3859 11.0334 17.2099 11.0257 17.0922 10.9249L17.0454 10.876L16.7563 10.503C14.5684 7.68437 10.3178 7.77991 8.24066 10.6036L8.04633 10.8858L7.97113 11.003C7.87139 11.1576 7.66489 11.2023 7.51019 11.1026C7.35545 11.0029 7.31092 10.7964 7.41058 10.6417L7.48578 10.5245L7.70453 10.2071ZM9.33832 7.18169C11.0611 6.30105 13.0802 6.17571 14.9067 6.84868L15.7387 7.15532L15.7993 7.18462C15.9311 7.26628 15.9917 7.43188 15.936 7.58306C15.8803 7.73414 15.7269 7.82114 15.5737 7.7979L15.5082 7.78032L14.6762 7.47368C12.9149 6.82474 10.9556 6.99743 9.33441 7.94341L9.27289 7.97075C9.12596 8.02073 8.95966 7.96249 8.87836 7.82329C8.78562 7.66438 8.8387 7.4601 8.9975 7.36724L9.33832 7.18169Z" fill="currentColor"/>
</svg>
